{"glyphs":{"0":{"ha":859,"x_min":0,"x_max":0,"o":"m 232 253 b 430 58 265 125 332 58 b 653 489 576 58 653 206 b 645 636 653 543 650 592 m 629 722 b 430 920 595 852 529 920 b 207 489 283 920 207 772 b 215 344 207 436 210 387 m 430 1001 b 746 489 634 1001 746 820 b 430 -23 746 158 634 -23 b 114 489 226 -23 114 158 b 430 1001 114 820 226 1001 "},"1":{"ha":859,"x_min":0,"x_max":0,"o":"m 795 80 l 795 0 l 121 0 l 121 80 l 418 80 l 418 868 l 408 868 l 118 681 l 118 784 l 419 979 l 511 979 l 511 80 "},"2":{"ha":859,"x_min":0,"x_max":0,"o":"m 132 712 b 422 999 132 878 254 999 b 712 729 594 999 712 889 b 517 378 712 629 670 553 l 273 95 l 273 84 l 728 84 l 728 0 l 136 0 l 136 59 l 471 451 b 619 728 591 593 619 645 b 420 918 619 843 541 918 b 223 712 301 918 223 837 l 223 708 l 132 708 l 132 712 "},"3":{"ha":859,"x_min":0,"x_max":0,"o":"m 310 545 l 414 545 b 610 736 528 545 610 625 b 416 918 610 845 532 918 b 214 734 302 918 226 848 l 121 734 b 421 999 135 898 250 999 b 708 748 587 999 708 894 b 544 518 708 629 648 545 l 544 508 b 750 261 673 490 750 397 b 428 -20 750 98 614 -20 b 102 250 242 -20 111 88 l 191 250 b 425 61 203 136 296 61 b 656 259 568 61 656 137 b 420 465 656 385 564 465 l 310 465 "},"4":{"ha":859,"x_min":0,"x_max":0,"o":"m 557 216 l 109 216 l 109 288 l 454 979 l 549 979 l 206 302 l 206 296 l 557 296 l 557 590 l 642 590 l 642 299 l 798 299 l 798 216 l 641 216 l 641 0 l 557 0 "},"5":{"ha":859,"x_min":0,"x_max":0,"o":"m 420 -20 b 111 253 246 -20 122 90 l 199 253 b 428 62 210 140 304 62 b 651 304 562 62 651 159 b 428 550 651 450 561 550 b 214 432 334 550 254 506 l 128 432 l 179 979 l 690 979 l 690 895 l 252 895 l 222 549 l 233 549 b 435 635 283 606 351 635 b 743 306 616 635 743 499 b 420 -20 743 112 612 -20 "},"6":{"ha":859,"x_min":0,"x_max":0,"o":"m 749 308 b 429 -20 749 116 616 -20 b 112 302 246 -20 112 116 b 242 651 112 414 150 516 l 466 979 l 574 979 l 299 593 b 271 551 269 550 275 559 l 280 545 b 444 616 307 584 381 616 b 749 308 620 616 749 486 m 431 60 b 661 302 561 60 661 165 b 431 545 661 439 561 545 b 201 302 300 545 201 439 b 431 60 201 165 300 60 "},"7":{"ha":859,"x_min":0,"x_max":0,"o":"m 658 888 l 658 895 l 115 895 l 115 979 l 753 979 l 753 892 l 304 0 l 205 0 "},"8":{"ha":859,"x_min":0,"x_max":0,"o":"m 433 555 b 633 735 554 555 633 627 b 433 916 633 844 554 916 b 233 735 313 916 233 844 b 433 555 233 627 313 555 m 433 61 b 672 267 574 61 672 145 b 433 472 672 388 574 472 b 195 267 292 472 195 388 b 433 61 195 145 292 61 m 433 -22 b 104 261 240 -22 104 95 b 298 511 104 383 180 483 l 298 522 b 143 742 203 550 143 635 b 433 1001 143 894 264 1001 b 724 742 603 1001 724 894 b 568 522 724 634 665 551 l 568 511 b 763 261 683 488 763 385 b 433 -22 763 95 627 -22 "},"9":{"ha":859,"x_min":0,"x_max":0,"o":"m 108 671 b 428 999 108 863 241 999 b 745 677 610 999 745 863 b 611 328 745 568 706 467 l 387 0 l 279 0 l 554 385 b 583 427 574 414 578 419 l 574 434 b 412 362 547 394 475 362 b 108 671 237 362 108 493 m 426 919 b 196 676 296 919 196 813 b 426 433 196 539 296 433 b 656 676 556 433 656 539 b 426 919 656 813 556 919 "}," ":{"ha":859,"x_min":0,"x_max":0,"o":""},"A":{"ha":859,"x_min":0,"x_max":0,"o":"m 582 380 l 430 857 l 429 857 l 277 380 m 607 300 l 252 300 l 156 0 l 61 0 l 384 979 l 475 979 l 798 0 l 703 0 "},"À":{"ha":859,"x_min":0,"x_max":0,"o":"m 393 1097 l 172 1298 l 290 1298 l 500 1097 m 582 380 l 430 857 l 429 857 l 277 380 m 607 300 l 252 300 l 156 0 l 61 0 l 384 979 l 475 979 l 798 0 l 703 0 "},"Á":{"ha":859,"x_min":0,"x_max":0,"o":"m 464 1097 l 357 1097 l 567 1298 l 685 1298 m 582 380 l 430 857 l 429 857 l 277 380 m 607 300 l 252 300 l 156 0 l 61 0 l 384 979 l 475 979 l 798 0 l 703 0 "},"Ä":{"ha":859,"x_min":0,"x_max":0,"o":"m 559 1130 b 487 1202 521 1130 487 1164 b 559 1275 487 1241 521 1275 b 631 1202 597 1275 631 1241 b 559 1130 631 1164 597 1130 m 300 1130 b 228 1202 262 1130 228 1164 b 300 1275 228 1241 262 1275 b 372 1202 338 1275 372 1241 b 300 1130 372 1164 338 1130 m 582 380 l 430 857 l 429 857 l 277 380 m 607 300 l 252 300 l 156 0 l 61 0 l 384 979 l 475 979 l 798 0 l 703 0 "},"Ǟ":{"ha":859,"x_min":0,"x_max":0,"o":"m 646 1298 l 213 1298 l 213 1364 l 646 1364 m 490 1126 b 553 1190 490 1162 518 1190 b 616 1126 589 1190 616 1162 b 553 1063 616 1091 589 1063 b 490 1126 518 1063 490 1091 m 243 1126 b 307 1190 243 1162 271 1190 b 370 1126 342 1190 370 1162 b 307 1063 370 1091 342 1063 b 243 1126 271 1063 243 1091 m 582 380 l 430 857 l 429 857 l 277 380 m 607 300 l 252 300 l 156 0 l 61 0 l 384 979 l 475 979 l 798 0 l 703 0 "},"Å":{"ha":859,"x_min":0,"x_max":0,"o":"m 429 1260 b 358 1189 389 1260 358 1230 b 429 1118 358 1147 389 1118 b 500 1189 470 1118 500 1147 b 429 1260 500 1230 470 1260 m 429 1061 b 300 1189 357 1061 300 1118 b 429 1317 300 1260 357 1317 b 558 1189 501 1317 558 1260 b 429 1061 558 1118 501 1061 m 582 380 l 430 857 l 429 857 l 277 380 m 607 300 l 252 300 l 156 0 l 61 0 l 384 979 l 475 979 l 798 0 l 703 0 "},"Ǻ":{"ha":859,"x_min":0,"x_max":0,"o":"m 475 1335 l 389 1335 l 473 1449 l 573 1449 m 429 1238 b 358 1167 389 1238 358 1208 b 429 1096 358 1126 389 1096 b 500 1167 470 1096 500 1126 b 429 1238 500 1208 470 1238 m 429 1039 b 300 1167 357 1039 300 1096 b 429 1295 300 1238 357 1295 b 558 1167 501 1295 558 1238 b 429 1039 558 1096 501 1039 m 582 380 l 430 857 l 429 857 l 277 380 m 607 300 l 252 300 l 156 0 l 61 0 l 384 979 l 475 979 l 798 0 l 703 0 "},"Ã":{"ha":859,"x_min":0,"x_max":0,"o":"m 666 1280 b 528 1107 666 1175 611 1107 b 333 1219 422 1107 406 1219 b 264 1114 290 1219 267 1183 l 193 1114 b 331 1288 193 1221 246 1288 b 526 1175 441 1288 463 1175 b 595 1280 567 1175 592 1213 m 582 380 l 430 857 l 429 857 l 277 380 m 607 300 l 252 300 l 156 0 l 61 0 l 384 979 l 475 979 l 798 0 l 703 0 "},"Ằ":{"ha":859,"x_min":0,"x_max":0,"o":"m 408 1246 l 283 1388 l 391 1388 l 502 1246 m 653 1246 b 429 1069 653 1137 568 1069 b 205 1246 290 1069 205 1137 l 286 1246 b 429 1136 286 1177 339 1136 b 573 1246 519 1136 573 1177 m 582 380 l 430 857 l 429 857 l 277 380 m 607 300 l 252 300 l 156 0 l 61 0 l 384 979 l 475 979 l 798 0 l 703 0 "},"Ǡ":{"ha":859,"x_min":0,"x_max":0,"o":"m 646 1298 l 213 1298 l 213 1364 l 646 1364 m 359 1141 b 429 1211 359 1180 390 1211 b 500 1141 469 1211 500 1180 b 429 1070 500 1101 469 1070 b 359 1141 390 1070 359 1101 m 582 380 l 430 857 l 429 857 l 277 380 m 607 300 l 252 300 l 156 0 l 61 0 l 384 979 l 475 979 l 798 0 l 703 0 "},"Ḁ":{"ha":859,"x_min":0,"x_max":0,"o":"m 429 -324 b 513 -235 477 -324 513 -286 b 429 -146 513 -184 477 -146 b 345 -235 381 -146 345 -184 b 429 -324 345 -286 381 -324 m 429 -82 b 579 -235 512 -82 579 -151 b 429 -389 579 -320 512 -389 b 279 -235 347 -389 279 -320 b 429 -82 279 -151 347 -82 m 582 380 l 430 857 l 429 857 l 277 380 m 703 0 l 607 300 l 252 300 l 156 0 l 61 0 l 384 979 l 475 979 l 798 0 "},"Â":{"ha":859,"x_min":0,"x_max":0,"o":"m 296 1097 l 191 1097 l 387 1298 l 471 1298 l 667 1097 l 562 1097 l 433 1234 l 425 1234 m 582 380 l 430 857 l 429 857 l 277 380 m 607 300 l 252 300 l 156 0 l 61 0 l 384 979 l 475 979 l 798 0 l 703 0 "},"Ậ":{"ha":859,"x_min":0,"x_max":0,"o":"m 296 1097 l 191 1097 l 387 1298 l 471 1298 l 667 1097 l 562 1097 l 433 1234 l 425 1234 m 429 -145 b 507 -222 471 -145 507 -180 b 429 -298 507 -263 471 -298 b 352 -222 388 -298 352 -263 b 429 -145 352 -180 388 -145 m 582 380 l 430 857 l 429 857 l 277 380 m 703 0 l 607 300 l 252 300 l 156 0 l 61 0 l 384 979 l 475 979 l 798 0 "},"Ấ":{"ha":859,"x_min":0,"x_max":0,"o":"m 659 1240 l 558 1240 l 710 1388 l 824 1388 m 303 1069 l 186 1069 l 380 1221 l 479 1221 l 672 1069 l 555 1069 l 433 1168 l 425 1168 m 582 380 l 430 857 l 429 857 l 277 380 m 475 979 l 798 0 l 703 0 l 607 300 l 252 300 l 156 0 l 61 0 l 384 979 "},"Ẫ":{"ha":859,"x_min":0,"x_max":0,"o":"m 659 1405 b 522 1254 659 1316 603 1254 b 336 1347 408 1254 408 1347 b 271 1264 296 1347 273 1318 l 199 1264 b 336 1415 199 1354 254 1415 b 523 1322 451 1415 450 1322 b 588 1405 562 1322 585 1352 m 303 1069 l 186 1069 l 380 1221 l 479 1221 l 672 1069 l 555 1069 l 433 1168 l 425 1168 m 582 380 l 430 857 l 429 857 l 277 380 m 607 300 l 252 300 l 156 0 l 61 0 l 384 979 l 475 979 l 798 0 l 703 0 "},"Ầ":{"ha":859,"x_min":0,"x_max":0,"o":"m 605 1240 l 440 1388 l 554 1388 l 706 1240 m 303 1069 l 186 1069 l 380 1221 l 479 1221 l 672 1069 l 555 1069 l 433 1168 l 425 1168 m 582 380 l 430 857 l 429 857 l 277 380 m 607 300 l 252 300 l 156 0 l 61 0 l 384 979 l 475 979 l 798 0 l 703 0 "},"Ẩ":{"ha":859,"x_min":0,"x_max":0,"o":"m 575 1240 b 629 1305 608 1253 629 1278 b 571 1352 629 1333 606 1352 b 507 1339 549 1352 521 1347 l 507 1395 b 591 1408 523 1402 558 1408 b 705 1309 659 1408 705 1368 b 626 1200 705 1261 673 1217 m 303 1069 l 186 1069 l 380 1221 l 479 1221 l 672 1069 l 555 1069 l 433 1168 l 425 1168 m 582 380 l 430 857 l 429 857 l 277 380 m 607 300 l 252 300 l 156 0 l 61 0 l 384 979 l 475 979 l 798 0 l 703 0 "},"Ă":{"ha":859,"x_min":0,"x_max":0,"o":"m 653 1298 b 429 1097 653 1179 561 1097 b 205 1298 298 1097 205 1179 l 286 1298 b 429 1163 286 1220 346 1163 b 573 1298 513 1163 573 1220 m 582 380 l 430 857 l 429 857 l 277 380 m 607 300 l 252 300 l 156 0 l 61 0 l 384 979 l 475 979 l 798 0 l 703 0 "},"Ắ":{"ha":859,"x_min":0,"x_max":0,"o":"m 451 1246 l 357 1246 l 468 1388 l 575 1388 m 653 1246 b 429 1069 653 1137 568 1069 b 205 1246 290 1069 205 1137 l 286 1246 b 429 1136 286 1177 339 1136 b 573 1246 519 1136 573 1177 m 582 380 l 430 857 l 429 857 l 277 380 m 607 300 l 252 300 l 156 0 l 61 0 l 384 979 l 475 979 l 798 0 l 703 0 "},"Ẵ":{"ha":859,"x_min":0,"x_max":0,"o":"m 655 1385 b 526 1251 655 1308 600 1251 b 339 1337 422 1251 402 1337 b 275 1270 300 1337 276 1311 l 203 1270 b 333 1404 203 1350 256 1404 b 519 1318 436 1404 456 1318 b 584 1385 557 1318 583 1345 m 286 1219 b 429 1136 286 1173 350 1136 b 573 1219 509 1136 573 1173 l 653 1219 b 429 1069 653 1135 555 1069 b 205 1219 303 1069 205 1135 m 582 380 l 430 857 l 429 857 l 277 380 m 607 300 l 252 300 l 156 0 l 61 0 l 384 979 l 475 979 l 798 0 l 703 0 "},"Ẳ":{"ha":859,"x_min":0,"x_max":0,"o":"m 395 1240 b 450 1305 429 1253 450 1278 b 391 1352 450 1333 426 1352 b 328 1339 369 1352 341 1347 l 328 1395 b 411 1408 343 1402 378 1408 b 525 1309 479 1408 525 1368 b 446 1200 525 1261 493 1217 m 653 1246 b 429 1069 653 1137 568 1069 b 205 1246 290 1069 205 1137 l 286 1246 b 429 1136 286 1177 339 1136 b 573 1246 519 1136 573 1177 m 582 380 l 430 857 l 429 857 l 277 380 m 607 300 l 252 300 l 156 0 l 61 0 l 384 979 l 475 979 l 798 0 l 703 0 "},"Ặ":{"ha":859,"x_min":0,"x_max":0,"o":"m 653 1298 b 429 1097 653 1179 561 1097 b 205 1298 298 1097 205 1179 l 286 1298 b 429 1163 286 1220 346 1163 b 573 1298 513 1163 573 1220 m 429 -145 b 507 -222 471 -145 507 -180 b 429 -298 507 -263 471 -298 b 352 -222 388 -298 352 -263 b 429 -145 352 -180 388 -145 m 582 380 l 430 857 l 429 857 l 277 380 m 703 0 l 607 300 l 252 300 l 156 0 l 61 0 l 384 979 l 475 979 l 798 0 "},"Ȃ":{"ha":859,"x_min":0,"x_max":0,"o":"m 573 1097 b 429 1232 573 1175 513 1232 b 286 1097 346 1232 286 1175 l 205 1097 b 429 1298 205 1215 298 1298 b 653 1097 561 1298 653 1215 m 582 380 l 430 857 l 429 857 l 277 380 m 607 300 l 252 300 l 156 0 l 61 0 l 384 979 l 475 979 l 798 0 l 703 0 "},"Ǎ":{"ha":859,"x_min":0,"x_max":0,"o":"m 387 1097 l 191 1298 l 296 1298 l 425 1161 l 433 1161 l 562 1298 l 667 1298 l 471 1097 m 582 380 l 430 857 l 429 857 l 277 380 m 607 300 l 252 300 l 156 0 l 61 0 l 384 979 l 475 979 l 798 0 l 703 0 "},"Ȧ":{"ha":859,"x_min":0,"x_max":0,"o":"m 429 1126 b 352 1202 388 1126 352 1161 b 429 1279 352 1244 388 1279 b 507 1202 471 1279 507 1244 b 429 1126 507 1161 471 1126 m 582 380 l 430 857 l 429 857 l 277 380 m 607 300 l 252 300 l 156 0 l 61 0 l 384 979 l 475 979 l 798 0 l 703 0 "},"Ạ":{"ha":859,"x_min":0,"x_max":0,"o":"m 429 -145 b 507 -222 471 -145 507 -180 b 429 -298 507 -263 471 -298 b 352 -222 388 -298 352 -263 b 429 -145 352 -180 388 -145 m 582 380 l 430 857 l 429 857 l 277 380 m 703 0 l 607 300 l 252 300 l 156 0 l 61 0 l 384 979 l 475 979 l 798 0 "},"Ả":{"ha":859,"x_min":0,"x_max":0,"o":"m 394 1120 b 462 1192 434 1134 462 1163 b 393 1242 462 1221 435 1242 b 319 1226 364 1242 336 1236 l 319 1293 b 404 1309 339 1302 374 1309 b 538 1198 486 1309 538 1266 b 434 1069 538 1143 496 1091 m 582 380 l 430 857 l 429 857 l 277 380 m 607 300 l 252 300 l 156 0 l 61 0 l 384 979 l 475 979 l 798 0 l 703 0 "},"Ȁ":{"ha":859,"x_min":0,"x_max":0,"o":"m 530 1097 l 309 1298 l 427 1298 l 637 1097 m 283 1097 l 62 1298 l 180 1298 l 390 1097 m 582 380 l 430 857 l 429 857 l 277 380 m 607 300 l 252 300 l 156 0 l 61 0 l 384 979 l 475 979 l 798 0 l 703 0 "},"Ā":{"ha":859,"x_min":0,"x_max":0,"o":"m 646 1162 l 213 1162 l 213 1242 l 646 1242 m 582 380 l 430 857 l 429 857 l 277 380 m 607 300 l 252 300 l 156 0 l 61 0 l 384 979 l 475 979 l 798 0 l 703 0 "},"Ą":{"ha":859,"x_min":0,"x_max":0,"o":"m 582 380 l 430 857 l 429 857 l 277 380 m 791 -3 b 669 -134 708 -37 669 -79 b 752 -207 669 -176 703 -207 b 798 -202 767 -207 785 -205 l 798 -273 b 728 -282 781 -278 753 -282 b 581 -152 640 -282 581 -230 b 699 12 581 -83 616 -34 l 607 300 l 252 300 l 156 0 l 61 0 l 384 979 l 475 979 l 798 0 "},"B":{"ha":859,"x_min":0,"x_max":0,"o":"m 138 0 l 138 979 l 439 979 b 724 737 617 979 724 888 b 558 522 724 628 656 540 l 558 513 b 774 271 690 498 774 404 b 440 0 774 100 651 0 m 231 547 l 399 547 b 630 722 550 547 630 608 b 422 897 630 833 554 897 l 231 897 m 427 82 b 679 275 591 82 679 150 b 422 467 679 401 591 467 l 231 467 l 231 82 "},"Ḇ":{"ha":859,"x_min":0,"x_max":0,"o":"m 138 0 l 138 979 l 439 979 b 724 737 617 979 724 888 b 558 522 724 628 656 540 l 558 513 b 774 271 690 498 774 404 b 440 0 774 100 651 0 m 231 547 l 399 547 b 630 722 550 547 630 608 b 422 897 630 833 554 897 l 231 897 m 427 82 b 679 275 591 82 679 150 b 422 467 679 401 591 467 l 231 467 l 231 82 m 180 -262 l 180 -182 l 613 -182 l 613 -262 "},"Ḅ":{"ha":859,"x_min":0,"x_max":0,"o":"m 138 0 l 138 979 l 439 979 b 724 737 617 979 724 888 b 558 522 724 628 656 540 l 558 513 b 774 271 690 498 774 404 b 440 0 774 100 651 0 m 231 547 l 399 547 b 630 722 550 547 630 608 b 422 897 630 833 554 897 l 231 897 m 427 82 b 679 275 591 82 679 150 b 422 467 679 401 591 467 l 231 467 l 231 82 m 397 -298 b 319 -222 355 -298 319 -263 b 397 -145 319 -180 355 -145 b 474 -222 438 -145 474 -180 b 397 -298 474 -263 438 -298 "},"Ḃ":{"ha":859,"x_min":0,"x_max":0,"o":"m 138 0 l 138 979 l 439 979 b 724 737 617 979 724 888 b 558 522 724 628 656 540 l 558 513 b 774 271 690 498 774 404 b 440 0 774 100 651 0 m 231 547 l 399 547 b 630 722 550 547 630 608 b 422 897 630 833 554 897 l 231 897 m 427 82 b 679 275 591 82 679 150 b 422 467 679 401 591 467 l 231 467 l 231 82 m 397 1126 b 319 1202 355 1126 319 1161 b 397 1279 319 1244 355 1279 b 474 1202 438 1279 474 1244 b 397 1126 474 1161 438 1126 "},"C":{"ha":859,"x_min":0,"x_max":0,"o":"m 452 66 b 687 279 593 66 683 146 l 780 279 b 452 -20 780 104 643 -20 b 96 408 227 -20 96 136 l 96 570 b 452 999 96 842 227 999 b 781 680 650 999 776 878 l 688 680 b 452 913 682 819 587 913 b 189 570 279 913 189 795 l 189 408 b 452 66 189 184 279 66 "},"Ć":{"ha":859,"x_min":0,"x_max":0,"o":"m 452 66 b 687 279 593 66 683 146 l 780 279 b 452 -20 780 104 643 -20 b 96 408 227 -20 96 136 l 96 570 b 452 999 96 842 227 999 b 781 680 650 999 776 878 l 688 680 b 452 913 682 819 587 913 b 189 570 279 913 189 795 l 189 408 b 452 66 189 184 279 66 m 589 1298 l 707 1298 l 486 1097 l 379 1097 "},"Č":{"ha":859,"x_min":0,"x_max":0,"o":"m 494 1097 l 410 1097 l 214 1298 l 319 1298 l 448 1161 l 456 1161 l 585 1298 l 690 1298 m 189 408 b 452 66 189 184 279 66 b 687 279 593 66 683 146 l 780 279 b 452 -20 780 104 643 -20 b 96 408 227 -20 96 136 l 96 570 b 452 999 96 842 227 999 b 781 680 650 999 776 878 l 688 680 b 452 913 682 819 587 913 b 189 570 279 913 189 795 "},"Ĉ":{"ha":859,"x_min":0,"x_max":0,"o":"m 452 66 b 687 279 593 66 683 146 l 780 279 b 452 -20 780 104 643 -20 b 96 408 227 -20 96 136 l 96 570 b 452 999 96 842 227 999 b 781 680 650 999 776 878 l 688 680 b 452 913 682 819 587 913 b 189 570 279 913 189 795 l 189 408 b 452 66 189 184 279 66 m 690 1097 l 585 1097 l 456 1234 l 448 1234 l 319 1097 l 214 1097 l 410 1298 l 494 1298 "},"Ċ":{"ha":859,"x_min":0,"x_max":0,"o":"m 452 66 b 687 279 593 66 683 146 l 780 279 b 452 -20 780 104 643 -20 b 96 408 227 -20 96 136 l 96 570 b 452 999 96 842 227 999 b 781 680 650 999 776 878 l 688 680 b 452 913 682 819 587 913 b 189 570 279 913 189 795 l 189 408 b 452 66 189 184 279 66 m 452 1126 b 374 1202 410 1126 374 1161 b 452 1279 374 1244 410 1279 b 529 1202 493 1279 529 1244 b 452 1126 529 1161 493 1126 "},"Ç":{"ha":859,"x_min":0,"x_max":0,"o":"m 189 408 b 452 66 189 184 279 66 b 687 279 593 66 683 146 l 780 279 b 493 -18 780 117 663 -2 l 463 -98 b 600 -205 551 -96 600 -134 b 444 -328 600 -279 537 -328 b 357 -316 411 -328 390 -326 l 357 -250 b 439 -260 373 -255 414 -260 b 518 -207 490 -260 518 -241 b 416 -159 518 -173 489 -159 l 377 -159 l 377 -111 l 413 -19 b 96 408 212 -1 96 152 l 96 570 b 452 999 96 842 227 999 b 781 680 650 999 776 878 l 688 680 b 452 913 682 819 587 913 b 189 570 279 913 189 795 "},"Ḉ":{"ha":859,"x_min":0,"x_max":0,"o":"m 486 1097 l 379 1097 l 589 1298 l 707 1298 m 189 408 b 452 66 189 184 279 66 b 687 279 593 66 683 146 l 780 279 b 493 -18 780 117 663 -2 l 463 -98 b 600 -205 551 -96 600 -134 b 444 -328 600 -279 537 -328 b 357 -316 411 -328 390 -326 l 357 -250 b 439 -260 373 -255 414 -260 b 518 -207 490 -260 518 -241 b 416 -159 518 -173 489 -159 l 377 -159 l 377 -111 l 413 -19 b 96 408 212 -1 96 152 l 96 570 b 452 999 96 842 227 999 b 781 680 650 999 776 878 l 688 680 b 452 913 682 819 587 913 b 189 570 279 913 189 795 "},"D":{"ha":859,"x_min":0,"x_max":0,"o":"m 378 979 b 795 489 656 979 795 816 b 378 0 795 163 656 0 l 118 0 l 118 979 m 211 84 l 372 84 b 700 489 594 84 700 214 b 372 895 700 764 594 895 l 211 895 "},"Ḋ":{"ha":859,"x_min":0,"x_max":0,"o":"m 378 979 b 795 489 656 979 795 816 b 378 0 795 163 656 0 l 118 0 l 118 979 m 211 84 l 372 84 b 700 489 594 84 700 214 b 372 895 700 764 594 895 l 211 895 m 397 1126 b 319 1202 355 1126 319 1161 b 397 1279 319 1244 355 1279 b 474 1202 438 1279 474 1244 b 397 1126 474 1161 438 1126 "},"Ḓ":{"ha":859,"x_min":0,"x_max":0,"o":"m 378 979 b 795 489 656 979 795 816 b 378 0 795 163 656 0 l 118 0 l 118 979 m 211 84 l 372 84 b 700 489 594 84 700 214 b 372 895 700 764 594 895 l 211 895 m 454 -115 l 641 -342 l 526 -342 l 401 -182 l 392 -182 l 268 -342 l 153 -342 l 340 -115 "},"Ḑ":{"ha":859,"x_min":0,"x_max":0,"o":"m 378 979 b 795 489 656 979 795 816 b 378 0 795 163 656 0 l 118 0 l 118 979 m 211 84 l 372 84 b 700 489 594 84 700 214 b 372 895 700 764 594 895 l 211 895 m 280 -341 l 349 -94 l 444 -94 l 366 -341 "},"Ḏ":{"ha":859,"x_min":0,"x_max":0,"o":"m 378 979 b 795 489 656 979 795 816 b 378 0 795 163 656 0 l 118 0 l 118 979 m 211 84 l 372 84 b 700 489 594 84 700 214 b 372 895 700 764 594 895 l 211 895 m 180 -262 l 180 -182 l 613 -182 l 613 -262 "},"Ď":{"ha":859,"x_min":0,"x_max":0,"o":"m 439 1097 l 355 1097 l 159 1298 l 264 1298 l 393 1161 l 401 1161 l 530 1298 l 635 1298 m 211 84 l 372 84 b 700 489 594 84 700 214 b 372 895 700 764 594 895 l 211 895 m 378 979 b 795 489 656 979 795 816 b 378 0 795 163 656 0 l 118 0 l 118 979 "},"Ḍ":{"ha":859,"x_min":0,"x_max":0,"o":"m 378 979 b 795 489 656 979 795 816 b 378 0 795 163 656 0 l 118 0 l 118 979 m 211 84 l 372 84 b 700 489 594 84 700 214 b 372 895 700 764 594 895 l 211 895 m 397 -298 b 319 -222 355 -298 319 -263 b 397 -145 319 -180 355 -145 b 474 -222 438 -145 474 -180 b 397 -298 474 -263 438 -298 "},"Đ":{"ha":859,"x_min":0,"x_max":0,"o":"m 372 84 b 700 489 594 84 700 214 b 372 895 700 764 594 895 l 211 895 l 211 546 l 403 546 l 403 462 l 211 462 l 211 84 m 378 979 b 795 489 656 979 795 816 b 378 0 795 163 656 0 l 118 0 l 118 462 l 15 462 l 15 546 l 118 546 l 118 979 "},"E":{"ha":859,"x_min":0,"x_max":0,"o":"m 727 0 l 164 0 l 164 979 l 727 979 l 727 895 l 257 895 l 257 543 l 702 543 l 702 460 l 257 460 l 257 84 l 727 84 "},"È":{"ha":859,"x_min":0,"x_max":0,"o":"m 516 1097 l 409 1097 l 188 1298 l 306 1298 m 727 0 l 164 0 l 164 979 l 727 979 l 727 895 l 257 895 l 257 543 l 702 543 l 702 460 l 257 460 l 257 84 l 727 84 "},"Ȅ":{"ha":859,"x_min":0,"x_max":0,"o":"m 653 1097 l 546 1097 l 325 1298 l 443 1298 m 406 1097 l 299 1097 l 78 1298 l 196 1298 m 727 0 l 164 0 l 164 979 l 727 979 l 727 895 l 257 895 l 257 543 l 702 543 l 702 460 l 257 460 l 257 84 l 727 84 "},"É":{"ha":859,"x_min":0,"x_max":0,"o":"m 727 0 l 164 0 l 164 979 l 727 979 l 727 895 l 257 895 l 257 543 l 702 543 l 702 460 l 257 460 l 257 84 l 727 84 m 583 1298 l 701 1298 l 480 1097 l 373 1097 "},"Ê":{"ha":859,"x_min":0,"x_max":0,"o":"m 727 0 l 164 0 l 164 979 l 727 979 l 727 895 l 257 895 l 257 543 l 702 543 l 702 460 l 257 460 l 257 84 l 727 84 m 684 1097 l 578 1097 l 450 1234 l 441 1234 l 313 1097 l 208 1097 l 404 1298 l 488 1298 "},"Ể":{"ha":859,"x_min":0,"x_max":0,"o":"m 727 0 l 164 0 l 164 979 l 727 979 l 727 895 l 257 895 l 257 543 l 702 543 l 702 460 l 257 460 l 257 84 l 727 84 m 524 1395 b 607 1408 539 1402 574 1408 b 721 1309 675 1408 721 1368 b 642 1200 721 1261 689 1217 l 591 1240 b 646 1305 625 1253 646 1278 b 587 1352 646 1333 622 1352 b 524 1339 565 1352 537 1347 m 688 1069 l 572 1069 l 450 1168 l 441 1168 l 319 1069 l 203 1069 l 396 1221 l 495 1221 "},"Ề":{"ha":859,"x_min":0,"x_max":0,"o":"m 727 0 l 164 0 l 164 979 l 727 979 l 727 895 l 257 895 l 257 543 l 702 543 l 702 460 l 257 460 l 257 84 l 727 84 m 621 1240 l 456 1388 l 570 1388 l 722 1240 m 688 1069 l 572 1069 l 450 1168 l 441 1168 l 319 1069 l 203 1069 l 396 1221 l 495 1221 "},"Ễ":{"ha":859,"x_min":0,"x_max":0,"o":"m 727 0 l 164 0 l 164 979 l 727 979 l 727 895 l 257 895 l 257 543 l 702 543 l 702 460 l 257 460 l 257 84 l 727 84 m 688 1069 l 572 1069 l 450 1168 l 441 1168 l 319 1069 l 203 1069 l 396 1221 l 495 1221 m 538 1254 b 352 1347 424 1254 425 1347 b 288 1264 312 1347 290 1318 l 216 1264 b 353 1415 216 1354 271 1415 b 539 1322 467 1415 467 1322 b 604 1405 578 1322 602 1352 l 675 1405 b 538 1254 675 1316 619 1254 "},"Ệ":{"ha":859,"x_min":0,"x_max":0,"o":"m 727 0 l 164 0 l 164 979 l 727 979 l 727 895 l 257 895 l 257 543 l 702 543 l 702 460 l 257 460 l 257 84 l 727 84 m 684 1097 l 578 1097 l 450 1234 l 441 1234 l 313 1097 l 208 1097 l 404 1298 l 488 1298 m 446 -285 b 368 -208 404 -285 368 -250 b 446 -132 368 -167 404 -132 b 523 -208 487 -132 523 -167 b 446 -285 523 -250 487 -285 "},"Ế":{"ha":859,"x_min":0,"x_max":0,"o":"m 727 0 l 164 0 l 164 979 l 727 979 l 727 895 l 257 895 l 257 543 l 702 543 l 702 460 l 257 460 l 257 84 l 727 84 m 726 1388 l 840 1388 l 675 1240 l 574 1240 m 688 1069 l 572 1069 l 450 1168 l 441 1168 l 319 1069 l 203 1069 l 396 1221 l 495 1221 "},"Ë":{"ha":859,"x_min":0,"x_max":0,"o":"m 727 0 l 164 0 l 164 979 l 727 979 l 727 895 l 257 895 l 257 543 l 702 543 l 702 460 l 257 460 l 257 84 l 727 84 m 316 1130 b 244 1202 278 1130 244 1164 b 316 1275 244 1241 278 1275 b 388 1202 354 1275 388 1241 b 316 1130 388 1164 354 1130 m 575 1130 b 503 1202 537 1130 503 1164 b 575 1275 503 1241 537 1275 b 647 1202 613 1275 647 1241 b 575 1130 647 1164 613 1130 "},"Ẹ":{"ha":859,"x_min":0,"x_max":0,"o":"m 727 0 l 164 0 l 164 979 l 727 979 l 727 895 l 257 895 l 257 543 l 702 543 l 702 460 l 257 460 l 257 84 l 727 84 m 446 -285 b 368 -208 404 -285 368 -250 b 446 -132 368 -167 404 -132 b 523 -208 487 -132 523 -167 b 446 -285 523 -250 487 -285 "},"Ȇ":{"ha":859,"x_min":0,"x_max":0,"o":"m 222 1097 b 446 1298 222 1215 314 1298 b 669 1097 577 1298 669 1215 l 589 1097 b 446 1232 589 1175 529 1232 b 302 1097 362 1232 302 1175 m 727 0 l 164 0 l 164 979 l 727 979 l 727 895 l 257 895 l 257 543 l 702 543 l 702 460 l 257 460 l 257 84 l 727 84 "},"Ẻ":{"ha":859,"x_min":0,"x_max":0,"o":"m 727 0 l 164 0 l 164 979 l 727 979 l 727 895 l 257 895 l 257 543 l 702 543 l 702 460 l 257 460 l 257 84 l 727 84 m 335 1293 b 420 1309 355 1302 391 1309 b 555 1198 503 1309 555 1266 b 450 1069 555 1143 513 1091 l 410 1120 b 478 1192 450 1134 478 1163 b 410 1242 478 1221 451 1242 b 335 1226 380 1242 352 1236 "},"Ě":{"ha":859,"x_min":0,"x_max":0,"o":"m 488 1097 l 404 1097 l 208 1298 l 313 1298 l 441 1161 l 450 1161 l 578 1298 l 684 1298 m 727 0 l 164 0 l 164 979 l 727 979 l 727 895 l 257 895 l 257 543 l 702 543 l 702 460 l 257 460 l 257 84 l 727 84 "},"Ē":{"ha":859,"x_min":0,"x_max":0,"o":"m 727 0 l 164 0 l 164 979 l 727 979 l 727 895 l 257 895 l 257 543 l 702 543 l 702 460 l 257 460 l 257 84 l 727 84 m 229 1162 l 229 1242 l 662 1242 l 662 1162 "},"Ḕ":{"ha":859,"x_min":0,"x_max":0,"o":"m 727 0 l 164 0 l 164 979 l 727 979 l 727 895 l 257 895 l 257 543 l 702 543 l 702 460 l 257 460 l 257 84 l 727 84 m 229 1097 l 229 1163 l 661 1163 l 661 1097 m 429 1240 l 264 1388 l 378 1388 l 530 1240 "},"Ḗ":{"ha":859,"x_min":0,"x_max":0,"o":"m 359 1240 l 511 1387 l 625 1387 l 460 1240 m 229 1096 l 229 1162 l 661 1162 l 661 1096 m 727 0 l 164 0 l 164 979 l 727 979 l 727 895 l 257 895 l 257 543 l 702 543 l 702 460 l 257 460 l 257 84 l 727 84 "},"Ẽ":{"ha":859,"x_min":0,"x_max":0,"o":"m 727 0 l 164 0 l 164 979 l 727 979 l 727 895 l 257 895 l 257 543 l 702 543 l 702 460 l 257 460 l 257 84 l 727 84 m 544 1107 b 349 1219 439 1107 422 1219 b 281 1114 307 1219 283 1183 l 209 1114 b 347 1288 209 1221 262 1288 b 542 1175 458 1288 479 1175 b 611 1280 583 1175 608 1213 l 682 1280 b 544 1107 682 1175 627 1107 "},"Ḙ":{"ha":859,"x_min":0,"x_max":0,"o":"m 727 0 l 164 0 l 164 979 l 727 979 l 727 895 l 257 895 l 257 543 l 702 543 l 702 460 l 257 460 l 257 84 l 727 84 m 503 -115 l 690 -342 l 574 -342 l 450 -182 l 441 -182 l 317 -342 l 201 -342 l 389 -115 "},"Ĕ":{"ha":859,"x_min":0,"x_max":0,"o":"m 727 0 l 164 0 l 164 979 l 727 979 l 727 895 l 257 895 l 257 543 l 702 543 l 702 460 l 257 460 l 257 84 l 727 84 m 302 1298 b 446 1163 302 1220 362 1163 b 589 1298 529 1163 589 1220 l 669 1298 b 446 1097 669 1179 577 1097 b 222 1298 314 1097 222 1179 "},"Ḛ":{"ha":859,"x_min":0,"x_max":0,"o":"m 727 0 l 164 0 l 164 979 l 727 979 l 727 895 l 257 895 l 257 543 l 702 543 l 702 460 l 257 460 l 257 84 l 727 84 m 347 -191 b 286 -303 303 -191 286 -222 l 203 -303 b 349 -114 203 -183 256 -114 b 545 -224 457 -114 485 -224 b 605 -113 588 -224 605 -193 l 688 -113 b 542 -302 688 -233 634 -302 b 347 -191 434 -302 406 -191 "},"Ė":{"ha":859,"x_min":0,"x_max":0,"o":"m 727 0 l 164 0 l 164 979 l 727 979 l 727 895 l 257 895 l 257 543 l 702 543 l 702 460 l 257 460 l 257 84 l 727 84 m 446 1126 b 368 1202 404 1126 368 1161 b 446 1279 368 1244 404 1279 b 523 1202 487 1279 523 1244 b 446 1126 523 1161 487 1126 "},"Ȩ":{"ha":859,"x_min":0,"x_max":0,"o":"m 257 895 l 257 543 l 702 543 l 702 460 l 257 460 l 257 84 l 727 84 l 727 0 l 494 0 l 456 -98 b 594 -205 545 -96 594 -134 b 438 -328 594 -279 531 -328 b 351 -316 405 -328 384 -326 l 351 -250 b 433 -260 367 -255 408 -260 b 512 -207 484 -260 512 -241 b 410 -159 512 -173 483 -159 l 371 -159 l 371 -111 l 414 0 l 164 0 l 164 979 l 727 979 l 727 895 "},"Ḝ":{"ha":859,"x_min":0,"x_max":0,"o":"m 669 1298 b 446 1097 669 1179 577 1097 b 222 1298 314 1097 222 1179 l 302 1298 b 446 1163 302 1220 362 1163 b 589 1298 529 1163 589 1220 m 257 895 l 257 543 l 702 543 l 702 460 l 257 460 l 257 84 l 727 84 l 727 0 l 494 0 l 456 -98 b 594 -205 545 -96 594 -134 b 438 -328 594 -279 531 -328 b 351 -316 405 -328 384 -326 l 351 -250 b 433 -260 367 -255 408 -260 b 512 -207 484 -260 512 -241 b 410 -159 512 -173 483 -159 l 371 -159 l 371 -111 l 414 0 l 164 0 l 164 979 l 727 979 l 727 895 "},"Ę":{"ha":859,"x_min":0,"x_max":0,"o":"m 164 0 l 164 979 l 727 979 l 727 895 l 257 895 l 257 543 l 702 543 l 702 460 l 257 460 l 257 84 l 727 84 l 727 6 l 718 2 b 604 -131 638 -32 604 -77 b 688 -207 604 -174 640 -207 b 734 -202 705 -207 722 -205 l 734 -273 b 670 -282 716 -279 694 -282 b 517 -152 581 -282 517 -228 b 616 -8 517 -94 549 -47 l 616 0 "},"F":{"ha":859,"x_min":0,"x_max":0,"o":"m 182 0 l 182 979 l 744 979 l 744 895 l 275 895 l 275 527 l 705 527 l 705 444 l 275 444 l 275 0 "},"Ḟ":{"ha":859,"x_min":0,"x_max":0,"o":"m 182 0 l 182 979 l 744 979 l 744 895 l 275 895 l 275 527 l 705 527 l 705 444 l 275 444 l 275 0 m 429 1126 b 352 1202 388 1126 352 1161 b 429 1279 352 1244 388 1279 b 507 1202 471 1279 507 1244 b 429 1126 507 1161 471 1126 "},"G":{"ha":859,"x_min":0,"x_max":0,"o":"m 681 405 l 439 405 l 439 488 l 774 488 l 774 277 b 446 -20 774 103 637 -20 b 91 408 221 -20 91 136 l 91 570 b 446 999 91 842 221 999 b 774 680 645 999 770 878 l 682 680 b 446 913 676 819 581 913 b 184 570 274 913 184 795 l 184 408 b 446 66 184 184 274 66 b 681 290 591 66 681 152 "},"Ǵ":{"ha":859,"x_min":0,"x_max":0,"o":"m 681 405 l 439 405 l 439 488 l 774 488 l 774 277 b 446 -20 774 103 637 -20 b 91 408 221 -20 91 136 l 91 570 b 446 999 91 842 221 999 b 774 680 645 999 770 878 l 682 680 b 446 913 676 819 581 913 b 184 570 274 913 184 795 l 184 408 b 446 66 184 184 274 66 b 681 290 591 66 681 152 m 584 1298 l 702 1298 l 481 1097 l 374 1097 "},"Ǧ":{"ha":859,"x_min":0,"x_max":0,"o":"m 481 1097 l 397 1097 l 201 1298 l 307 1298 l 435 1161 l 444 1161 l 572 1298 l 677 1298 m 681 405 l 439 405 l 439 488 l 774 488 l 774 277 b 446 -20 774 103 637 -20 b 91 408 221 -20 91 136 l 91 570 b 446 999 91 842 221 999 b 774 680 645 999 770 878 l 682 680 b 446 913 676 819 581 913 b 184 570 274 913 184 795 l 184 408 b 446 66 184 184 274 66 b 681 290 591 66 681 152 "},"Ĝ":{"ha":859,"x_min":0,"x_max":0,"o":"m 681 405 l 439 405 l 439 488 l 774 488 l 774 277 b 446 -20 774 103 637 -20 b 91 408 221 -20 91 136 l 91 570 b 446 999 91 842 221 999 b 774 680 645 999 770 878 l 682 680 b 446 913 676 819 581 913 b 184 570 274 913 184 795 l 184 408 b 446 66 184 184 274 66 b 681 290 591 66 681 152 m 677 1097 l 572 1097 l 444 1234 l 435 1234 l 307 1097 l 201 1097 l 397 1298 l 481 1298 "},"Ğ":{"ha":859,"x_min":0,"x_max":0,"o":"m 681 405 l 439 405 l 439 488 l 774 488 l 774 277 b 446 -20 774 103 637 -20 b 91 408 221 -20 91 136 l 91 570 b 446 999 91 842 221 999 b 774 680 645 999 770 878 l 682 680 b 446 913 676 819 581 913 b 184 570 274 913 184 795 l 184 408 b 446 66 184 184 274 66 b 681 290 591 66 681 152 m 296 1298 b 439 1163 296 1220 356 1163 b 583 1298 523 1163 583 1220 l 663 1298 b 439 1097 663 1179 571 1097 b 216 1298 308 1097 216 1179 "},"Ḡ":{"ha":859,"x_min":0,"x_max":0,"o":"m 681 405 l 439 405 l 439 488 l 774 488 l 774 277 b 446 -20 774 103 637 -20 b 91 408 221 -20 91 136 l 91 570 b 446 999 91 842 221 999 b 774 680 645 999 770 878 l 682 680 b 446 913 676 819 581 913 b 184 570 274 913 184 795 l 184 408 b 446 66 184 184 274 66 b 681 290 591 66 681 152 m 223 1162 l 223 1242 l 656 1242 l 656 1162 "},"Ġ":{"ha":859,"x_min":0,"x_max":0,"o":"m 681 405 l 439 405 l 439 488 l 774 488 l 774 277 b 446 -20 774 103 637 -20 b 91 408 221 -20 91 136 l 91 570 b 446 999 91 842 221 999 b 774 680 645 999 770 878 l 682 680 b 446 913 676 819 581 913 b 184 570 274 913 184 795 l 184 408 b 446 66 184 184 274 66 b 681 290 591 66 681 152 m 439 1126 b 362 1202 398 1126 362 1161 b 439 1279 362 1244 398 1279 b 517 1202 481 1279 517 1244 b 439 1126 517 1161 481 1126 "},"Ģ":{"ha":859,"x_min":0,"x_max":0,"o":"m 681 405 l 439 405 l 439 488 l 774 488 l 774 277 b 446 -20 774 103 637 -20 b 91 408 221 -20 91 136 l 91 570 b 446 999 91 842 221 999 b 774 680 645 999 770 878 l 682 680 b 446 913 676 819 581 913 b 184 570 274 913 184 795 l 184 408 b 446 66 184 184 274 66 b 681 290 591 66 681 152 m 330 -341 l 399 -94 l 494 -94 l 415 -341 "},"H":{"ha":859,"x_min":0,"x_max":0,"o":"m 653 0 l 653 459 l 205 459 l 205 0 l 113 0 l 113 979 l 205 979 l 205 543 l 653 543 l 653 979 l 746 979 l 746 0 "},"Ḧ":{"ha":859,"x_min":0,"x_max":0,"o":"m 653 0 l 653 459 l 205 459 l 205 0 l 113 0 l 113 979 l 205 979 l 205 543 l 653 543 l 653 979 l 746 979 l 746 0 m 300 1130 b 228 1202 262 1130 228 1164 b 300 1275 228 1241 262 1275 b 372 1202 338 1275 372 1241 b 300 1130 372 1164 338 1130 m 559 1130 b 487 1202 521 1130 487 1164 b 559 1275 487 1241 521 1275 b 631 1202 597 1275 631 1241 b 559 1130 631 1164 597 1130 "},"Ȟ":{"ha":859,"x_min":0,"x_max":0,"o":"m 471 1097 l 387 1097 l 191 1298 l 296 1298 l 425 1161 l 433 1161 l 562 1298 l 667 1298 m 653 0 l 653 459 l 205 459 l 205 0 l 113 0 l 113 979 l 205 979 l 205 543 l 653 543 l 653 979 l 746 979 l 746 0 "},"Ĥ":{"ha":859,"x_min":0,"x_max":0,"o":"m 653 0 l 653 459 l 205 459 l 205 0 l 113 0 l 113 979 l 205 979 l 205 543 l 653 543 l 653 979 l 746 979 l 746 0 m 667 1097 l 562 1097 l 433 1234 l 425 1234 l 296 1097 l 191 1097 l 387 1298 l 471 1298 "},"Ḥ":{"ha":859,"x_min":0,"x_max":0,"o":"m 653 0 l 653 459 l 205 459 l 205 0 l 113 0 l 113 979 l 205 979 l 205 543 l 653 543 l 653 979 l 746 979 l 746 0 m 429 -298 b 352 -222 388 -298 352 -263 b 429 -145 352 -180 388 -145 b 507 -222 471 -145 507 -180 b 429 -298 507 -263 471 -298 "},"Ḣ":{"ha":859,"x_min":0,"x_max":0,"o":"m 653 0 l 653 459 l 205 459 l 205 0 l 113 0 l 113 979 l 205 979 l 205 543 l 653 543 l 653 979 l 746 979 l 746 0 m 429 1126 b 352 1202 388 1126 352 1161 b 429 1279 352 1244 388 1279 b 507 1202 471 1279 507 1244 b 429 1126 507 1161 471 1126 "},"Ḫ":{"ha":859,"x_min":0,"x_max":0,"o":"m 653 0 l 653 459 l 205 459 l 205 0 l 113 0 l 113 979 l 205 979 l 205 543 l 653 543 l 653 979 l 746 979 l 746 0 m 429 -246 b 572 -104 523 -246 573 -184 l 662 -104 b 429 -320 662 -228 575 -320 b 197 -104 283 -320 197 -228 l 287 -104 b 429 -246 286 -184 336 -246 "},"Ḩ":{"ha":859,"x_min":0,"x_max":0,"o":"m 746 979 l 746 0 l 653 0 l 653 459 l 205 459 l 205 0 l 168 -98 b 306 -205 257 -96 306 -134 b 150 -328 306 -279 243 -328 b 62 -316 117 -328 96 -326 l 62 -250 b 144 -260 79 -255 120 -260 b 224 -207 195 -260 224 -241 b 121 -159 224 -173 195 -159 l 83 -159 l 83 -111 l 126 0 l 113 0 l 113 979 l 205 979 l 205 543 l 653 543 l 653 979 "},"Ħ":{"ha":859,"x_min":0,"x_max":0,"o":"m 653 543 l 653 743 l 205 743 l 205 543 m 205 0 l 113 0 l 113 743 l 28 743 l 28 818 l 113 818 l 113 979 l 205 979 l 205 818 l 653 818 l 653 979 l 746 979 l 746 818 l 831 818 l 831 743 l 746 743 l 746 0 l 653 0 l 653 459 l 205 459 "},"I":{"ha":859,"x_min":0,"x_max":0,"o":"m 186 0 l 186 80 l 383 80 l 383 899 l 186 899 l 186 979 l 672 979 l 672 899 l 475 899 l 475 80 l 672 80 l 672 0 "},"İ":{"ha":859,"x_min":0,"x_max":0,"o":"m 186 0 l 186 80 l 383 80 l 383 899 l 186 899 l 186 979 l 672 979 l 672 899 l 475 899 l 475 80 l 672 80 l 672 0 m 429 1126 b 352 1202 388 1126 352 1161 b 429 1279 352 1244 388 1279 b 507 1202 471 1279 507 1244 b 429 1126 507 1161 471 1126 "},"Ì":{"ha":859,"x_min":0,"x_max":0,"o":"m 500 1097 l 393 1097 l 172 1298 l 290 1298 m 186 0 l 186 80 l 383 80 l 383 899 l 186 899 l 186 979 l 672 979 l 672 899 l 475 899 l 475 80 l 672 80 l 672 0 "},"Ȉ":{"ha":859,"x_min":0,"x_max":0,"o":"m 637 1097 l 530 1097 l 309 1298 l 427 1298 m 390 1097 l 283 1097 l 62 1298 l 180 1298 m 186 0 l 186 80 l 383 80 l 383 899 l 186 899 l 186 979 l 672 979 l 672 899 l 475 899 l 475 80 l 672 80 l 672 0 "},"Í":{"ha":859,"x_min":0,"x_max":0,"o":"m 186 0 l 186 80 l 383 80 l 383 899 l 186 899 l 186 979 l 672 979 l 672 899 l 475 899 l 475 80 l 672 80 l 672 0 m 567 1298 l 685 1298 l 464 1097 l 357 1097 "},"Î":{"ha":859,"x_min":0,"x_max":0,"o":"m 186 0 l 186 80 l 383 80 l 383 899 l 186 899 l 186 979 l 672 979 l 672 899 l 475 899 l 475 80 l 672 80 l 672 0 m 667 1097 l 562 1097 l 433 1234 l 425 1234 l 296 1097 l 191 1097 l 387 1298 l 471 1298 "},"Ǐ":{"ha":859,"x_min":0,"x_max":0,"o":"m 471 1097 l 387 1097 l 191 1298 l 296 1298 l 425 1161 l 433 1161 l 562 1298 l 667 1298 m 186 0 l 186 80 l 383 80 l 383 899 l 186 899 l 186 979 l 672 979 l 672 899 l 475 899 l 475 80 l 672 80 l 672 0 "},"Ï":{"ha":859,"x_min":0,"x_max":0,"o":"m 186 0 l 186 80 l 383 80 l 383 899 l 186 899 l 186 979 l 672 979 l 672 899 l 475 899 l 475 80 l 672 80 l 672 0 m 300 1130 b 228 1202 262 1130 228 1164 b 300 1275 228 1241 262 1275 b 372 1202 338 1275 372 1241 b 300 1130 372 1164 338 1130 m 559 1130 b 487 1202 521 1130 487 1164 b 559 1275 487 1241 521 1275 b 631 1202 597 1275 631 1241 b 559 1130 631 1164 597 1130 "},"Ḯ":{"ha":859,"x_min":0,"x_max":0,"o":"m 186 0 l 186 80 l 383 80 l 383 899 l 186 899 l 186 979 l 672 979 l 672 899 l 475 899 l 475 80 l 672 80 l 672 0 m 498 1388 l 612 1388 l 447 1240 l 346 1240 m 307 1063 b 243 1126 271 1063 243 1091 b 307 1190 243 1162 271 1190 b 370 1126 342 1190 370 1162 b 307 1063 370 1091 342 1063 m 553 1063 b 490 1126 518 1063 490 1091 b 553 1190 490 1162 518 1190 b 616 1126 589 1190 616 1162 b 553 1063 616 1091 589 1063 "},"Ĭ":{"ha":859,"x_min":0,"x_max":0,"o":"m 186 0 l 186 80 l 383 80 l 383 899 l 186 899 l 186 979 l 672 979 l 672 899 l 475 899 l 475 80 l 672 80 l 672 0 m 286 1298 b 429 1163 286 1220 346 1163 b 573 1298 513 1163 573 1220 l 653 1298 b 429 1097 653 1179 561 1097 b 205 1298 298 1097 205 1179 "},"Ị":{"ha":859,"x_min":0,"x_max":0,"o":"m 186 0 l 186 80 l 383 80 l 383 899 l 186 899 l 186 979 l 672 979 l 672 899 l 475 899 l 475 80 l 672 80 l 672 0 m 429 -298 b 351 -222 387 -298 351 -263 b 429 -145 351 -180 387 -145 b 506 -222 470 -145 506 -180 b 429 -298 506 -263 470 -298 "},"Ȋ":{"ha":859,"x_min":0,"x_max":0,"o":"m 205 1097 b 429 1298 205 1215 298 1298 b 653 1097 561 1298 653 1215 l 573 1097 b 429 1232 573 1175 513 1232 b 286 1097 346 1232 286 1175 m 186 0 l 186 80 l 383 80 l 383 899 l 186 899 l 186 979 l 672 979 l 672 899 l 475 899 l 475 80 l 672 80 l 672 0 "},"Ī":{"ha":859,"x_min":0,"x_max":0,"o":"m 186 0 l 186 80 l 383 80 l 383 899 l 186 899 l 186 979 l 672 979 l 672 899 l 475 899 l 475 80 l 672 80 l 672 0 m 213 1162 l 213 1242 l 646 1242 l 646 1162 "},"Ḭ":{"ha":859,"x_min":0,"x_max":0,"o":"m 186 0 l 186 80 l 383 80 l 383 899 l 186 899 l 186 979 l 672 979 l 672 899 l 475 899 l 475 80 l 672 80 l 672 0 m 330 -205 b 269 -317 286 -205 269 -236 l 186 -317 b 332 -127 186 -197 239 -127 b 528 -237 440 -127 468 -237 b 588 -126 571 -237 588 -206 l 671 -126 b 525 -316 671 -246 617 -316 b 330 -205 417 -316 389 -205 "},"Ỉ":{"ha":859,"x_min":0,"x_max":0,"o":"m 186 0 l 186 80 l 383 80 l 383 899 l 186 899 l 186 979 l 672 979 l 672 899 l 475 899 l 475 80 l 672 80 l 672 0 m 319 1293 b 404 1309 339 1302 374 1309 b 538 1198 486 1309 538 1266 b 434 1069 538 1143 496 1091 l 394 1120 b 462 1192 434 1134 462 1163 b 393 1242 462 1221 435 1242 b 319 1226 364 1242 336 1236 "},"Ĩ":{"ha":859,"x_min":0,"x_max":0,"o":"m 186 0 l 186 80 l 383 80 l 383 899 l 186 899 l 186 979 l 672 979 l 672 899 l 475 899 l 475 80 l 672 80 l 672 0 m 528 1107 b 333 1219 422 1107 406 1219 b 264 1114 290 1219 267 1183 l 193 1114 b 331 1288 193 1221 246 1288 b 526 1175 441 1288 463 1175 b 595 1280 567 1175 592 1213 l 666 1280 b 528 1107 666 1175 611 1107 "},"Į":{"ha":859,"x_min":0,"x_max":0,"o":"m 475 899 l 475 80 l 672 80 l 672 0 l 669 -2 b 558 -140 593 -46 558 -90 b 633 -207 558 -180 588 -207 b 672 -202 644 -207 663 -205 l 672 -273 b 608 -282 654 -279 632 -282 b 471 -159 525 -282 471 -233 b 572 0 471 -96 507 -39 l 186 0 l 186 80 l 383 80 l 383 899 l 186 899 l 186 979 l 672 979 l 672 899 "},"J":{"ha":859,"x_min":0,"x_max":0,"o":"m 400 -20 b 128 224 241 -20 130 80 l 220 224 b 399 66 224 130 298 66 b 585 270 518 66 585 140 l 585 899 l 254 899 l 254 979 l 678 979 l 678 267 b 400 -20 678 88 572 -20 "},"Ĵ":{"ha":859,"x_min":0,"x_max":0,"o":"m 400 -20 b 128 224 241 -20 130 80 l 220 224 b 399 66 224 130 298 66 b 585 270 518 66 585 140 l 585 899 l 254 899 l 254 979 l 678 979 l 678 267 b 400 -20 678 88 572 -20 m 705 1097 l 600 1097 l 471 1234 l 463 1234 l 334 1097 l 229 1097 l 425 1298 l 509 1298 "},"K":{"ha":859,"x_min":0,"x_max":0,"o":"m 161 0 l 161 979 l 254 979 l 254 473 l 262 473 l 678 979 l 794 979 l 423 546 l 834 0 l 714 0 l 361 475 l 254 349 l 254 0 "},"Ḱ":{"ha":859,"x_min":0,"x_max":0,"o":"m 161 0 l 161 979 l 254 979 l 254 473 l 262 473 l 678 979 l 794 979 l 423 546 l 834 0 l 714 0 l 361 475 l 254 349 l 254 0 m 584 1298 l 702 1298 l 481 1097 l 374 1097 "},"Ǩ":{"ha":859,"x_min":0,"x_max":0,"o":"m 488 1097 l 404 1097 l 208 1298 l 313 1298 l 442 1161 l 450 1161 l 579 1298 l 684 1298 m 161 0 l 161 979 l 254 979 l 254 473 l 262 473 l 678 979 l 794 979 l 423 546 l 834 0 l 714 0 l 361 475 l 254 349 l 254 0 "},"Ḳ":{"ha":859,"x_min":0,"x_max":0,"o":"m 161 0 l 161 979 l 254 979 l 254 473 l 262 473 l 678 979 l 794 979 l 423 546 l 834 0 l 714 0 l 361 475 l 254 349 l 254 0 m 464 -298 b 387 -222 422 -298 387 -263 b 464 -145 387 -180 422 -145 b 541 -222 505 -145 541 -180 b 464 -298 541 -263 505 -298 "},"Ḵ":{"ha":859,"x_min":0,"x_max":0,"o":"m 161 0 l 161 979 l 254 979 l 254 473 l 262 473 l 678 979 l 794 979 l 423 546 l 834 0 l 714 0 l 361 475 l 254 349 l 254 0 m 248 -262 l 248 -182 l 680 -182 l 680 -262 "},"Ķ":{"ha":859,"x_min":0,"x_max":0,"o":"m 161 0 l 161 979 l 254 979 l 254 473 l 262 473 l 678 979 l 794 979 l 423 546 l 834 0 l 714 0 l 361 475 l 254 349 l 254 0 m 347 -341 l 416 -94 l 511 -94 l 433 -341 "},"L":{"ha":859,"x_min":0,"x_max":0,"o":"m 755 0 l 186 0 l 186 979 l 279 979 l 279 84 l 755 84 "},"Ĺ":{"ha":859,"x_min":0,"x_max":0,"o":"m 755 0 l 186 0 l 186 979 l 279 979 l 279 84 l 755 84 m 371 1298 l 489 1298 l 268 1097 l 161 1097 "},"Ḽ":{"ha":859,"x_min":0,"x_max":0,"o":"m 755 0 l 186 0 l 186 979 l 279 979 l 279 84 l 755 84 m 528 -115 l 715 -342 l 600 -342 l 476 -182 l 467 -182 l 342 -342 l 227 -342 l 414 -115 "},"Ḷ":{"ha":859,"x_min":0,"x_max":0,"o":"m 755 0 l 186 0 l 186 979 l 279 979 l 279 84 l 755 84 m 471 -298 b 394 -222 430 -298 394 -263 b 471 -145 394 -180 430 -145 b 549 -222 513 -145 549 -180 b 471 -298 549 -263 513 -298 "},"Ḹ":{"ha":859,"x_min":0,"x_max":0,"o":"m 755 0 l 186 0 l 186 979 l 279 979 l 279 84 l 755 84 m 471 -298 b 394 -222 430 -298 394 -263 b 471 -145 394 -180 430 -145 b 549 -222 513 -145 549 -180 b 471 -298 549 -263 513 -298 m 17 1162 l 17 1242 l 450 1242 l 450 1162 "},"Ḻ":{"ha":859,"x_min":0,"x_max":0,"o":"m 755 0 l 186 0 l 186 979 l 279 979 l 279 84 l 755 84 m 255 -262 l 255 -182 l 688 -182 l 688 -262 "},"Ļ":{"ha":859,"x_min":0,"x_max":0,"o":"m 755 0 l 186 0 l 186 979 l 279 979 l 279 84 l 755 84 m 355 -341 l 424 -94 l 519 -94 l 440 -341 "},"Ľ":{"ha":859,"x_min":0,"x_max":0,"o":"m 617 979 l 593 658 l 529 658 l 529 979 m 755 0 l 186 0 l 186 979 l 279 979 l 279 84 l 755 84 "},"Ŀ":{"ha":859,"x_min":0,"x_max":0,"o":"m 755 0 l 186 0 l 186 979 l 279 979 l 279 84 l 755 84 m 659 599 b 581 675 617 599 581 634 b 659 752 581 717 617 752 b 736 675 700 752 736 717 b 659 599 736 634 700 599 "},"Ł":{"ha":859,"x_min":0,"x_max":0,"o":"m 755 84 l 755 0 l 186 0 l 186 408 l 58 335 l 58 415 l 186 490 l 186 979 l 279 979 l 279 544 l 614 741 l 614 654 l 279 461 l 279 84 "},"M":{"ha":859,"x_min":0,"x_max":0,"o":"m 71 0 l 71 979 l 177 979 l 426 352 l 433 352 l 681 979 l 788 979 l 788 0 l 701 0 l 701 798 l 694 798 l 469 230 l 389 230 l 164 798 l 157 798 l 157 0 "},"Ḿ":{"ha":859,"x_min":0,"x_max":0,"o":"m 567 1298 l 685 1298 l 464 1097 l 357 1097 m 71 0 l 71 979 l 177 979 l 426 352 l 433 352 l 681 979 l 788 979 l 788 0 l 701 0 l 701 798 l 694 798 l 469 230 l 389 230 l 164 798 l 157 798 l 157 0 "},"Ṁ":{"ha":859,"x_min":0,"x_max":0,"o":"m 429 1126 b 352 1202 388 1126 352 1161 b 429 1279 352 1244 388 1279 b 507 1202 471 1279 507 1244 b 429 1126 507 1161 471 1126 m 71 0 l 71 979 l 177 979 l 426 352 l 433 352 l 681 979 l 788 979 l 788 0 l 701 0 l 701 798 l 694 798 l 469 230 l 389 230 l 164 798 l 157 798 l 157 0 "},"Ṃ":{"ha":859,"x_min":0,"x_max":0,"o":"m 429 -298 b 352 -222 388 -298 352 -263 b 429 -145 352 -180 388 -145 b 507 -222 471 -145 507 -180 b 429 -298 507 -263 471 -298 m 71 0 l 71 979 l 177 979 l 426 352 l 433 352 l 681 979 l 788 979 l 788 0 l 701 0 l 701 798 l 694 798 l 469 230 l 389 230 l 164 798 l 157 798 l 157 0 "},"N":{"ha":859,"x_min":0,"x_max":0,"o":"m 110 0 l 110 979 l 204 979 l 653 166 l 662 166 l 662 979 l 749 979 l 749 0 l 656 0 l 205 813 l 197 813 l 197 0 "},"Ǹ":{"ha":859,"x_min":0,"x_max":0,"o":"m 497 1097 l 390 1097 l 169 1298 l 287 1298 m 110 0 l 110 979 l 204 979 l 653 166 l 662 166 l 662 979 l 749 979 l 749 0 l 656 0 l 205 813 l 197 813 l 197 0 "},"Ń":{"ha":859,"x_min":0,"x_max":0,"o":"m 110 0 l 110 979 l 204 979 l 653 166 l 662 166 l 662 979 l 749 979 l 749 0 l 656 0 l 205 813 l 197 813 l 197 0 m 564 1298 l 682 1298 l 461 1097 l 354 1097 "},"Ñ":{"ha":859,"x_min":0,"x_max":0,"o":"m 110 0 l 110 979 l 204 979 l 653 166 l 662 166 l 662 979 l 749 979 l 749 0 l 656 0 l 205 813 l 197 813 l 197 0 m 525 1107 b 330 1219 420 1107 403 1219 b 262 1114 288 1219 264 1183 l 190 1114 b 328 1288 190 1221 243 1288 b 523 1175 439 1288 460 1175 b 592 1280 564 1175 589 1213 l 663 1280 b 525 1107 663 1175 608 1107 "},"Ṇ":{"ha":859,"x_min":0,"x_max":0,"o":"m 110 0 l 110 979 l 204 979 l 653 166 l 662 166 l 662 979 l 749 979 l 749 0 l 656 0 l 205 813 l 197 813 l 197 0 m 428 -298 b 351 -222 387 -298 351 -263 b 428 -145 351 -180 387 -145 b 505 -222 469 -145 505 -180 b 428 -298 505 -263 469 -298 "},"Ṅ":{"ha":859,"x_min":0,"x_max":0,"o":"m 110 0 l 110 979 l 204 979 l 653 166 l 662 166 l 662 979 l 749 979 l 749 0 l 656 0 l 205 813 l 197 813 l 197 0 m 427 1126 b 349 1202 385 1126 349 1161 b 427 1279 349 1244 385 1279 b 504 1202 468 1279 504 1244 b 427 1126 504 1161 468 1126 "},"Ň":{"ha":859,"x_min":0,"x_max":0,"o":"m 469 1097 l 385 1097 l 189 1298 l 294 1298 l 422 1161 l 431 1161 l 559 1298 l 665 1298 m 110 0 l 110 979 l 204 979 l 653 166 l 662 166 l 662 979 l 749 979 l 749 0 l 656 0 l 205 813 l 197 813 l 197 0 "},"Ṋ":{"ha":859,"x_min":0,"x_max":0,"o":"m 110 0 l 110 979 l 204 979 l 653 166 l 662 166 l 662 979 l 749 979 l 749 0 l 656 0 l 205 813 l 197 813 l 197 0 m 485 -115 l 672 -342 l 557 -342 l 433 -182 l 423 -182 l 299 -342 l 184 -342 l 371 -115 "},"Ṉ":{"ha":859,"x_min":0,"x_max":0,"o":"m 110 0 l 110 979 l 204 979 l 653 166 l 662 166 l 662 979 l 749 979 l 749 0 l 656 0 l 205 813 l 197 813 l 197 0 m 212 -262 l 212 -182 l 644 -182 l 644 -262 "},"Ņ":{"ha":859,"x_min":0,"x_max":0,"o":"m 110 0 l 110 979 l 204 979 l 653 166 l 662 166 l 662 979 l 749 979 l 749 0 l 656 0 l 205 813 l 197 813 l 197 0 m 311 -341 l 380 -94 l 475 -94 l 397 -341 "},"O":{"ha":859,"x_min":0,"x_max":0,"o":"m 781 408 b 429 -20 781 138 647 -20 b 77 408 212 -20 77 138 l 77 570 b 429 999 77 840 212 999 b 781 570 647 999 781 840 l 781 408 m 429 66 b 688 408 589 66 688 191 l 688 570 b 429 913 688 787 589 913 b 170 570 269 913 170 787 l 170 408 b 429 66 170 191 269 66 "},"Ö":{"ha":859,"x_min":0,"x_max":0,"o":"m 781 408 b 429 -20 781 138 647 -20 b 77 408 212 -20 77 138 l 77 570 b 429 999 77 840 212 999 b 781 570 647 999 781 840 l 781 408 m 429 66 b 688 408 589 66 688 191 l 688 570 b 429 913 688 787 589 913 b 170 570 269 913 170 787 l 170 408 b 429 66 170 191 269 66 m 300 1130 b 228 1202 262 1130 228 1164 b 300 1275 228 1241 262 1275 b 372 1202 338 1275 372 1241 b 300 1130 372 1164 338 1130 m 559 1130 b 487 1202 521 1130 487 1164 b 559 1275 487 1241 521 1275 b 631 1202 597 1275 631 1241 b 559 1130 631 1164 597 1130 "},"Ø":{"ha":859,"x_min":0,"x_max":0,"o":"m 688 570 b 652 768 688 649 675 715 l 248 146 b 429 66 292 94 354 66 b 688 408 589 66 688 191 m 170 408 b 206 212 170 331 183 265 l 610 834 b 429 913 566 886 504 913 b 170 570 269 913 170 787 m 709 857 b 781 570 755 785 781 688 l 781 408 b 429 -20 781 138 647 -20 b 196 66 334 -20 255 10 l 153 0 l 68 0 l 149 124 b 77 408 102 195 77 292 l 77 570 b 429 999 77 840 212 999 b 661 913 524 999 602 969 l 703 979 l 788 979 "},"Õ":{"ha":859,"x_min":0,"x_max":0,"o":"m 781 408 b 429 -20 781 138 647 -20 b 77 408 212 -20 77 138 l 77 570 b 429 999 77 840 212 999 b 781 570 647 999 781 840 l 781 408 m 429 66 b 688 408 589 66 688 191 l 688 570 b 429 913 688 787 589 913 b 170 570 269 913 170 787 l 170 408 b 429 66 170 191 269 66 m 528 1107 b 333 1219 422 1107 406 1219 b 264 1114 290 1219 267 1183 l 193 1114 b 331 1288 193 1221 246 1288 b 526 1175 441 1288 463 1175 b 595 1280 567 1175 592 1213 l 666 1280 b 528 1107 666 1175 611 1107 "},"Ó":{"ha":859,"x_min":0,"x_max":0,"o":"m 781 408 b 429 -20 781 138 647 -20 b 77 408 212 -20 77 138 l 77 570 b 429 999 77 840 212 999 b 781 570 647 999 781 840 l 781 408 m 429 66 b 688 408 589 66 688 191 l 688 570 b 429 913 688 787 589 913 b 170 570 269 913 170 787 l 170 408 b 429 66 170 191 269 66 m 567 1298 l 685 1298 l 464 1097 l 357 1097 "},"Ô":{"ha":859,"x_min":0,"x_max":0,"o":"m 781 408 b 429 -20 781 138 647 -20 b 77 408 212 -20 77 138 l 77 570 b 429 999 77 840 212 999 b 781 570 647 999 781 840 l 781 408 m 429 66 b 688 408 589 66 688 191 l 688 570 b 429 913 688 787 589 913 b 170 570 269 913 170 787 l 170 408 b 429 66 170 191 269 66 m 667 1097 l 562 1097 l 433 1234 l 425 1234 l 296 1097 l 191 1097 l 387 1298 l 471 1298 "},"Ò":{"ha":859,"x_min":0,"x_max":0,"o":"m 500 1097 l 393 1097 l 172 1298 l 290 1298 m 170 408 b 429 66 170 191 269 66 b 688 408 589 66 688 191 l 688 570 b 429 913 688 787 589 913 b 170 570 269 913 170 787 m 781 408 b 429 -20 781 138 647 -20 b 77 408 212 -20 77 138 l 77 570 b 429 999 77 840 212 999 b 781 570 647 999 781 840 "},"Ổ":{"ha":859,"x_min":0,"x_max":0,"o":"m 781 408 b 429 -20 781 138 647 -20 b 77 408 212 -20 77 138 l 77 570 b 429 999 77 840 212 999 b 781 570 647 999 781 840 l 781 408 m 429 66 b 688 408 589 66 688 191 l 688 570 b 429 913 688 787 589 913 b 170 570 269 913 170 787 l 170 408 b 429 66 170 191 269 66 m 507 1395 b 591 1408 523 1402 558 1408 b 705 1309 659 1408 705 1368 b 626 1200 705 1261 673 1217 l 575 1240 b 629 1305 608 1253 629 1278 b 571 1352 629 1333 606 1352 b 507 1339 549 1352 521 1347 m 672 1069 l 555 1069 l 433 1168 l 425 1168 l 303 1069 l 186 1069 l 380 1221 l 479 1221 "},"Ồ":{"ha":859,"x_min":0,"x_max":0,"o":"m 781 408 b 429 -20 781 138 647 -20 b 77 408 212 -20 77 138 l 77 570 b 429 999 77 840 212 999 b 781 570 647 999 781 840 l 781 408 m 429 66 b 688 408 589 66 688 191 l 688 570 b 429 913 688 787 589 913 b 170 570 269 913 170 787 l 170 408 b 429 66 170 191 269 66 m 605 1240 l 440 1388 l 554 1388 l 706 1240 m 672 1069 l 555 1069 l 433 1168 l 425 1168 l 303 1069 l 186 1069 l 380 1221 l 479 1221 "},"Ọ":{"ha":859,"x_min":0,"x_max":0,"o":"m 781 408 b 429 -20 781 138 647 -20 b 77 408 212 -20 77 138 l 77 570 b 429 999 77 840 212 999 b 781 570 647 999 781 840 l 781 408 m 429 66 b 688 408 589 66 688 191 l 688 570 b 429 913 688 787 589 913 b 170 570 269 913 170 787 l 170 408 b 429 66 170 191 269 66 m 429 -298 b 352 -222 388 -298 352 -263 b 429 -145 352 -180 388 -145 b 507 -222 471 -145 507 -180 b 429 -298 507 -263 471 -298 "},"Ȍ":{"ha":859,"x_min":0,"x_max":0,"o":"m 637 1097 l 530 1097 l 309 1298 l 427 1298 m 390 1097 l 283 1097 l 62 1298 l 180 1298 m 170 408 b 429 66 170 191 269 66 b 688 408 589 66 688 191 l 688 570 b 429 913 688 787 589 913 b 170 570 269 913 170 787 m 781 408 b 429 -20 781 138 647 -20 b 77 408 212 -20 77 138 l 77 570 b 429 999 77 840 212 999 b 781 570 647 999 781 840 "},"Ṍ":{"ha":859,"x_min":0,"x_max":0,"o":"m 781 408 b 429 -20 781 138 647 -20 b 77 408 212 -20 77 138 l 77 570 b 429 999 77 840 212 999 b 781 570 647 999 781 840 l 781 408 m 429 66 b 688 408 589 66 688 191 l 688 570 b 429 913 688 787 589 913 b 170 570 269 913 170 787 l 170 408 b 429 66 170 191 269 66 m 487 1413 l 587 1413 l 475 1271 l 389 1271 m 522 1053 b 336 1146 408 1053 408 1146 b 271 1063 296 1146 273 1118 l 199 1063 b 336 1214 199 1154 254 1214 b 523 1122 451 1214 450 1122 b 588 1204 562 1122 585 1152 l 659 1204 b 522 1053 659 1116 603 1053 "},"Ṓ":{"ha":859,"x_min":0,"x_max":0,"o":"m 343 1240 l 495 1387 l 609 1387 l 444 1240 m 212 1096 l 212 1162 l 645 1162 l 645 1096 m 170 408 b 429 66 170 191 269 66 b 688 408 589 66 688 191 l 688 570 b 429 913 688 787 589 913 b 170 570 269 913 170 787 m 781 408 b 429 -20 781 138 647 -20 b 77 408 212 -20 77 138 l 77 570 b 429 999 77 840 212 999 b 781 570 647 999 781 840 "},"Ỗ":{"ha":859,"x_min":0,"x_max":0,"o":"m 781 408 b 429 -20 781 138 647 -20 b 77 408 212 -20 77 138 l 77 570 b 429 999 77 840 212 999 b 781 570 647 999 781 840 l 781 408 m 429 66 b 688 408 589 66 688 191 l 688 570 b 429 913 688 787 589 913 b 170 570 269 913 170 787 l 170 408 b 429 66 170 191 269 66 m 672 1069 l 555 1069 l 433 1168 l 425 1168 l 303 1069 l 186 1069 l 380 1221 l 479 1221 m 522 1254 b 336 1347 408 1254 408 1347 b 271 1264 296 1347 273 1318 l 199 1264 b 336 1415 199 1354 254 1415 b 523 1322 451 1415 450 1322 b 588 1405 562 1322 585 1352 l 659 1405 b 522 1254 659 1316 603 1254 "},"Ȱ":{"ha":859,"x_min":0,"x_max":0,"o":"m 429 1211 b 500 1141 469 1211 500 1180 b 429 1070 500 1101 469 1070 b 359 1141 390 1070 359 1101 b 429 1211 359 1180 390 1211 m 213 1364 l 646 1364 l 646 1298 l 213 1298 m 170 408 b 429 66 170 191 269 66 b 688 408 589 66 688 191 l 688 570 b 429 913 688 787 589 913 b 170 570 269 913 170 787 m 781 408 b 429 -20 781 138 647 -20 b 77 408 212 -20 77 138 l 77 570 b 429 999 77 840 212 999 b 781 570 647 999 781 840 "},"Ṑ":{"ha":859,"x_min":0,"x_max":0,"o":"m 781 408 b 429 -20 781 138 647 -20 b 77 408 212 -20 77 138 l 77 570 b 429 999 77 840 212 999 b 781 570 647 999 781 840 l 781 408 m 429 66 b 688 408 589 66 688 191 l 688 570 b 429 913 688 787 589 913 b 170 570 269 913 170 787 l 170 408 b 429 66 170 191 269 66 m 212 1097 l 212 1163 l 645 1163 l 645 1097 m 413 1240 l 248 1388 l 362 1388 l 514 1240 "},"Ǒ":{"ha":859,"x_min":0,"x_max":0,"o":"m 471 1097 l 387 1097 l 191 1298 l 296 1298 l 425 1161 l 433 1161 l 562 1298 l 667 1298 m 170 408 b 429 66 170 191 269 66 b 688 408 589 66 688 191 l 688 570 b 429 913 688 787 589 913 b 170 570 269 913 170 787 m 781 408 b 429 -20 781 138 647 -20 b 77 408 212 -20 77 138 l 77 570 b 429 999 77 840 212 999 b 781 570 647 999 781 840 "},"Ǿ":{"ha":859,"x_min":0,"x_max":0,"o":"m 481 1097 l 374 1097 l 584 1298 l 702 1298 m 688 570 b 652 768 688 649 675 715 l 248 146 b 429 66 292 94 354 66 b 688 408 589 66 688 191 m 170 408 b 206 212 170 331 183 265 l 610 834 b 429 913 566 886 504 913 b 170 570 269 913 170 787 m 709 857 b 781 570 755 785 781 688 l 781 408 b 429 -20 781 138 647 -20 b 196 66 334 -20 255 10 l 153 0 l 68 0 l 149 124 b 77 408 102 195 77 292 l 77 570 b 429 999 77 840 212 999 b 661 913 524 999 602 969 l 703 979 l 788 979 "},"Ő":{"ha":859,"x_min":0,"x_max":0,"o":"m 781 408 b 429 -20 781 138 647 -20 b 77 408 212 -20 77 138 l 77 570 b 429 999 77 840 212 999 b 781 570 647 999 781 840 l 781 408 m 429 66 b 688 408 589 66 688 191 l 688 570 b 429 913 688 787 589 913 b 170 570 269 913 170 787 l 170 408 b 429 66 170 191 269 66 m 660 1298 l 778 1298 l 557 1097 l 450 1097 m 413 1298 l 531 1298 l 310 1097 l 203 1097 "},"Ŏ":{"ha":859,"x_min":0,"x_max":0,"o":"m 781 408 b 429 -20 781 138 647 -20 b 77 408 212 -20 77 138 l 77 570 b 429 999 77 840 212 999 b 781 570 647 999 781 840 l 781 408 m 429 66 b 688 408 589 66 688 191 l 688 570 b 429 913 688 787 589 913 b 170 570 269 913 170 787 l 170 408 b 429 66 170 191 269 66 m 286 1298 b 429 1163 286 1220 346 1163 b 573 1298 513 1163 573 1220 l 653 1298 b 429 1097 653 1179 561 1097 b 205 1298 298 1097 205 1179 "},"Ȏ":{"ha":859,"x_min":0,"x_max":0,"o":"m 205 1097 b 429 1298 205 1215 298 1298 b 653 1097 561 1298 653 1215 l 573 1097 b 429 1232 573 1175 513 1232 b 286 1097 346 1232 286 1175 m 170 408 b 429 66 170 191 269 66 b 688 408 589 66 688 191 l 688 570 b 429 913 688 787 589 913 b 170 570 269 913 170 787 m 781 408 b 429 -20 781 138 647 -20 b 77 408 212 -20 77 138 l 77 570 b 429 999 77 840 212 999 b 781 570 647 999 781 840 "},"Ỏ":{"ha":859,"x_min":0,"x_max":0,"o":"m 781 408 b 429 -20 781 138 647 -20 b 77 408 212 -20 77 138 l 77 570 b 429 999 77 840 212 999 b 781 570 647 999 781 840 l 781 408 m 429 66 b 688 408 589 66 688 191 l 688 570 b 429 913 688 787 589 913 b 170 570 269 913 170 787 l 170 408 b 429 66 170 191 269 66 m 319 1293 b 404 1309 339 1302 374 1309 b 538 1198 486 1309 538 1266 b 434 1069 538 1143 496 1091 l 394 1120 b 462 1192 434 1134 462 1163 b 393 1242 462 1221 435 1242 b 319 1226 364 1242 336 1236 "},"Ȫ":{"ha":859,"x_min":0,"x_max":0,"o":"m 553 1190 b 616 1126 588 1190 616 1162 b 553 1063 616 1091 588 1063 b 490 1126 517 1063 490 1091 b 553 1190 490 1162 517 1190 m 212 1364 l 645 1364 l 645 1298 l 212 1298 m 306 1190 b 369 1126 341 1190 369 1162 b 306 1063 369 1091 341 1063 b 243 1126 271 1063 243 1091 b 306 1190 243 1162 271 1190 m 170 408 b 429 66 170 191 269 66 b 688 408 589 66 688 191 l 688 570 b 429 913 688 787 589 913 b 170 570 269 913 170 787 m 781 408 b 429 -20 781 138 647 -20 b 77 408 212 -20 77 138 l 77 570 b 429 999 77 840 212 999 b 781 570 647 999 781 840 "},"Ȭ":{"ha":859,"x_min":0,"x_max":0,"o":"m 781 408 b 429 -20 781 138 647 -20 b 77 408 212 -20 77 138 l 77 570 b 429 999 77 840 212 999 b 781 570 647 999 781 840 l 781 408 m 429 66 b 688 408 589 66 688 191 l 688 570 b 429 913 688 787 589 913 b 170 570 269 913 170 787 l 170 408 b 429 66 170 191 269 66 m 213 1298 l 213 1364 l 646 1364 l 646 1298 m 522 1053 b 336 1146 408 1053 408 1146 b 271 1063 296 1146 273 1118 l 199 1063 b 336 1214 199 1154 254 1214 b 523 1122 451 1214 450 1122 b 588 1204 562 1122 585 1152 l 659 1204 b 522 1053 659 1116 603 1053 "},"Ȯ":{"ha":859,"x_min":0,"x_max":0,"o":"m 781 408 b 429 -20 781 138 647 -20 b 77 408 212 -20 77 138 l 77 570 b 429 999 77 840 212 999 b 781 570 647 999 781 840 l 781 408 m 429 66 b 688 408 589 66 688 191 l 688 570 b 429 913 688 787 589 913 b 170 570 269 913 170 787 l 170 408 b 429 66 170 191 269 66 m 429 1126 b 352 1202 388 1126 352 1161 b 429 1279 352 1244 388 1279 b 507 1202 471 1279 507 1244 b 429 1126 507 1161 471 1126 "},"Ộ":{"ha":859,"x_min":0,"x_max":0,"o":"m 781 408 b 429 -20 781 138 647 -20 b 77 408 212 -20 77 138 l 77 570 b 429 999 77 840 212 999 b 781 570 647 999 781 840 l 781 408 m 429 66 b 688 408 589 66 688 191 l 688 570 b 429 913 688 787 589 913 b 170 570 269 913 170 787 l 170 408 b 429 66 170 191 269 66 m 667 1097 l 562 1097 l 433 1234 l 425 1234 l 296 1097 l 191 1097 l 387 1298 l 471 1298 m 429 -298 b 352 -222 388 -298 352 -263 b 429 -145 352 -180 388 -145 b 507 -222 471 -145 507 -180 b 429 -298 507 -263 471 -298 "},"Ố":{"ha":859,"x_min":0,"x_max":0,"o":"m 781 408 b 429 -20 781 138 647 -20 b 77 408 212 -20 77 138 l 77 570 b 429 999 77 840 212 999 b 781 570 647 999 781 840 l 781 408 m 429 66 b 688 408 589 66 688 191 l 688 570 b 429 913 688 787 589 913 b 170 570 269 913 170 787 l 170 408 b 429 66 170 191 269 66 m 710 1388 l 824 1388 l 659 1240 l 558 1240 m 672 1069 l 555 1069 l 433 1168 l 425 1168 l 303 1069 l 186 1069 l 380 1221 l 479 1221 "},"Ṏ":{"ha":859,"x_min":0,"x_max":0,"o":"m 781 408 b 429 -20 781 138 647 -20 b 77 408 212 -20 77 138 l 77 570 b 429 999 77 840 212 999 b 781 570 647 999 781 840 l 781 408 m 429 66 b 688 408 589 66 688 191 l 688 570 b 429 913 688 787 589 913 b 170 570 269 913 170 787 l 170 408 b 429 66 170 191 269 66 m 522 1053 b 336 1146 408 1053 408 1146 b 271 1063 296 1146 273 1118 l 199 1063 b 336 1214 199 1154 254 1214 b 523 1122 451 1214 450 1122 b 588 1204 562 1122 585 1152 l 659 1204 b 522 1053 659 1116 603 1053 m 306 1272 b 243 1335 271 1272 243 1299 b 306 1398 243 1370 271 1398 b 369 1335 341 1398 369 1370 b 306 1272 369 1299 341 1272 m 553 1272 b 490 1335 517 1272 490 1299 b 553 1398 490 1370 517 1398 b 616 1335 588 1398 616 1370 b 553 1272 616 1299 588 1272 "},"Ō":{"ha":859,"x_min":0,"x_max":0,"o":"m 781 408 b 429 -20 781 138 647 -20 b 77 408 212 -20 77 138 l 77 570 b 429 999 77 840 212 999 b 781 570 647 999 781 840 l 781 408 m 429 66 b 688 408 589 66 688 191 l 688 570 b 429 913 688 787 589 913 b 170 570 269 913 170 787 l 170 408 b 429 66 170 191 269 66 m 213 1162 l 213 1242 l 646 1242 l 646 1162 "},"Ǫ":{"ha":859,"x_min":0,"x_max":0,"o":"m 429 66 b 688 408 591 66 688 194 l 688 570 b 429 913 688 785 591 913 b 170 570 267 913 170 785 l 170 408 b 429 66 170 194 267 66 m 564 -282 b 411 -152 475 -282 411 -228 b 505 -7 411 -93 439 -49 l 505 2 b 413 -18 483 -10 448 -18 b 77 408 207 -18 77 146 l 77 570 b 429 999 77 838 210 999 b 781 570 649 999 781 838 l 781 408 b 627 34 781 226 737 119 b 498 -134 524 -46 498 -79 b 582 -207 498 -177 533 -207 b 627 -202 601 -207 616 -205 l 627 -273 b 564 -282 610 -279 588 -282 "},"Ǭ":{"ha":859,"x_min":0,"x_max":0,"o":"m 213 1162 l 213 1242 l 646 1242 l 646 1162 m 429 66 b 688 408 591 66 688 194 l 688 570 b 429 913 688 785 591 913 b 170 570 267 913 170 785 l 170 408 b 429 66 170 194 267 66 m 564 -282 b 411 -152 475 -282 411 -228 b 505 -7 411 -93 439 -49 l 505 2 b 413 -18 483 -10 448 -18 b 77 408 207 -18 77 146 l 77 570 b 429 999 77 838 210 999 b 781 570 649 999 781 838 l 781 408 b 627 34 781 226 737 119 b 498 -134 524 -46 498 -79 b 582 -207 498 -177 533 -207 b 627 -202 601 -207 616 -205 l 627 -273 b 564 -282 610 -279 588 -282 "},"Ơ":{"ha":859,"x_min":0,"x_max":0,"o":"m 429 -20 b 77 408 210 -20 77 141 l 77 570 b 429 999 77 838 210 999 b 662 976 511 999 568 976 b 757 1048 734 976 757 994 l 757 1136 l 840 1136 l 840 1022 b 703 907 840 948 791 907 l 654 907 l 654 901 b 781 570 733 850 781 726 l 781 408 b 429 -20 781 141 649 -20 m 429 66 b 688 408 591 66 688 194 l 688 570 b 429 913 688 785 591 913 b 170 570 267 913 170 785 l 170 408 b 429 66 170 194 267 66 "},"Ợ":{"ha":859,"x_min":0,"x_max":0,"o":"m 429 -20 b 77 408 210 -20 77 141 l 77 570 b 429 999 77 838 210 999 b 662 976 511 999 568 976 b 757 1048 734 976 757 994 l 757 1136 l 840 1136 l 840 1022 b 703 907 840 948 791 907 l 654 907 l 654 901 b 781 570 733 850 781 726 l 781 408 b 429 -20 781 141 649 -20 m 429 66 b 688 408 591 66 688 194 l 688 570 b 429 913 688 785 591 913 b 170 570 267 913 170 785 l 170 408 b 429 66 170 194 267 66 m 429 -298 b 352 -222 388 -298 352 -263 b 429 -145 352 -180 388 -145 b 507 -222 471 -145 507 -180 b 429 -298 507 -263 471 -298 "},"Ở":{"ha":859,"x_min":0,"x_max":0,"o":"m 319 1293 b 404 1309 339 1302 374 1309 b 538 1198 486 1309 538 1266 b 434 1069 538 1143 496 1091 l 394 1120 b 462 1192 434 1134 462 1163 b 393 1242 462 1221 435 1242 b 319 1226 364 1242 336 1236 m 429 -20 b 77 408 210 -20 77 141 l 77 570 b 429 999 77 838 210 999 b 662 976 511 999 568 976 b 757 1048 734 976 757 994 l 757 1136 l 840 1136 l 840 1022 b 703 907 840 948 791 907 l 654 907 l 654 901 b 781 570 733 850 781 726 l 781 408 b 429 -20 781 141 649 -20 m 429 66 b 688 408 591 66 688 194 l 688 570 b 429 913 688 785 591 913 b 170 570 267 913 170 785 l 170 408 b 429 66 170 194 267 66 "},"Ỡ":{"ha":859,"x_min":0,"x_max":0,"o":"m 528 1107 b 333 1219 422 1107 406 1219 b 264 1114 290 1219 267 1183 l 193 1114 b 331 1288 193 1221 246 1288 b 526 1175 441 1288 463 1175 b 595 1280 567 1175 592 1213 l 666 1280 b 528 1107 666 1175 611 1107 m 429 -20 b 77 408 210 -20 77 141 l 77 570 b 429 999 77 838 210 999 b 662 976 511 999 568 976 b 757 1048 734 976 757 994 l 757 1136 l 840 1136 l 840 1022 b 703 907 840 948 791 907 l 654 907 l 654 901 b 781 570 733 850 781 726 l 781 408 b 429 -20 781 141 649 -20 m 429 66 b 688 408 591 66 688 194 l 688 570 b 429 913 688 785 591 913 b 170 570 267 913 170 785 l 170 408 b 429 66 170 194 267 66 "},"Ờ":{"ha":859,"x_min":0,"x_max":0,"o":"m 170 408 b 429 66 170 194 267 66 b 688 408 591 66 688 194 l 688 570 b 429 913 688 785 591 913 b 170 570 267 913 170 785 m 781 408 b 429 -20 781 141 649 -20 b 77 408 210 -20 77 141 l 77 570 b 429 999 77 838 210 999 b 662 976 511 999 568 976 b 757 1048 734 976 757 994 l 757 1136 l 840 1136 l 840 1022 b 703 907 840 948 791 907 l 654 907 l 654 901 b 781 570 733 850 781 726 m 526 1097 l 419 1097 l 198 1298 l 316 1298 "},"Ớ":{"ha":859,"x_min":0,"x_max":0,"o":"m 515 1298 l 633 1298 l 412 1097 l 305 1097 m 429 -20 b 77 408 210 -20 77 141 l 77 570 b 429 999 77 838 210 999 b 662 976 511 999 568 976 b 757 1048 734 976 757 994 l 757 1136 l 840 1136 l 840 1022 b 703 907 840 948 791 907 l 654 907 l 654 901 b 781 570 733 850 781 726 l 781 408 b 429 -20 781 141 649 -20 m 429 66 b 688 408 591 66 688 194 l 688 570 b 429 913 688 785 591 913 b 170 570 267 913 170 785 l 170 408 b 429 66 170 194 267 66 "},"P":{"ha":859,"x_min":0,"x_max":0,"o":"m 460 979 b 766 674 644 979 766 857 b 460 370 766 492 644 370 l 239 370 l 239 0 l 146 0 l 146 979 m 239 452 l 437 452 b 672 674 586 452 672 534 b 437 896 672 814 586 896 l 239 896 "},"Ṗ":{"ha":859,"x_min":0,"x_max":0,"o":"m 460 979 b 766 674 644 979 766 857 b 460 370 766 492 644 370 l 239 370 l 239 0 l 146 0 l 146 979 m 239 452 l 437 452 b 672 674 586 452 672 534 b 437 896 672 814 586 896 l 239 896 m 397 1126 b 319 1202 355 1126 319 1161 b 397 1279 319 1244 355 1279 b 474 1202 438 1279 474 1244 b 397 1126 474 1161 438 1126 "},"Ṕ":{"ha":859,"x_min":0,"x_max":0,"o":"m 460 979 b 766 674 644 979 766 857 b 460 370 766 492 644 370 l 239 370 l 239 0 l 146 0 l 146 979 m 239 452 l 437 452 b 672 674 586 452 672 534 b 437 896 672 814 586 896 l 239 896 m 534 1298 l 652 1298 l 431 1097 l 324 1097 "},"Q":{"ha":859,"x_min":0,"x_max":0,"o":"m 170 408 b 429 66 170 191 269 66 b 545 92 473 66 511 75 l 399 313 l 506 313 l 614 149 b 688 408 662 208 688 296 l 688 570 b 429 913 688 787 589 913 b 170 570 269 913 170 787 m 682 -115 l 594 18 b 429 -20 547 -7 492 -20 b 77 408 212 -20 77 138 l 77 570 b 429 999 77 840 212 999 b 781 570 647 999 781 840 l 781 408 b 666 70 781 258 740 143 l 788 -115 "},"R":{"ha":859,"x_min":0,"x_max":0,"o":"m 224 484 l 439 484 b 664 688 584 484 664 556 b 446 896 664 821 585 896 l 224 896 m 224 404 l 224 0 l 133 0 l 133 979 l 452 979 b 756 692 638 979 756 868 b 570 425 756 564 684 458 l 771 0 l 667 0 l 481 404 "},"Ř":{"ha":859,"x_min":0,"x_max":0,"o":"m 458 1097 l 374 1097 l 178 1298 l 283 1298 l 412 1161 l 420 1161 l 549 1298 l 654 1298 m 224 404 l 224 0 l 133 0 l 133 979 l 452 979 b 756 692 638 979 756 868 b 570 425 756 564 684 458 l 771 0 l 667 0 l 481 404 m 224 484 l 439 484 b 664 688 584 484 664 556 b 446 896 664 821 585 896 l 224 896 "},"Ṟ":{"ha":859,"x_min":0,"x_max":0,"o":"m 224 484 l 439 484 b 664 688 584 484 664 556 b 446 896 664 821 585 896 l 224 896 m 224 404 l 224 0 l 133 0 l 133 979 l 452 979 b 756 692 638 979 756 868 b 570 425 756 564 684 458 l 771 0 l 667 0 l 481 404 m 216 -262 l 216 -182 l 648 -182 l 648 -262 "},"Ṝ":{"ha":859,"x_min":0,"x_max":0,"o":"m 224 484 l 439 484 b 664 688 584 484 664 556 b 446 896 664 821 585 896 l 224 896 m 224 404 l 224 0 l 133 0 l 133 979 l 452 979 b 756 692 638 979 756 868 b 570 425 756 564 684 458 l 771 0 l 667 0 l 481 404 m 432 -298 b 355 -222 391 -298 355 -263 b 432 -145 355 -180 391 -145 b 509 -222 473 -145 509 -180 b 432 -298 509 -263 473 -298 m 200 1162 l 200 1242 l 633 1242 l 633 1162 "},"Ȑ":{"ha":859,"x_min":0,"x_max":0,"o":"m 624 1097 l 517 1097 l 296 1298 l 414 1298 m 377 1097 l 270 1097 l 49 1298 l 167 1298 m 224 404 l 224 0 l 133 0 l 133 979 l 452 979 b 756 692 638 979 756 868 b 570 425 756 564 684 458 l 771 0 l 667 0 l 481 404 m 224 484 l 439 484 b 664 688 584 484 664 556 b 446 896 664 821 585 896 l 224 896 "},"Ȓ":{"ha":859,"x_min":0,"x_max":0,"o":"m 193 1097 b 416 1298 193 1215 285 1298 b 640 1097 548 1298 640 1215 l 560 1097 b 416 1232 560 1175 500 1232 b 273 1097 333 1232 273 1175 m 224 404 l 224 0 l 133 0 l 133 979 l 452 979 b 756 692 638 979 756 868 b 570 425 756 564 684 458 l 771 0 l 667 0 l 481 404 m 224 484 l 439 484 b 664 688 584 484 664 556 b 446 896 664 821 585 896 l 224 896 "},"Ŕ":{"ha":859,"x_min":0,"x_max":0,"o":"m 224 484 l 439 484 b 664 688 584 484 664 556 b 446 896 664 821 585 896 l 224 896 m 224 404 l 224 0 l 133 0 l 133 979 l 452 979 b 756 692 638 979 756 868 b 570 425 756 564 684 458 l 771 0 l 667 0 l 481 404 m 554 1298 l 672 1298 l 451 1097 l 344 1097 "},"Ṛ":{"ha":859,"x_min":0,"x_max":0,"o":"m 224 484 l 439 484 b 664 688 584 484 664 556 b 446 896 664 821 585 896 l 224 896 m 224 404 l 224 0 l 133 0 l 133 979 l 452 979 b 756 692 638 979 756 868 b 570 425 756 564 684 458 l 771 0 l 667 0 l 481 404 m 432 -298 b 355 -222 391 -298 355 -263 b 432 -145 355 -180 391 -145 b 509 -222 473 -145 509 -180 b 432 -298 509 -263 473 -298 "},"Ṙ":{"ha":859,"x_min":0,"x_max":0,"o":"m 224 484 l 439 484 b 664 688 584 484 664 556 b 446 896 664 821 585 896 l 224 896 m 224 404 l 224 0 l 133 0 l 133 979 l 452 979 b 756 692 638 979 756 868 b 570 425 756 564 684 458 l 771 0 l 667 0 l 481 404 m 416 1126 b 339 1202 375 1126 339 1161 b 416 1279 339 1244 375 1279 b 494 1202 458 1279 494 1244 b 416 1126 494 1161 458 1126 "},"Ŗ":{"ha":859,"x_min":0,"x_max":0,"o":"m 224 484 l 439 484 b 664 688 584 484 664 556 b 446 896 664 821 585 896 l 224 896 m 224 404 l 224 0 l 133 0 l 133 979 l 452 979 b 756 692 638 979 756 868 b 570 425 756 564 684 458 l 771 0 l 667 0 l 481 404 m 315 -341 l 385 -94 l 479 -94 l 401 -341 "},"S":{"ha":859,"x_min":0,"x_max":0,"o":"m 198 254 b 441 64 211 137 304 64 b 672 256 581 64 672 140 b 471 444 672 350 610 408 l 394 464 b 130 736 210 512 130 595 b 441 999 130 895 252 999 b 750 739 618 999 741 897 l 657 739 b 441 914 644 850 564 914 b 224 736 305 914 224 848 b 418 555 224 644 283 590 l 498 534 b 767 256 688 484 767 403 b 441 -20 767 90 637 -20 b 105 254 246 -20 117 85 "},"Š":{"ha":859,"x_min":0,"x_max":0,"o":"m 483 1097 l 399 1097 l 203 1298 l 308 1298 l 437 1161 l 445 1161 l 574 1298 l 679 1298 m 198 254 b 441 64 211 137 304 64 b 672 256 581 64 672 140 b 471 444 672 350 610 408 l 394 464 b 130 736 210 512 130 595 b 441 999 130 895 252 999 b 750 739 618 999 741 897 l 657 739 b 441 914 644 850 564 914 b 224 736 305 914 224 848 b 418 555 224 644 283 590 l 498 534 b 767 256 688 484 767 403 b 441 -20 767 90 637 -20 b 105 254 246 -20 117 85 "},"Ş":{"ha":859,"x_min":0,"x_max":0,"o":"m 498 534 b 767 256 688 484 767 403 b 481 -19 767 102 655 -4 l 452 -98 b 589 -205 541 -96 589 -134 b 433 -328 589 -279 526 -328 b 346 -316 400 -328 379 -326 l 346 -250 b 428 -260 362 -255 404 -260 b 507 -207 479 -260 507 -241 b 405 -159 507 -173 478 -159 l 366 -159 l 366 -111 l 402 -19 b 105 254 229 -5 116 97 l 198 254 b 441 64 211 137 304 64 b 672 256 581 64 672 140 b 471 444 672 350 610 408 l 394 464 b 130 736 210 512 130 595 b 441 999 130 895 252 999 b 750 739 618 999 741 897 l 657 739 b 441 914 644 850 564 914 b 224 736 305 914 224 848 b 418 555 224 644 283 590 "},"Ṡ":{"ha":859,"x_min":0,"x_max":0,"o":"m 198 254 b 441 64 211 137 304 64 b 672 256 581 64 672 140 b 471 444 672 350 610 408 l 394 464 b 130 736 210 512 130 595 b 441 999 130 895 252 999 b 750 739 618 999 741 897 l 657 739 b 441 914 644 850 564 914 b 224 736 305 914 224 848 b 418 555 224 644 283 590 l 498 534 b 767 256 688 484 767 403 b 441 -20 767 90 637 -20 b 105 254 246 -20 117 85 m 441 1126 b 363 1202 399 1126 363 1161 b 441 1279 363 1244 399 1279 b 518 1202 482 1279 518 1244 b 441 1126 518 1161 482 1126 "},"Ṣ":{"ha":859,"x_min":0,"x_max":0,"o":"m 198 254 b 441 64 211 137 304 64 b 672 256 581 64 672 140 b 471 444 672 350 610 408 l 394 464 b 130 736 210 512 130 595 b 441 999 130 895 252 999 b 750 739 618 999 741 897 l 657 739 b 441 914 644 850 564 914 b 224 736 305 914 224 848 b 418 555 224 644 283 590 l 498 534 b 767 256 688 484 767 403 b 441 -20 767 90 637 -20 b 105 254 246 -20 117 85 m 441 -285 b 363 -208 399 -285 363 -250 b 441 -132 363 -167 399 -132 b 518 -208 482 -132 518 -167 b 441 -285 518 -250 482 -285 "},"Ș":{"ha":859,"x_min":0,"x_max":0,"o":"m 198 254 b 441 64 211 137 304 64 b 672 256 581 64 672 140 b 471 444 672 350 610 408 l 394 464 b 130 736 210 512 130 595 b 441 999 130 895 252 999 b 750 739 618 999 741 897 l 657 739 b 441 914 644 850 564 914 b 224 736 305 914 224 848 b 418 555 224 644 283 590 l 498 534 b 767 256 688 484 767 403 b 441 -20 767 90 637 -20 b 105 254 246 -20 117 85 m 324 -341 l 393 -94 l 488 -94 l 410 -341 "},"Ṩ":{"ha":859,"x_min":0,"x_max":0,"o":"m 198 254 b 441 64 211 137 304 64 b 672 256 581 64 672 140 b 471 444 672 350 610 408 l 394 464 b 130 736 210 512 130 595 b 441 999 130 895 252 999 b 750 739 618 999 741 897 l 657 739 b 441 914 644 850 564 914 b 224 736 305 914 224 848 b 418 555 224 644 283 590 l 498 534 b 767 256 688 484 767 403 b 441 -20 767 90 637 -20 b 105 254 246 -20 117 85 m 441 -298 b 363 -222 399 -298 363 -263 b 441 -145 363 -180 399 -145 b 518 -222 482 -145 518 -180 b 441 -298 518 -263 482 -298 m 441 1126 b 363 1202 399 1126 363 1161 b 441 1279 363 1244 399 1279 b 518 1202 482 1279 518 1244 b 441 1126 518 1161 482 1126 "},"Ṧ":{"ha":859,"x_min":0,"x_max":0,"o":"m 198 254 b 441 64 211 137 304 64 b 672 256 581 64 672 140 b 471 444 672 350 610 408 l 394 464 b 130 736 210 512 130 595 b 441 999 130 895 252 999 b 750 739 618 999 741 897 l 657 739 b 441 914 644 850 564 914 b 224 736 305 914 224 848 b 418 555 224 644 283 590 l 498 534 b 767 256 688 484 767 403 b 441 -20 767 90 637 -20 b 105 254 246 -20 117 85 m 441 1254 b 370 1324 401 1254 370 1285 b 441 1395 370 1364 401 1395 b 511 1324 480 1395 511 1364 b 441 1254 511 1285 480 1254 m 391 1069 l 198 1221 l 315 1221 l 437 1122 l 445 1122 l 567 1221 l 684 1221 l 490 1069 "},"Ŝ":{"ha":859,"x_min":0,"x_max":0,"o":"m 198 254 b 441 64 211 137 304 64 b 672 256 581 64 672 140 b 471 444 672 350 610 408 l 394 464 b 130 736 210 512 130 595 b 441 999 130 895 252 999 b 750 739 618 999 741 897 l 657 739 b 441 914 644 850 564 914 b 224 736 305 914 224 848 b 418 555 224 644 283 590 l 498 534 b 767 256 688 484 767 403 b 441 -20 767 90 637 -20 b 105 254 246 -20 117 85 m 679 1097 l 574 1097 l 445 1234 l 437 1234 l 308 1097 l 203 1097 l 399 1298 l 483 1298 "},"Ṥ":{"ha":859,"x_min":0,"x_max":0,"o":"m 198 254 b 441 64 211 137 304 64 b 672 256 581 64 672 140 b 471 444 672 350 610 408 l 394 464 b 130 736 210 512 130 595 b 441 999 130 895 252 999 b 750 739 618 999 741 897 l 657 739 b 441 914 644 850 564 914 b 224 736 305 914 224 848 b 418 555 224 644 283 590 l 498 534 b 767 256 688 484 767 403 b 441 -20 767 90 637 -20 b 105 254 246 -20 117 85 m 637 1298 l 755 1298 l 534 1097 l 427 1097 m 343 1164 b 266 1241 302 1164 266 1200 b 343 1318 266 1282 302 1318 b 420 1241 385 1318 420 1282 b 343 1164 420 1200 385 1164 "},"Ś":{"ha":859,"x_min":0,"x_max":0,"o":"m 198 254 b 441 64 211 137 304 64 b 672 256 581 64 672 140 b 471 444 672 350 610 408 l 394 464 b 130 736 210 512 130 595 b 441 999 130 895 252 999 b 750 739 618 999 741 897 l 657 739 b 441 914 644 850 564 914 b 224 736 305 914 224 848 b 418 555 224 644 283 590 l 498 534 b 767 256 688 484 767 403 b 441 -20 767 90 637 -20 b 105 254 246 -20 117 85 m 578 1298 l 696 1298 l 475 1097 l 368 1097 "},"T":{"ha":859,"x_min":0,"x_max":0,"o":"m 383 0 l 383 895 l 82 895 l 82 979 l 777 979 l 777 895 l 475 895 l 475 0 "},"Ṱ":{"ha":859,"x_min":0,"x_max":0,"o":"m 383 0 l 383 895 l 82 895 l 82 979 l 777 979 l 777 895 l 475 895 l 475 0 m 486 -115 l 673 -342 l 558 -342 l 434 -182 l 425 -182 l 300 -342 l 185 -342 l 372 -115 "},"Ṭ":{"ha":859,"x_min":0,"x_max":0,"o":"m 383 0 l 383 895 l 82 895 l 82 979 l 777 979 l 777 895 l 475 895 l 475 0 m 429 -298 b 352 -222 388 -298 352 -263 b 429 -145 352 -180 388 -145 b 507 -222 471 -145 507 -180 b 429 -298 507 -263 471 -298 "},"Ț":{"ha":859,"x_min":0,"x_max":0,"o":"m 383 0 l 383 895 l 82 895 l 82 979 l 777 979 l 777 895 l 475 895 l 475 0 m 313 -341 l 382 -94 l 477 -94 l 398 -341 "},"Ṫ":{"ha":859,"x_min":0,"x_max":0,"o":"m 383 0 l 383 895 l 82 895 l 82 979 l 777 979 l 777 895 l 475 895 l 475 0 m 429 1126 b 352 1202 388 1126 352 1161 b 429 1279 352 1244 388 1279 b 507 1202 471 1279 507 1244 b 429 1126 507 1161 471 1126 "},"Ţ":{"ha":859,"x_min":0,"x_max":0,"o":"m 475 895 l 475 0 l 477 0 l 440 -98 b 578 -205 529 -96 578 -134 b 422 -328 578 -279 515 -328 b 334 -316 389 -328 368 -326 l 334 -250 b 416 -260 351 -255 392 -260 b 496 -207 467 -260 496 -241 b 393 -159 496 -173 467 -159 l 355 -159 l 355 -111 l 398 0 l 383 0 l 383 895 l 82 895 l 82 979 l 777 979 l 777 895 "},"Ṯ":{"ha":859,"x_min":0,"x_max":0,"o":"m 383 0 l 383 895 l 82 895 l 82 979 l 777 979 l 777 895 l 475 895 l 475 0 m 213 -262 l 213 -182 l 646 -182 l 646 -262 "},"Ť":{"ha":859,"x_min":0,"x_max":0,"o":"m 471 1097 l 387 1097 l 191 1298 l 296 1298 l 425 1161 l 433 1161 l 562 1298 l 667 1298 m 383 0 l 383 895 l 82 895 l 82 979 l 777 979 l 777 895 l 475 895 l 475 0 "},"Ŧ":{"ha":859,"x_min":0,"x_max":0,"o":"m 475 895 l 475 534 l 682 534 l 682 460 l 475 460 l 475 0 l 383 0 l 383 460 l 177 460 l 177 534 l 383 534 l 383 895 l 82 895 l 82 979 l 777 979 l 777 895 "},"U":{"ha":859,"x_min":0,"x_max":0,"o":"m 429 65 b 675 342 584 65 675 168 l 675 979 l 767 979 l 767 336 b 429 -20 767 114 640 -20 b 92 336 218 -20 92 114 l 92 979 l 184 979 l 184 342 b 429 65 184 168 275 65 "},"Ù":{"ha":859,"x_min":0,"x_max":0,"o":"m 498 1097 l 391 1097 l 170 1298 l 288 1298 m 184 342 b 429 65 184 168 275 65 b 675 342 584 65 675 168 l 675 979 l 767 979 l 767 336 b 429 -20 767 114 640 -20 b 92 336 218 -20 92 114 l 92 979 l 184 979 "},"Ȕ":{"ha":859,"x_min":0,"x_max":0,"o":"m 635 1097 l 528 1097 l 307 1298 l 425 1298 m 388 1097 l 281 1097 l 60 1298 l 178 1298 m 184 342 b 429 65 184 168 275 65 b 675 342 584 65 675 168 l 675 979 l 767 979 l 767 336 b 429 -20 767 114 640 -20 b 92 336 218 -20 92 114 l 92 979 l 184 979 "},"Ú":{"ha":859,"x_min":0,"x_max":0,"o":"m 429 65 b 675 342 584 65 675 168 l 675 979 l 767 979 l 767 336 b 429 -20 767 114 640 -20 b 92 336 218 -20 92 114 l 92 979 l 184 979 l 184 342 b 429 65 184 168 275 65 m 565 1298 l 683 1298 l 462 1097 l 355 1097 "},"Ű":{"ha":859,"x_min":0,"x_max":0,"o":"m 429 65 b 675 342 584 65 675 168 l 675 979 l 767 979 l 767 336 b 429 -20 767 114 640 -20 b 92 336 218 -20 92 114 l 92 979 l 184 979 l 184 342 b 429 65 184 168 275 65 m 658 1298 l 776 1298 l 555 1097 l 448 1097 m 411 1298 l 529 1298 l 308 1097 l 201 1097 "},"Û":{"ha":859,"x_min":0,"x_max":0,"o":"m 429 65 b 675 342 584 65 675 168 l 675 979 l 767 979 l 767 336 b 429 -20 767 114 640 -20 b 92 336 218 -20 92 114 l 92 979 l 184 979 l 184 342 b 429 65 184 168 275 65 m 665 1097 l 560 1097 l 431 1234 l 423 1234 l 294 1097 l 189 1097 l 385 1298 l 469 1298 "},"Ǔ":{"ha":859,"x_min":0,"x_max":0,"o":"m 469 1097 l 385 1097 l 189 1298 l 294 1298 l 423 1161 l 431 1161 l 560 1298 l 665 1298 m 184 342 b 429 65 184 168 275 65 b 675 342 584 65 675 168 l 675 979 l 767 979 l 767 336 b 429 -20 767 114 640 -20 b 92 336 218 -20 92 114 l 92 979 l 184 979 "},"Ṷ":{"ha":859,"x_min":0,"x_max":0,"o":"m 429 65 b 675 342 584 65 675 168 l 675 979 l 767 979 l 767 336 b 429 -20 767 114 640 -20 b 92 336 218 -20 92 114 l 92 979 l 184 979 l 184 342 b 429 65 184 168 275 65 m 484 -115 l 671 -342 l 556 -342 l 432 -182 l 422 -182 l 298 -342 l 183 -342 l 370 -115 "},"Ü":{"ha":859,"x_min":0,"x_max":0,"o":"m 429 65 b 675 342 584 65 675 168 l 675 979 l 767 979 l 767 336 b 429 -20 767 114 640 -20 b 92 336 218 -20 92 114 l 92 979 l 184 979 l 184 342 b 429 65 184 168 275 65 m 298 1130 b 226 1202 260 1130 226 1164 b 298 1275 226 1241 260 1275 b 370 1202 336 1275 370 1241 b 298 1130 370 1164 336 1130 m 557 1130 b 485 1202 519 1130 485 1164 b 557 1275 485 1241 519 1275 b 629 1202 595 1275 629 1241 b 557 1130 629 1164 595 1130 "},"Ǜ":{"ha":859,"x_min":0,"x_max":0,"o":"m 304 1063 b 241 1126 269 1063 241 1091 b 304 1190 241 1162 269 1190 b 368 1126 340 1190 368 1162 b 304 1063 368 1091 340 1063 m 551 1063 b 488 1126 516 1063 488 1091 b 551 1190 488 1162 516 1190 b 614 1126 587 1190 614 1162 b 551 1063 614 1091 587 1063 m 512 1240 l 411 1240 l 246 1388 l 360 1388 m 184 342 b 429 65 184 168 275 65 b 675 342 584 65 675 168 l 675 979 l 767 979 l 767 336 b 429 -20 767 114 640 -20 b 92 336 218 -20 92 114 l 92 979 l 184 979 "},"Ǘ":{"ha":859,"x_min":0,"x_max":0,"o":"m 429 65 b 675 342 584 65 675 168 l 675 979 l 767 979 l 767 336 b 429 -20 767 114 640 -20 b 92 336 218 -20 92 114 l 92 979 l 184 979 l 184 342 b 429 65 184 168 275 65 m 496 1388 l 610 1388 l 445 1240 l 344 1240 m 304 1063 b 241 1126 269 1063 241 1091 b 304 1190 241 1162 269 1190 b 368 1126 340 1190 368 1162 b 304 1063 368 1091 340 1063 m 551 1063 b 488 1126 516 1063 488 1091 b 551 1190 488 1162 516 1190 b 614 1126 587 1190 614 1162 b 551 1063 614 1091 587 1063 "},"Ǖ":{"ha":859,"x_min":0,"x_max":0,"o":"m 551 1190 b 614 1126 587 1190 614 1162 b 551 1063 614 1091 587 1063 b 488 1126 516 1063 488 1091 b 551 1190 488 1162 516 1190 m 211 1364 l 644 1364 l 644 1298 l 211 1298 m 304 1190 b 368 1126 340 1190 368 1162 b 304 1063 368 1091 340 1063 b 241 1126 269 1063 241 1091 b 304 1190 241 1162 269 1190 m 184 342 b 429 65 184 168 275 65 b 675 342 584 65 675 168 l 675 979 l 767 979 l 767 336 b 429 -20 767 114 640 -20 b 92 336 218 -20 92 114 l 92 979 l 184 979 "},"Ǚ":{"ha":859,"x_min":0,"x_max":0,"o":"m 429 65 b 675 342 584 65 675 168 l 675 979 l 767 979 l 767 336 b 429 -20 767 114 640 -20 b 92 336 218 -20 92 114 l 92 979 l 184 979 l 184 342 b 429 65 184 168 275 65 m 378 1242 l 184 1394 l 301 1394 l 423 1295 l 431 1295 l 553 1394 l 670 1394 l 477 1242 m 304 1063 b 241 1126 269 1063 241 1091 b 304 1190 241 1162 269 1190 b 368 1126 340 1190 368 1162 b 304 1063 368 1091 340 1063 m 551 1063 b 488 1126 516 1063 488 1091 b 551 1190 488 1162 516 1190 b 614 1126 587 1190 614 1162 b 551 1063 614 1091 587 1063 "},"Ṳ":{"ha":859,"x_min":0,"x_max":0,"o":"m 429 65 b 675 342 584 65 675 168 l 675 979 l 767 979 l 767 336 b 429 -20 767 114 640 -20 b 92 336 218 -20 92 114 l 92 979 l 184 979 l 184 342 b 429 65 184 168 275 65 m 298 -294 b 226 -222 260 -294 226 -260 b 298 -149 226 -183 260 -149 b 370 -222 336 -149 370 -183 b 298 -294 370 -260 336 -294 m 557 -294 b 485 -222 519 -294 485 -260 b 557 -149 485 -183 519 -149 b 629 -222 595 -149 629 -183 b 557 -294 629 -260 595 -294 "},"Ṵ":{"ha":859,"x_min":0,"x_max":0,"o":"m 429 65 b 675 342 584 65 675 168 l 675 979 l 767 979 l 767 336 b 429 -20 767 114 640 -20 b 92 336 218 -20 92 114 l 92 979 l 184 979 l 184 342 b 429 65 184 168 275 65 m 328 -205 b 268 -317 285 -205 268 -236 l 184 -317 b 331 -127 184 -197 238 -127 b 526 -237 439 -127 467 -237 b 587 -126 570 -237 587 -206 l 670 -126 b 524 -316 670 -246 616 -316 b 328 -205 416 -316 388 -205 "},"Ủ":{"ha":859,"x_min":0,"x_max":0,"o":"m 429 65 b 675 342 584 65 675 168 l 675 979 l 767 979 l 767 336 b 429 -20 767 114 640 -20 b 92 336 218 -20 92 114 l 92 979 l 184 979 l 184 342 b 429 65 184 168 275 65 m 317 1293 b 402 1309 337 1302 372 1309 b 536 1198 484 1309 536 1266 b 432 1069 536 1143 494 1091 l 392 1120 b 460 1192 432 1134 460 1163 b 391 1242 460 1221 433 1242 b 317 1226 362 1242 334 1236 "},"Ŭ":{"ha":859,"x_min":0,"x_max":0,"o":"m 429 65 b 675 342 584 65 675 168 l 675 979 l 767 979 l 767 336 b 429 -20 767 114 640 -20 b 92 336 218 -20 92 114 l 92 979 l 184 979 l 184 342 b 429 65 184 168 275 65 m 283 1298 b 427 1163 283 1220 344 1163 b 571 1298 511 1163 571 1220 l 651 1298 b 427 1097 651 1179 559 1097 b 203 1298 296 1097 203 1179 "},"Ȗ":{"ha":859,"x_min":0,"x_max":0,"o":"m 203 1097 b 427 1298 203 1215 296 1298 b 651 1097 559 1298 651 1215 l 571 1097 b 427 1232 571 1175 511 1232 b 283 1097 344 1232 283 1175 m 184 342 b 429 65 184 168 275 65 b 675 342 584 65 675 168 l 675 979 l 767 979 l 767 336 b 429 -20 767 114 640 -20 b 92 336 218 -20 92 114 l 92 979 l 184 979 "},"Ṹ":{"ha":859,"x_min":0,"x_max":0,"o":"m 429 65 b 675 342 584 65 675 168 l 675 979 l 767 979 l 767 336 b 429 -20 767 114 640 -20 b 92 336 218 -20 92 114 l 92 979 l 184 979 l 184 342 b 429 65 184 168 275 65 m 485 1413 l 585 1413 l 473 1271 l 387 1271 m 520 1053 b 334 1146 406 1053 406 1146 b 269 1063 294 1146 271 1118 l 197 1063 b 334 1214 197 1154 252 1214 b 521 1122 449 1214 448 1122 b 586 1204 559 1122 583 1152 l 657 1204 b 520 1053 657 1116 601 1053 "},"Ụ":{"ha":859,"x_min":0,"x_max":0,"o":"m 429 65 b 675 342 584 65 675 168 l 675 979 l 767 979 l 767 336 b 429 -20 767 114 640 -20 b 92 336 218 -20 92 114 l 92 979 l 184 979 l 184 342 b 429 65 184 168 275 65 m 427 -298 b 350 -222 386 -298 350 -263 b 427 -145 350 -180 386 -145 b 505 -222 469 -145 505 -180 b 427 -298 505 -263 469 -298 "},"Ũ":{"ha":859,"x_min":0,"x_max":0,"o":"m 429 65 b 675 342 584 65 675 168 l 675 979 l 767 979 l 767 336 b 429 -20 767 114 640 -20 b 92 336 218 -20 92 114 l 92 979 l 184 979 l 184 342 b 429 65 184 168 275 65 m 526 1107 b 331 1219 420 1107 404 1219 b 262 1114 288 1219 264 1183 l 191 1114 b 329 1288 191 1221 244 1288 b 524 1175 439 1288 460 1175 b 593 1280 565 1175 590 1213 l 664 1280 b 526 1107 664 1175 609 1107 "},"Ū":{"ha":859,"x_min":0,"x_max":0,"o":"m 429 65 b 675 342 584 65 675 168 l 675 979 l 767 979 l 767 336 b 429 -20 767 114 640 -20 b 92 336 218 -20 92 114 l 92 979 l 184 979 l 184 342 b 429 65 184 168 275 65 m 211 1162 l 211 1242 l 644 1242 l 644 1162 "},"Ṻ":{"ha":859,"x_min":0,"x_max":0,"o":"m 429 65 b 675 342 584 65 675 168 l 675 979 l 767 979 l 767 336 b 429 -20 767 114 640 -20 b 92 336 218 -20 92 114 l 92 979 l 184 979 l 184 342 b 429 65 184 168 275 65 m 304 1272 b 241 1335 269 1272 241 1299 b 304 1398 241 1370 269 1398 b 368 1335 340 1398 368 1370 b 304 1272 368 1299 340 1272 m 211 1163 l 644 1163 l 644 1097 l 211 1097 m 551 1272 b 488 1335 516 1272 488 1299 b 551 1398 488 1370 516 1398 b 614 1335 587 1398 614 1370 b 551 1272 614 1299 587 1272 "},"Ů":{"ha":859,"x_min":0,"x_max":0,"o":"m 429 65 b 675 342 584 65 675 168 l 675 979 l 767 979 l 767 336 b 429 -20 767 114 640 -20 b 92 336 218 -20 92 114 l 92 979 l 184 979 l 184 342 b 429 65 184 168 275 65 m 427 1061 b 298 1189 355 1061 298 1118 b 427 1317 298 1260 355 1317 b 556 1189 499 1317 556 1260 b 427 1061 556 1118 499 1061 m 427 1118 b 498 1189 468 1118 498 1147 b 427 1260 498 1230 468 1260 b 356 1189 387 1260 356 1230 b 427 1118 356 1147 387 1118 "},"Ų":{"ha":859,"x_min":0,"x_max":0,"o":"m 574 -282 b 420 -152 484 -282 420 -228 b 515 -7 420 -96 453 -46 l 515 2 b 422 -20 492 -12 456 -20 b 92 336 219 -20 92 117 l 92 979 l 184 979 l 184 342 b 429 65 184 168 275 65 b 675 342 584 65 675 168 l 675 979 l 767 979 l 767 336 b 618 19 767 191 720 91 b 508 -128 541 -35 508 -79 b 591 -207 508 -175 541 -207 b 637 -202 608 -207 625 -205 l 637 -273 b 574 -282 620 -279 597 -282 "},"Ư":{"ha":859,"x_min":0,"x_max":0,"o":"m 429 -20 b 92 336 218 -20 92 114 l 92 979 l 184 979 l 184 342 b 429 65 184 168 275 65 b 675 342 584 65 675 168 l 675 979 l 785 979 b 853 1042 831 979 853 999 l 853 1149 l 936 1149 l 936 1026 b 808 911 936 954 888 911 l 767 911 l 767 336 b 429 -20 767 114 640 -20 "},"Ừ":{"ha":859,"x_min":0,"x_max":0,"o":"m 767 336 b 429 -20 767 114 640 -20 b 92 336 218 -20 92 114 l 92 979 l 184 979 l 184 342 b 429 65 184 168 275 65 b 675 342 584 65 675 168 l 675 979 l 785 979 b 853 1042 831 979 853 999 l 853 1149 l 936 1149 l 936 1026 b 808 911 936 954 888 911 l 767 911 m 512 1097 l 405 1097 l 184 1298 l 302 1298 "},"Ứ":{"ha":859,"x_min":0,"x_max":0,"o":"m 550 1298 l 668 1298 l 447 1097 l 340 1097 m 429 -20 b 92 336 218 -20 92 114 l 92 979 l 184 979 l 184 342 b 429 65 184 168 275 65 b 675 342 584 65 675 168 l 675 979 l 785 979 b 853 1042 831 979 853 999 l 853 1149 l 936 1149 l 936 1026 b 808 911 936 954 888 911 l 767 911 l 767 336 b 429 -20 767 114 640 -20 "},"Ự":{"ha":859,"x_min":0,"x_max":0,"o":"m 429 -298 b 352 -222 388 -298 352 -263 b 429 -145 352 -180 388 -145 b 507 -222 471 -145 507 -180 b 429 -298 507 -263 471 -298 m 429 -20 b 92 336 218 -20 92 114 l 92 979 l 184 979 l 184 342 b 429 65 184 168 275 65 b 675 342 584 65 675 168 l 675 979 l 785 979 b 853 1042 831 979 853 999 l 853 1149 l 936 1149 l 936 1026 b 808 911 936 954 888 911 l 767 911 l 767 336 b 429 -20 767 114 640 -20 "},"Ử":{"ha":859,"x_min":0,"x_max":0,"o":"m 319 1293 b 404 1309 339 1302 374 1309 b 538 1198 486 1309 538 1266 b 434 1069 538 1143 496 1091 l 394 1120 b 462 1192 434 1134 462 1163 b 393 1242 462 1221 435 1242 b 319 1226 364 1242 336 1236 m 429 -20 b 92 336 218 -20 92 114 l 92 979 l 184 979 l 184 342 b 429 65 184 168 275 65 b 675 342 584 65 675 168 l 675 979 l 785 979 b 853 1042 831 979 853 999 l 853 1149 l 936 1149 l 936 1026 b 808 911 936 954 888 911 l 767 911 l 767 336 b 429 -20 767 114 640 -20 "},"Ữ":{"ha":859,"x_min":0,"x_max":0,"o":"m 528 1107 b 333 1219 422 1107 406 1219 b 264 1114 290 1219 267 1183 l 193 1114 b 331 1288 193 1221 246 1288 b 526 1175 441 1288 463 1175 b 595 1280 567 1175 592 1213 l 666 1280 b 528 1107 666 1175 611 1107 m 429 -20 b 92 336 218 -20 92 114 l 92 979 l 184 979 l 184 342 b 429 65 184 168 275 65 b 675 342 584 65 675 168 l 675 979 l 785 979 b 853 1042 831 979 853 999 l 853 1149 l 936 1149 l 936 1026 b 808 911 936 954 888 911 l 767 911 l 767 336 b 429 -20 767 114 640 -20 "},"V":{"ha":859,"x_min":0,"x_max":0,"o":"m 703 979 l 798 979 l 475 0 l 384 0 l 61 979 l 155 979 l 429 121 l 430 121 "},"Ṽ":{"ha":859,"x_min":0,"x_max":0,"o":"m 703 979 l 798 979 l 475 0 l 384 0 l 61 979 l 155 979 l 429 121 l 430 121 m 528 1107 b 333 1219 422 1107 406 1219 b 264 1114 290 1219 267 1183 l 193 1114 b 331 1288 193 1221 246 1288 b 526 1175 441 1288 463 1175 b 595 1280 567 1175 592 1213 l 666 1280 b 528 1107 666 1175 611 1107 "},"Ṿ":{"ha":859,"x_min":0,"x_max":0,"o":"m 703 979 l 798 979 l 475 0 l 384 0 l 61 979 l 155 979 l 429 121 l 430 121 m 429 -298 b 352 -222 388 -298 352 -263 b 429 -145 352 -180 388 -145 b 507 -222 471 -145 507 -180 b 429 -298 507 -263 471 -298 "},"W":{"ha":859,"x_min":0,"x_max":0,"o":"m 426 621 l 266 0 l 174 0 l 0 979 l 90 979 l 223 144 l 229 144 l 383 755 l 475 755 l 629 144 l 635 144 l 768 979 l 859 979 l 684 0 l 593 0 l 433 621 "},"Ẁ":{"ha":859,"x_min":0,"x_max":0,"o":"m 426 621 l 266 0 l 174 0 l 0 979 l 90 979 l 223 144 l 229 144 l 383 755 l 475 755 l 629 144 l 635 144 l 768 979 l 859 979 l 684 0 l 593 0 l 433 621 m 500 1097 l 393 1097 l 172 1298 l 290 1298 "},"Ẃ":{"ha":859,"x_min":0,"x_max":0,"o":"m 567 1298 l 685 1298 l 464 1097 l 357 1097 m 426 621 l 266 0 l 174 0 l 0 979 l 90 979 l 223 144 l 229 144 l 383 755 l 475 755 l 629 144 l 635 144 l 768 979 l 859 979 l 684 0 l 593 0 l 433 621 "},"Ẇ":{"ha":859,"x_min":0,"x_max":0,"o":"m 429 1126 b 352 1202 388 1126 352 1161 b 429 1279 352 1244 388 1279 b 507 1202 471 1279 507 1244 b 429 1126 507 1161 471 1126 m 426 621 l 266 0 l 174 0 l 0 979 l 90 979 l 223 144 l 229 144 l 383 755 l 475 755 l 629 144 l 635 144 l 768 979 l 859 979 l 684 0 l 593 0 l 433 621 "},"Ẉ":{"ha":859,"x_min":0,"x_max":0,"o":"m 429 -298 b 352 -222 388 -298 352 -263 b 429 -145 352 -180 388 -145 b 507 -222 471 -145 507 -180 b 429 -298 507 -263 471 -298 m 426 621 l 266 0 l 174 0 l 0 979 l 90 979 l 223 144 l 229 144 l 383 755 l 475 755 l 629 144 l 635 144 l 768 979 l 859 979 l 684 0 l 593 0 l 433 621 "},"Ẅ":{"ha":859,"x_min":0,"x_max":0,"o":"m 559 1130 b 487 1202 521 1130 487 1164 b 559 1275 487 1241 521 1275 b 631 1202 597 1275 631 1241 b 559 1130 631 1164 597 1130 m 300 1130 b 228 1202 262 1130 228 1164 b 300 1275 228 1241 262 1275 b 372 1202 338 1275 372 1241 b 300 1130 372 1164 338 1130 m 426 621 l 266 0 l 174 0 l 0 979 l 90 979 l 223 144 l 229 144 l 383 755 l 475 755 l 629 144 l 635 144 l 768 979 l 859 979 l 684 0 l 593 0 l 433 621 "},"Ŵ":{"ha":859,"x_min":0,"x_max":0,"o":"m 667 1097 l 562 1097 l 433 1234 l 425 1234 l 296 1097 l 191 1097 l 387 1298 l 471 1298 m 426 621 l 266 0 l 174 0 l 0 979 l 90 979 l 223 144 l 229 144 l 383 755 l 475 755 l 629 144 l 635 144 l 768 979 l 859 979 l 684 0 l 593 0 l 433 621 "},"X":{"ha":859,"x_min":0,"x_max":0,"o":"m 376 491 l 61 979 l 168 979 l 432 566 l 435 566 l 702 979 l 800 979 l 479 488 l 795 0 l 688 0 l 426 411 l 422 411 l 157 0 l 58 0 "},"Ẋ":{"ha":859,"x_min":0,"x_max":0,"o":"m 376 491 l 61 979 l 168 979 l 432 566 l 435 566 l 702 979 l 800 979 l 479 488 l 795 0 l 688 0 l 426 411 l 422 411 l 157 0 l 58 0 m 429 1126 b 352 1202 388 1126 352 1161 b 429 1279 352 1244 388 1279 b 507 1202 471 1279 507 1244 b 429 1126 507 1161 471 1126 "},"Ẍ":{"ha":859,"x_min":0,"x_max":0,"o":"m 376 491 l 61 979 l 168 979 l 432 566 l 435 566 l 702 979 l 800 979 l 479 488 l 795 0 l 688 0 l 426 411 l 422 411 l 157 0 l 58 0 m 300 1130 b 228 1202 262 1130 228 1164 b 300 1275 228 1241 262 1275 b 372 1202 338 1275 372 1241 b 300 1130 372 1164 338 1130 m 559 1130 b 487 1202 521 1130 487 1164 b 559 1275 487 1241 521 1275 b 631 1202 597 1275 631 1241 b 559 1130 631 1164 597 1130 "},"Y":{"ha":859,"x_min":0,"x_max":0,"o":"m 383 0 l 383 423 l 52 979 l 159 979 l 425 517 l 433 517 l 700 979 l 806 979 l 475 423 l 475 0 "},"Ỳ":{"ha":859,"x_min":0,"x_max":0,"o":"m 500 1097 l 393 1097 l 172 1298 l 290 1298 m 383 0 l 383 423 l 52 979 l 159 979 l 425 517 l 433 517 l 700 979 l 806 979 l 475 423 l 475 0 "},"Ý":{"ha":859,"x_min":0,"x_max":0,"o":"m 383 0 l 383 423 l 52 979 l 159 979 l 425 517 l 433 517 l 700 979 l 806 979 l 475 423 l 475 0 m 567 1298 l 685 1298 l 464 1097 l 357 1097 "},"Ẏ":{"ha":859,"x_min":0,"x_max":0,"o":"m 383 0 l 383 423 l 52 979 l 159 979 l 425 517 l 433 517 l 700 979 l 806 979 l 475 423 l 475 0 m 429 1126 b 352 1202 388 1126 352 1161 b 429 1279 352 1244 388 1279 b 507 1202 471 1279 507 1244 b 429 1126 507 1161 471 1126 "},"Ỵ":{"ha":859,"x_min":0,"x_max":0,"o":"m 383 0 l 383 423 l 52 979 l 159 979 l 425 517 l 433 517 l 700 979 l 806 979 l 475 423 l 475 0 m 429 -298 b 352 -222 388 -298 352 -263 b 429 -145 352 -180 388 -145 b 507 -222 471 -145 507 -180 b 429 -298 507 -263 471 -298 "},"Ÿ":{"ha":859,"x_min":0,"x_max":0,"o":"m 383 0 l 383 423 l 52 979 l 159 979 l 425 517 l 433 517 l 700 979 l 806 979 l 475 423 l 475 0 m 300 1130 b 228 1202 262 1130 228 1164 b 300 1275 228 1241 262 1275 b 372 1202 338 1275 372 1241 b 300 1130 372 1164 338 1130 m 559 1130 b 487 1202 521 1130 487 1164 b 559 1275 487 1241 521 1275 b 631 1202 597 1275 631 1241 b 559 1130 631 1164 597 1130 "},"Ỹ":{"ha":859,"x_min":0,"x_max":0,"o":"m 383 0 l 383 423 l 52 979 l 159 979 l 425 517 l 433 517 l 700 979 l 806 979 l 475 423 l 475 0 m 528 1107 b 333 1219 422 1107 406 1219 b 264 1114 290 1219 267 1183 l 193 1114 b 331 1288 193 1221 246 1288 b 526 1175 441 1288 463 1175 b 595 1280 567 1175 592 1213 l 666 1280 b 528 1107 666 1175 611 1107 "},"Ŷ":{"ha":859,"x_min":0,"x_max":0,"o":"m 383 0 l 383 423 l 52 979 l 159 979 l 425 517 l 433 517 l 700 979 l 806 979 l 475 423 l 475 0 m 667 1097 l 562 1097 l 433 1234 l 425 1234 l 296 1097 l 191 1097 l 387 1298 l 471 1298 "},"Ȳ":{"ha":859,"x_min":0,"x_max":0,"o":"m 383 0 l 383 423 l 52 979 l 159 979 l 425 517 l 433 517 l 700 979 l 806 979 l 475 423 l 475 0 m 213 1162 l 213 1242 l 646 1242 l 646 1162 "},"Ỷ":{"ha":859,"x_min":0,"x_max":0,"o":"m 383 0 l 383 423 l 52 979 l 159 979 l 425 517 l 433 517 l 700 979 l 806 979 l 475 423 l 475 0 m 319 1293 b 404 1309 339 1302 374 1309 b 538 1198 486 1309 538 1266 b 434 1069 538 1143 496 1091 l 394 1120 b 462 1192 434 1134 462 1163 b 393 1242 462 1221 435 1242 b 319 1226 364 1242 336 1236 "},"Z":{"ha":859,"x_min":0,"x_max":0,"o":"m 94 67 l 633 886 l 633 895 l 113 895 l 113 979 l 753 979 l 753 911 l 216 92 l 216 84 l 761 84 l 761 0 l 94 0 "},"Ź":{"ha":859,"x_min":0,"x_max":0,"o":"m 94 67 l 633 886 l 633 895 l 113 895 l 113 979 l 753 979 l 753 911 l 216 92 l 216 84 l 761 84 l 761 0 l 94 0 m 565 1298 l 683 1298 l 462 1097 l 355 1097 "},"Ž":{"ha":859,"x_min":0,"x_max":0,"o":"m 469 1097 l 385 1097 l 189 1298 l 294 1298 l 423 1161 l 431 1161 l 560 1298 l 665 1298 m 94 67 l 633 886 l 633 895 l 113 895 l 113 979 l 753 979 l 753 911 l 216 92 l 216 84 l 761 84 l 761 0 l 94 0 "},"Ẑ":{"ha":859,"x_min":0,"x_max":0,"o":"m 94 67 l 633 886 l 633 895 l 113 895 l 113 979 l 753 979 l 753 911 l 216 92 l 216 84 l 761 84 l 761 0 l 94 0 m 665 1097 l 560 1097 l 431 1234 l 423 1234 l 294 1097 l 189 1097 l 385 1298 l 469 1298 "},"Ẕ":{"ha":859,"x_min":0,"x_max":0,"o":"m 94 67 l 633 886 l 633 895 l 113 895 l 113 979 l 753 979 l 753 911 l 216 92 l 216 84 l 761 84 l 761 0 l 94 0 m 213 -262 l 213 -182 l 646 -182 l 646 -262 "},"Ẓ":{"ha":859,"x_min":0,"x_max":0,"o":"m 94 67 l 633 886 l 633 895 l 113 895 l 113 979 l 753 979 l 753 911 l 216 92 l 216 84 l 761 84 l 761 0 l 94 0 m 429 -298 b 352 -222 388 -298 352 -263 b 429 -145 352 -180 388 -145 b 507 -222 471 -145 507 -180 b 429 -298 507 -263 471 -298 "},"Ż":{"ha":859,"x_min":0,"x_max":0,"o":"m 94 67 l 633 886 l 633 895 l 113 895 l 113 979 l 753 979 l 753 911 l 216 92 l 216 84 l 761 84 l 761 0 l 94 0 m 427 1126 b 350 1202 386 1126 350 1161 b 427 1279 350 1244 386 1279 b 505 1202 469 1279 505 1244 b 427 1126 505 1161 469 1126 "},"Æ":{"ha":859,"x_min":0,"x_max":0,"o":"m 444 399 l 444 897 l 380 897 l 225 399 m 529 895 l 529 536 l 808 536 l 808 452 l 529 452 l 529 84 l 833 84 l 833 0 l 444 0 l 444 320 l 201 320 l 101 0 l 3 0 l 317 979 l 833 979 l 833 895 "},"Ǣ":{"ha":859,"x_min":0,"x_max":0,"o":"m 791 1162 l 359 1162 l 359 1242 l 791 1242 m 444 399 l 444 897 l 380 897 l 225 399 m 529 895 l 529 536 l 808 536 l 808 452 l 529 452 l 529 84 l 833 84 l 833 0 l 444 0 l 444 320 l 201 320 l 101 0 l 3 0 l 317 979 l 833 979 l 833 895 "},"Ǽ":{"ha":859,"x_min":0,"x_max":0,"o":"m 610 1097 l 503 1097 l 713 1298 l 831 1298 m 444 399 l 444 897 l 380 897 l 225 399 m 529 895 l 529 536 l 808 536 l 808 452 l 529 452 l 529 84 l 833 84 l 833 0 l 444 0 l 444 320 l 201 320 l 101 0 l 3 0 l 317 979 l 833 979 l 833 895 "},"Œ":{"ha":859,"x_min":0,"x_max":0,"o":"m 105 415 b 276 50 105 157 155 50 b 450 436 394 50 450 174 l 450 543 b 276 930 450 806 394 930 b 105 564 155 930 105 822 m 456 139 b 260 -22 430 33 363 -22 b 10 414 92 -22 10 121 l 10 565 b 260 1002 10 859 92 1002 b 456 840 363 1002 429 947 l 467 840 l 467 979 l 851 979 l 851 900 l 545 900 l 545 543 l 828 543 l 828 462 l 545 462 l 545 78 l 851 78 l 851 0 l 467 0 l 467 139 l 456 139 "},"Ð":{"ha":859,"x_min":0,"x_max":0,"o":"m 372 84 b 700 489 594 84 700 214 b 372 895 700 764 594 895 l 211 895 l 211 544 l 395 544 l 395 460 l 211 460 l 211 84 m 378 979 b 795 489 656 979 795 816 b 378 0 795 163 656 0 l 118 0 l 118 460 l 24 460 l 24 544 l 118 544 l 118 979 "},"Þ":{"ha":859,"x_min":0,"x_max":0,"o":"m 224 979 l 224 789 l 485 789 b 752 521 649 789 752 679 b 486 250 752 361 648 250 l 224 250 l 224 0 l 132 0 l 132 979 m 224 334 l 458 334 b 656 521 593 334 656 397 b 458 705 656 644 593 705 l 224 705 "},"Α":{"ha":859,"x_min":0,"x_max":0,"o":"m 582 380 l 430 857 l 429 857 l 277 380 m 607 300 l 252 300 l 156 0 l 61 0 l 384 979 l 475 979 l 798 0 l 703 0 "},"Β":{"ha":859,"x_min":0,"x_max":0,"o":"m 138 0 l 138 979 l 439 979 b 724 737 617 979 724 888 b 558 522 724 628 656 540 l 558 513 b 774 271 690 498 774 404 b 440 0 774 100 651 0 m 231 547 l 399 547 b 630 722 550 547 630 608 b 422 897 630 833 554 897 l 231 897 m 427 82 b 679 275 591 82 679 150 b 422 467 679 401 591 467 l 231 467 l 231 82 "},"Γ":{"ha":859,"x_min":0,"x_max":0,"o":"m 182 979 l 744 979 l 744 895 l 275 895 l 275 0 l 182 0 "},"Δ":{"ha":859,"x_min":0,"x_max":0,"o":"m 69 66 l 384 979 l 475 979 l 789 66 l 789 0 l 69 0 m 687 84 l 687 92 l 430 857 l 429 857 l 172 92 l 172 84 "},"Ε":{"ha":859,"x_min":0,"x_max":0,"o":"m 727 0 l 164 0 l 164 979 l 727 979 l 727 895 l 257 895 l 257 543 l 702 543 l 702 460 l 257 460 l 257 84 l 727 84 "},"Ζ":{"ha":859,"x_min":0,"x_max":0,"o":"m 94 67 l 633 886 l 633 895 l 113 895 l 113 979 l 753 979 l 753 911 l 216 92 l 216 84 l 761 84 l 761 0 l 94 0 "},"Η":{"ha":859,"x_min":0,"x_max":0,"o":"m 653 0 l 653 459 l 205 459 l 205 0 l 113 0 l 113 979 l 205 979 l 205 543 l 653 543 l 653 979 l 746 979 l 746 0 "},"Θ":{"ha":859,"x_min":0,"x_max":0,"o":"m 429 66 b 702 408 595 66 702 199 l 702 570 b 429 913 702 779 595 913 b 157 570 263 913 157 779 l 157 408 b 429 66 157 199 263 66 m 795 408 b 429 -20 795 146 653 -20 b 64 408 205 -20 64 146 l 64 570 b 429 999 64 833 205 999 b 795 570 653 999 795 833 l 795 408 m 246 532 l 612 532 l 612 449 l 246 449 "},"Ι":{"ha":859,"x_min":0,"x_max":0,"o":"m 186 0 l 186 80 l 383 80 l 383 899 l 186 899 l 186 979 l 672 979 l 672 899 l 475 899 l 475 80 l 672 80 l 672 0 "},"Κ":{"ha":859,"x_min":0,"x_max":0,"o":"m 161 0 l 161 979 l 254 979 l 254 473 l 262 473 l 678 979 l 794 979 l 423 546 l 834 0 l 714 0 l 361 475 l 254 349 l 254 0 "},"Λ":{"ha":859,"x_min":0,"x_max":0,"o":"m 384 979 l 475 979 l 784 0 l 689 0 l 430 857 l 429 857 l 170 0 l 75 0 "},"Μ":{"ha":859,"x_min":0,"x_max":0,"o":"m 71 0 l 71 979 l 177 979 l 426 352 l 433 352 l 681 979 l 788 979 l 788 0 l 701 0 l 701 798 l 694 798 l 469 230 l 389 230 l 164 798 l 157 798 l 157 0 "},"Ν":{"ha":859,"x_min":0,"x_max":0,"o":"m 110 0 l 110 979 l 204 979 l 653 166 l 662 166 l 662 979 l 749 979 l 749 0 l 656 0 l 205 813 l 197 813 l 197 0 "},"Ξ":{"ha":859,"x_min":0,"x_max":0,"o":"m 112 87 l 747 87 l 747 0 l 112 0 m 165 544 l 694 544 l 694 458 l 165 458 m 112 979 l 747 979 l 747 892 l 112 892 "},"Ο":{"ha":859,"x_min":0,"x_max":0,"o":"m 781 408 b 429 -20 781 138 647 -20 b 77 408 212 -20 77 138 l 77 570 b 429 999 77 840 212 999 b 781 570 647 999 781 840 l 781 408 m 429 66 b 688 408 589 66 688 191 l 688 570 b 429 913 688 787 589 913 b 170 570 269 913 170 787 l 170 408 b 429 66 170 191 269 66 "},"Π":{"ha":859,"x_min":0,"x_max":0,"o":"m 119 979 l 740 979 l 740 0 l 647 0 l 647 895 l 212 895 l 212 0 l 119 0 "},"Ρ":{"ha":859,"x_min":0,"x_max":0,"o":"m 460 979 b 766 674 644 979 766 857 b 460 370 766 492 644 370 l 239 370 l 239 0 l 146 0 l 146 979 m 239 452 l 437 452 b 672 674 586 452 672 534 b 437 896 672 814 586 896 l 239 896 "},"Σ":{"ha":859,"x_min":0,"x_max":0,"o":"m 94 69 l 359 495 l 106 900 l 106 979 l 709 979 l 709 895 l 223 895 l 223 886 l 457 507 l 457 490 l 209 92 l 209 84 l 721 84 l 721 0 l 94 0 "},"Τ":{"ha":859,"x_min":0,"x_max":0,"o":"m 383 0 l 383 895 l 82 895 l 82 979 l 777 979 l 777 895 l 475 895 l 475 0 "},"Υ":{"ha":859,"x_min":0,"x_max":0,"o":"m 383 0 l 383 423 l 52 979 l 159 979 l 425 517 l 433 517 l 700 979 l 806 979 l 475 423 l 475 0 "},"Φ":{"ha":859,"x_min":0,"x_max":0,"o":"m 383 53 b 42 488 161 60 42 212 b 383 924 42 764 161 916 l 383 1014 l 475 1014 l 475 924 b 817 488 698 916 817 764 b 475 53 817 212 698 60 l 475 -39 l 383 -39 m 385 842 b 135 488 218 836 135 720 b 385 136 135 256 218 140 m 473 136 b 724 488 640 140 724 256 b 473 842 724 720 640 836 l 473 136 "},"Χ":{"ha":859,"x_min":0,"x_max":0,"o":"m 376 491 l 61 979 l 168 979 l 432 566 l 435 566 l 702 979 l 800 979 l 479 488 l 795 0 l 688 0 l 426 411 l 422 411 l 157 0 l 58 0 "},"Ψ":{"ha":859,"x_min":0,"x_max":0,"o":"m 383 234 b 60 613 162 235 60 354 l 60 979 l 153 979 l 153 616 b 383 319 153 399 212 322 l 383 979 l 475 979 l 475 319 b 706 616 646 322 706 399 l 706 979 l 798 979 l 798 613 b 475 234 798 354 696 234 l 475 0 l 383 0 "},"Ω":{"ha":859,"x_min":0,"x_max":0,"o":"m 429 999 b 820 534 677 999 820 829 b 586 92 820 328 736 170 l 586 84 l 827 84 l 827 0 l 477 0 l 477 109 b 727 532 645 195 727 331 b 429 913 727 784 625 913 b 132 532 233 913 132 784 b 382 109 132 331 214 195 l 382 0 l 31 0 l 31 84 l 273 84 l 273 92 b 39 534 122 170 39 328 b 429 999 39 829 181 999 "},"Ά":{"ha":859,"x_min":0,"x_max":0,"o":"m 171 757 l 92 757 l 152 979 l 255 979 m 576 380 l 450 841 l 449 841 l 323 380 m 597 300 l 302 300 l 220 0 l 125 0 l 404 979 l 495 979 l 774 0 l 679 0 "},"Έ":{"ha":859,"x_min":0,"x_max":0,"o":"m 743 0 l 302 0 l 302 979 l 743 979 l 743 895 l 395 895 l 395 543 l 718 543 l 718 460 l 395 460 l 395 84 l 743 84 m 109 979 l 212 979 l 127 757 l 49 757 "},"Ή":{"ha":859,"x_min":0,"x_max":0,"o":"m 699 0 l 699 460 l 372 460 l 372 0 l 285 0 l 285 979 l 372 979 l 372 543 l 699 543 l 699 979 l 785 979 l 785 0 m 92 979 l 195 979 l 111 757 l 33 757 "},"Ί":{"ha":859,"x_min":0,"x_max":0,"o":"m 317 0 l 317 80 l 514 80 l 514 899 l 317 899 l 317 979 l 803 979 l 803 899 l 606 899 l 606 80 l 803 80 l 803 0 m 138 979 l 241 979 l 157 757 l 78 757 "},"Ϊ":{"ha":859,"x_min":0,"x_max":0,"o":"m 186 0 l 186 80 l 383 80 l 383 899 l 186 899 l 186 979 l 672 979 l 672 899 l 475 899 l 475 80 l 672 80 l 672 0 m 300 1130 b 228 1202 262 1130 228 1164 b 300 1275 228 1241 262 1275 b 372 1202 338 1275 372 1241 b 300 1130 372 1164 338 1130 m 559 1130 b 487 1202 521 1130 487 1164 b 559 1275 487 1241 521 1275 b 631 1202 597 1275 631 1241 b 559 1130 631 1164 597 1130 "},"Ό":{"ha":859,"x_min":0,"x_max":0,"o":"m 817 408 b 519 -20 817 136 708 -20 b 221 408 330 -20 221 136 l 221 570 b 519 999 221 842 330 999 b 817 570 708 999 817 842 l 817 408 m 519 66 b 724 408 650 66 724 189 l 724 570 b 519 913 724 790 650 913 b 314 570 387 913 314 790 l 314 408 b 519 66 314 189 387 66 m 108 979 l 211 979 l 127 757 l 48 757 "},"Ύ":{"ha":859,"x_min":0,"x_max":0,"o":"m 491 0 l 491 423 l 239 979 l 346 979 l 533 517 l 541 517 l 727 979 l 833 979 l 583 423 l 583 0 m 99 979 l 202 979 l 118 757 l 39 757 "},"Ϋ":{"ha":859,"x_min":0,"x_max":0,"o":"m 383 0 l 383 423 l 52 979 l 159 979 l 425 517 l 433 517 l 700 979 l 806 979 l 475 423 l 475 0 m 300 1130 b 228 1202 262 1130 228 1164 b 300 1275 228 1241 262 1275 b 372 1202 338 1275 372 1241 b 300 1130 372 1164 338 1130 m 559 1130 b 487 1202 521 1130 487 1164 b 559 1275 487 1241 521 1275 b 631 1202 597 1275 631 1241 b 559 1130 631 1164 597 1130 "},"Ώ":{"ha":859,"x_min":0,"x_max":0,"o":"m 489 999 b 825 534 703 999 825 829 b 625 92 825 334 753 174 l 625 84 l 826 84 l 826 0 l 530 0 l 530 109 b 732 532 668 195 732 327 b 489 913 732 785 650 913 b 245 532 328 913 245 785 b 448 109 245 327 310 195 l 448 0 l 152 0 l 152 84 l 353 84 l 353 92 b 153 534 225 174 153 334 b 489 999 153 829 275 999 m 68 979 l 171 979 l 87 757 l 8 757 "},"А":{"ha":859,"x_min":0,"x_max":0,"o":"m 582 380 l 430 857 l 429 857 l 277 380 m 607 300 l 252 300 l 156 0 l 61 0 l 384 979 l 475 979 l 798 0 l 703 0 "},"Ӑ":{"ha":859,"x_min":0,"x_max":0,"o":"m 637 1298 b 422 1096 637 1178 550 1096 b 208 1298 295 1096 208 1178 l 290 1298 b 422 1158 290 1216 345 1158 b 555 1298 500 1158 555 1216 m 582 380 l 430 857 l 429 857 l 277 380 m 607 300 l 252 300 l 156 0 l 61 0 l 384 979 l 475 979 l 798 0 l 703 0 "},"Ӓ":{"ha":859,"x_min":0,"x_max":0,"o":"m 559 1130 b 487 1202 521 1130 487 1164 b 559 1275 487 1241 521 1275 b 631 1202 597 1275 631 1241 b 559 1130 631 1164 597 1130 m 300 1130 b 228 1202 262 1130 228 1164 b 300 1275 228 1241 262 1275 b 372 1202 338 1275 372 1241 b 300 1130 372 1164 338 1130 m 582 380 l 430 857 l 429 857 l 277 380 m 607 300 l 252 300 l 156 0 l 61 0 l 384 979 l 475 979 l 798 0 l 703 0 "},"Б":{"ha":859,"x_min":0,"x_max":0,"o":"m 222 84 l 446 84 b 684 288 595 84 684 159 b 446 494 684 417 595 494 l 222 494 m 467 578 b 779 288 652 578 779 460 b 467 0 779 117 652 0 l 129 0 l 129 979 l 688 979 l 688 895 l 222 895 l 222 578 "},"В":{"ha":859,"x_min":0,"x_max":0,"o":"m 138 0 l 138 979 l 439 979 b 724 737 617 979 724 888 b 558 522 724 628 656 540 l 558 513 b 774 271 690 498 774 404 b 440 0 774 100 651 0 m 231 547 l 399 547 b 630 722 550 547 630 608 b 422 897 630 833 554 897 l 231 897 m 427 82 b 679 275 591 82 679 150 b 422 467 679 401 591 467 l 231 467 l 231 82 "},"Г":{"ha":859,"x_min":0,"x_max":0,"o":"m 834 705 l 747 705 l 747 899 l 355 899 l 355 80 l 589 80 l 589 0 l 62 0 l 62 80 l 262 80 l 262 899 l 62 899 l 62 979 l 834 979 "},"Ѓ":{"ha":859,"x_min":0,"x_max":0,"o":"m 492 1097 l 385 1097 l 595 1298 l 713 1298 m 834 705 l 747 705 l 747 899 l 355 899 l 355 80 l 589 80 l 589 0 l 62 0 l 62 80 l 262 80 l 262 899 l 62 899 l 62 979 l 834 979 "},"Ӷ":{"ha":859,"x_min":0,"x_max":0,"o":"m 834 705 l 747 705 l 747 899 l 355 899 l 355 80 l 589 80 l 589 -194 l 502 -194 l 502 0 l 62 0 l 62 80 l 262 80 l 262 899 l 62 899 l 62 979 l 834 979 "},"Ґ":{"ha":859,"x_min":0,"x_max":0,"o":"m 834 1164 l 834 705 l 747 705 l 747 894 l 332 894 l 332 84 l 528 84 l 528 0 l 62 0 l 62 84 l 238 84 l 238 895 l 62 895 l 62 979 l 747 979 l 747 1164 "},"Ғ":{"ha":859,"x_min":0,"x_max":0,"o":"m 834 705 l 747 705 l 747 899 l 355 899 l 355 546 l 572 546 l 572 462 l 355 462 l 355 80 l 589 80 l 589 0 l 62 0 l 62 80 l 262 80 l 262 462 l 49 462 l 49 546 l 262 546 l 262 899 l 62 899 l 62 979 l 834 979 "},"Ӻ":{"ha":859,"x_min":0,"x_max":0,"o":"m 834 705 l 747 705 l 747 894 l 332 894 l 332 546 l 586 546 l 586 462 l 332 462 l 332 0 b 140 -224 332 -172 231 -224 b 61 -220 100 -224 77 -222 l 61 -138 b 132 -140 74 -139 100 -140 b 238 0 208 -140 238 -85 l 238 462 l 62 462 l 62 546 l 238 546 l 238 895 l 62 895 l 62 979 l 834 979 "},"Д":{"ha":859,"x_min":0,"x_max":0,"o":"m 100 0 l 100 -193 l 13 -193 l 13 84 l 76 84 b 172 345 134 117 164 198 l 207 979 l 732 979 l 732 84 l 846 84 l 846 -193 l 760 -193 l 760 0 m 260 341 b 193 91 252 210 233 139 l 193 84 l 640 84 l 640 895 l 290 895 "},"Е":{"ha":859,"x_min":0,"x_max":0,"o":"m 727 0 l 164 0 l 164 979 l 727 979 l 727 895 l 257 895 l 257 543 l 702 543 l 702 460 l 257 460 l 257 84 l 727 84 "},"Ё":{"ha":859,"x_min":0,"x_max":0,"o":"m 727 0 l 164 0 l 164 979 l 727 979 l 727 895 l 257 895 l 257 543 l 702 543 l 702 460 l 257 460 l 257 84 l 727 84 m 316 1130 b 244 1202 278 1130 244 1164 b 316 1275 244 1241 278 1275 b 388 1202 354 1275 388 1241 b 316 1130 388 1164 354 1130 m 575 1130 b 503 1202 537 1130 503 1164 b 575 1275 503 1241 537 1275 b 647 1202 613 1275 647 1241 b 575 1130 647 1164 613 1130 "},"Ӗ":{"ha":859,"x_min":0,"x_max":0,"o":"m 727 0 l 164 0 l 164 979 l 727 979 l 727 895 l 257 895 l 257 543 l 702 543 l 702 460 l 257 460 l 257 84 l 727 84 m 310 1298 b 443 1158 310 1216 365 1158 b 576 1298 521 1158 576 1216 l 657 1298 b 443 1096 657 1178 570 1096 b 229 1298 315 1096 229 1178 "},"Ѐ":{"ha":859,"x_min":0,"x_max":0,"o":"m 516 1097 l 409 1097 l 188 1298 l 306 1298 m 727 0 l 164 0 l 164 979 l 727 979 l 727 895 l 257 895 l 257 543 l 702 543 l 702 460 l 257 460 l 257 84 l 727 84 "},"Ж":{"ha":859,"x_min":0,"x_max":0,"o":"m 0 0 l 281 503 l 26 979 l 123 979 l 349 536 l 387 536 l 387 979 l 470 979 l 470 536 l 509 536 l 734 979 l 829 979 l 575 505 l 859 0 l 762 0 l 509 465 l 470 465 l 470 0 l 387 0 l 387 465 l 349 465 l 95 0 "},"Ӂ":{"ha":859,"x_min":0,"x_max":0,"o":"m 0 0 l 281 503 l 26 979 l 123 979 l 349 536 l 387 536 l 387 979 l 470 979 l 470 536 l 509 536 l 734 979 l 829 979 l 575 505 l 859 0 l 762 0 l 509 465 l 470 465 l 470 0 l 387 0 l 387 465 l 349 465 l 95 0 m 296 1298 b 429 1158 296 1216 351 1158 b 562 1298 507 1158 562 1216 l 644 1298 b 429 1096 644 1178 557 1096 b 215 1298 302 1096 215 1178 "},"Ӝ":{"ha":859,"x_min":0,"x_max":0,"o":"m 0 0 l 281 503 l 26 979 l 123 979 l 349 536 l 387 536 l 387 979 l 470 979 l 470 536 l 509 536 l 734 979 l 829 979 l 575 505 l 859 0 l 762 0 l 509 465 l 470 465 l 470 0 l 387 0 l 387 465 l 349 465 l 95 0 m 300 1130 b 228 1202 262 1130 228 1164 b 300 1275 228 1241 262 1275 b 372 1202 338 1275 372 1241 b 300 1130 372 1164 338 1130 m 559 1130 b 487 1202 521 1130 487 1164 b 559 1275 487 1241 521 1275 b 631 1202 597 1275 631 1241 b 559 1130 631 1164 597 1130 "},"Җ":{"ha":859,"x_min":0,"x_max":0,"o":"m 859 84 l 859 -194 l 777 -194 l 777 0 l 714 0 l 477 465 l 440 465 l 440 0 l 363 0 l 363 465 l 327 465 l 89 0 l 0 0 l 264 503 l 25 979 l 115 979 l 327 536 l 363 536 l 363 979 l 440 979 l 440 536 l 477 536 l 688 979 l 777 979 l 539 505 l 760 84 "},"З":{"ha":859,"x_min":0,"x_max":0,"o":"m 286 545 l 413 545 b 637 734 547 545 637 621 b 418 916 637 844 551 916 b 186 734 287 916 196 844 l 96 734 b 421 999 107 895 235 999 b 731 742 602 999 731 891 b 543 514 731 629 657 539 l 543 506 b 777 264 685 494 777 399 b 425 -20 777 102 625 -20 b 75 250 227 -20 81 92 l 165 250 b 425 63 172 141 280 63 b 682 267 576 63 682 147 b 416 462 682 389 583 462 l 286 462 "},"Ӟ":{"ha":859,"x_min":0,"x_max":0,"o":"m 286 545 l 413 545 b 637 734 547 545 637 621 b 418 916 637 844 551 916 b 186 734 287 916 196 844 l 96 734 b 421 999 107 895 235 999 b 731 742 602 999 731 891 b 543 514 731 629 657 539 l 543 506 b 777 264 685 494 777 399 b 425 -20 777 102 625 -20 b 75 250 227 -20 81 92 l 165 250 b 425 63 172 141 280 63 b 682 267 576 63 682 147 b 416 462 682 389 583 462 l 286 462 m 283 1130 b 211 1202 245 1130 211 1164 b 283 1275 211 1241 245 1275 b 355 1202 321 1275 355 1241 b 283 1130 355 1164 321 1130 m 542 1130 b 470 1202 504 1130 470 1164 b 542 1275 470 1241 504 1275 b 614 1202 580 1275 614 1241 b 542 1130 614 1164 580 1130 "},"Ҙ":{"ha":859,"x_min":0,"x_max":0,"o":"m 543 506 b 777 264 685 494 777 399 b 471 -18 777 115 648 -1 l 471 -194 l 385 -194 l 385 -19 b 75 250 207 -5 81 102 l 165 250 b 425 63 172 141 280 63 b 682 267 576 63 682 147 b 416 462 682 389 583 462 l 286 462 l 286 545 l 413 545 b 637 734 547 545 637 621 b 418 916 637 844 551 916 b 186 734 287 916 196 844 l 96 734 b 421 999 107 895 235 999 b 731 742 602 999 731 891 b 543 514 731 629 657 539 "},"И":{"ha":859,"x_min":0,"x_max":0,"o":"m 194 979 l 194 166 l 203 166 l 657 979 l 749 979 l 749 0 l 665 0 l 665 813 l 656 813 l 199 0 l 110 0 l 110 979 "},"Й":{"ha":859,"x_min":0,"x_max":0,"o":"m 296 1298 b 429 1158 296 1216 351 1158 b 562 1298 507 1158 562 1216 l 644 1298 b 429 1096 644 1178 557 1096 b 215 1298 302 1096 215 1178 m 194 979 l 194 166 l 203 166 l 657 979 l 749 979 l 749 0 l 665 0 l 665 813 l 656 813 l 199 0 l 110 0 l 110 979 "},"Ѝ":{"ha":859,"x_min":0,"x_max":0,"o":"m 509 1097 l 401 1097 l 180 1298 l 298 1298 m 194 979 l 194 166 l 203 166 l 657 979 l 749 979 l 749 0 l 665 0 l 665 813 l 656 813 l 199 0 l 110 0 l 110 979 "},"Ӣ":{"ha":859,"x_min":0,"x_max":0,"o":"m 206 1160 l 206 1240 l 639 1240 l 639 1160 m 194 979 l 194 166 l 203 166 l 657 979 l 749 979 l 749 0 l 665 0 l 665 813 l 656 813 l 199 0 l 110 0 l 110 979 "},"Ӥ":{"ha":859,"x_min":0,"x_max":0,"o":"m 553 1130 b 481 1202 515 1130 481 1164 b 553 1275 481 1241 515 1275 b 625 1202 591 1275 625 1241 b 553 1130 625 1164 591 1130 m 294 1130 b 222 1202 256 1130 222 1164 b 294 1275 222 1241 256 1275 b 366 1202 332 1275 366 1241 b 294 1130 366 1164 332 1130 m 194 979 l 194 166 l 203 166 l 657 979 l 749 979 l 749 0 l 665 0 l 665 813 l 656 813 l 199 0 l 110 0 l 110 979 "},"Ҋ":{"ha":859,"x_min":0,"x_max":0,"o":"m 630 1298 b 416 1096 630 1178 543 1096 b 201 1298 288 1096 201 1178 l 283 1298 b 416 1158 283 1216 338 1158 b 549 1298 494 1158 549 1216 m 852 84 l 852 56 l 757 -194 l 675 -194 l 751 0 l 651 0 l 651 813 l 642 813 l 186 0 l 96 0 l 96 979 l 180 979 l 180 166 l 189 166 l 644 979 l 735 979 l 735 84 "},"К":{"ha":859,"x_min":0,"x_max":0,"o":"m 207 538 l 237 538 l 665 979 l 782 979 l 317 506 l 823 0 l 699 0 l 237 464 l 207 464 l 207 0 l 117 0 l 117 979 l 207 979 "},"Ќ":{"ha":859,"x_min":0,"x_max":0,"o":"m 570 1298 l 688 1298 l 467 1097 l 359 1097 m 207 538 l 237 538 l 665 979 l 782 979 l 317 506 l 823 0 l 699 0 l 237 464 l 207 464 l 207 0 l 117 0 l 117 979 l 207 979 "},"Қ":{"ha":859,"x_min":0,"x_max":0,"o":"m 845 84 l 845 -194 l 764 -194 l 764 0 l 699 0 l 237 464 l 207 464 l 207 0 l 117 0 l 117 979 l 207 979 l 207 538 l 237 538 l 665 979 l 782 979 l 317 506 l 739 84 "},"Ҝ":{"ha":859,"x_min":0,"x_max":0,"o":"m 117 979 l 207 979 l 207 0 l 117 0 m 825 0 l 717 0 l 435 464 l 427 464 l 427 210 l 341 210 l 341 790 l 427 790 l 427 538 l 435 538 l 683 979 l 784 979 l 517 505 "},"Ҟ":{"ha":859,"x_min":0,"x_max":0,"o":"m 829 0 l 705 0 l 257 464 l 227 464 l 227 0 l 138 0 l 138 821 l 8 821 l 8 905 l 138 905 l 138 979 l 227 979 l 227 905 l 410 905 l 410 821 l 227 821 l 227 538 l 257 538 l 671 979 l 789 979 l 337 506 "},"Ҡ":{"ha":859,"x_min":0,"x_max":0,"o":"m 289 0 l 289 895 l 7 895 l 7 979 l 378 979 l 378 538 l 408 538 l 707 979 l 811 979 l 488 506 l 852 0 l 741 0 l 408 464 l 378 464 l 378 0 "},"Ӄ":{"ha":859,"x_min":0,"x_max":0,"o":"m 338 527 b 731 118 576 501 731 357 b 399 -241 731 -90 599 -241 b 351 -237 382 -241 363 -239 l 351 -170 b 399 -172 366 -172 379 -172 b 642 118 545 -172 642 -54 b 253 464 642 335 491 464 l 207 464 l 207 0 l 117 0 l 117 979 l 207 979 l 207 538 l 237 538 l 665 979 l 782 979 "},"Л":{"ha":859,"x_min":0,"x_max":0,"o":"m 753 0 l 661 0 l 661 895 l 296 895 l 264 346 b 48 -6 250 102 184 -6 b 5 1 34 -6 17 -3 l 5 84 b 40 79 11 81 28 79 b 177 351 125 79 166 160 l 212 979 l 753 979 "},"Ӆ":{"ha":859,"x_min":0,"x_max":0,"o":"m 859 84 l 859 56 l 764 -194 l 682 -194 l 758 0 l 658 0 l 658 84 l 659 84 l 659 895 l 296 895 l 264 346 b 48 -6 250 102 184 -6 b 5 1 34 -6 17 -3 l 5 84 b 40 79 11 81 28 79 b 177 351 125 79 166 160 l 212 979 l 751 979 l 751 84 "},"Ԯ":{"ha":859,"x_min":0,"x_max":0,"o":"m 859 84 l 859 -194 l 772 -194 l 772 0 l 656 0 l 656 895 l 296 895 l 264 346 b 48 -6 250 102 184 -6 b 5 1 34 -6 17 -3 l 5 84 b 40 79 11 81 28 79 b 177 351 125 79 166 160 l 212 979 l 748 979 l 748 84 "},"Ԓ":{"ha":859,"x_min":0,"x_max":0,"o":"m 753 979 l 753 0 b 563 -224 753 -172 654 -224 b 484 -220 524 -224 500 -222 l 484 -138 b 555 -140 497 -139 523 -140 b 661 0 631 -140 661 -85 l 661 895 l 296 895 l 264 346 b 48 -6 250 102 184 -6 b 5 1 34 -6 17 -3 l 5 84 b 40 79 11 81 28 79 b 177 351 125 79 166 160 l 212 979 "},"М":{"ha":859,"x_min":0,"x_max":0,"o":"m 71 0 l 71 979 l 177 979 l 426 352 l 433 352 l 681 979 l 788 979 l 788 0 l 701 0 l 701 798 l 694 798 l 469 230 l 389 230 l 164 798 l 157 798 l 157 0 "},"Ӎ":{"ha":859,"x_min":0,"x_max":0,"o":"m 859 84 l 859 56 l 764 -194 l 682 -194 l 758 0 l 661 0 l 661 798 l 654 798 l 449 230 l 369 230 l 164 798 l 157 798 l 157 0 l 71 0 l 71 979 l 177 979 l 406 352 l 413 352 l 640 979 l 747 979 l 747 84 "},"Н":{"ha":859,"x_min":0,"x_max":0,"o":"m 653 0 l 653 459 l 205 459 l 205 0 l 113 0 l 113 979 l 205 979 l 205 543 l 653 543 l 653 979 l 746 979 l 746 0 "},"Ӈ":{"ha":859,"x_min":0,"x_max":0,"o":"m 746 979 l 746 0 b 555 -224 746 -172 646 -224 b 477 -220 516 -224 493 -222 l 477 -138 b 547 -140 490 -139 515 -140 b 653 0 623 -140 653 -85 l 653 459 l 205 459 l 205 0 l 113 0 l 113 979 l 205 979 l 205 543 l 653 543 l 653 979 "},"Ң":{"ha":859,"x_min":0,"x_max":0,"o":"m 856 84 l 856 -194 l 769 -194 l 769 0 l 653 0 l 653 459 l 205 459 l 205 0 l 113 0 l 113 979 l 205 979 l 205 543 l 653 543 l 653 979 l 746 979 l 746 84 "},"Ӊ":{"ha":859,"x_min":0,"x_max":0,"o":"m 854 84 l 854 56 l 759 -194 l 677 -194 l 753 0 l 653 0 l 653 459 l 205 459 l 205 0 l 113 0 l 113 979 l 205 979 l 205 543 l 653 543 l 653 979 l 746 979 l 746 84 "},"Ҥ":{"ha":859,"x_min":0,"x_max":0,"o":"m 859 895 l 543 895 l 543 0 l 450 0 l 450 459 l 131 459 l 131 0 l 38 0 l 38 979 l 131 979 l 131 543 l 450 543 l 450 979 l 859 979 "},"О":{"ha":859,"x_min":0,"x_max":0,"o":"m 781 408 b 429 -20 781 138 647 -20 b 77 408 212 -20 77 138 l 77 570 b 429 999 77 840 212 999 b 781 570 647 999 781 840 l 781 408 m 429 66 b 688 408 589 66 688 191 l 688 570 b 429 913 688 787 589 913 b 170 570 269 913 170 787 l 170 408 b 429 66 170 191 269 66 "},"Ӧ":{"ha":859,"x_min":0,"x_max":0,"o":"m 781 408 b 429 -20 781 138 647 -20 b 77 408 212 -20 77 138 l 77 570 b 429 999 77 840 212 999 b 781 570 647 999 781 840 l 781 408 m 429 66 b 688 408 589 66 688 191 l 688 570 b 429 913 688 787 589 913 b 170 570 269 913 170 787 l 170 408 b 429 66 170 191 269 66 m 300 1130 b 228 1202 262 1130 228 1164 b 300 1275 228 1241 262 1275 b 372 1202 338 1275 372 1241 b 300 1130 372 1164 338 1130 m 559 1130 b 487 1202 521 1130 487 1164 b 559 1275 487 1241 521 1275 b 631 1202 597 1275 631 1241 b 559 1130 631 1164 597 1130 "},"Ө":{"ha":859,"x_min":0,"x_max":0,"o":"m 170 408 b 429 66 170 191 269 66 b 688 408 589 66 688 191 l 688 457 l 170 457 m 688 570 b 429 913 688 787 589 913 b 170 570 269 913 170 787 l 170 541 l 688 541 m 77 570 b 429 999 77 840 212 999 b 781 570 647 999 781 840 l 781 408 b 429 -20 781 138 647 -20 b 77 408 212 -20 77 138 "},"Ӫ":{"ha":859,"x_min":0,"x_max":0,"o":"m 547 1130 b 475 1202 509 1130 475 1164 b 547 1275 475 1241 509 1275 b 618 1202 585 1275 618 1241 b 547 1130 618 1164 585 1130 m 288 1130 b 216 1202 250 1130 216 1164 b 288 1275 216 1241 250 1275 b 359 1202 326 1275 359 1241 b 288 1130 359 1164 326 1130 m 170 408 b 429 66 170 191 269 66 b 688 408 589 66 688 191 l 688 457 l 170 457 m 688 570 b 429 913 688 787 589 913 b 170 570 269 913 170 787 l 170 541 l 688 541 m 77 570 b 429 999 77 840 212 999 b 781 570 647 999 781 840 l 781 408 b 429 -20 781 138 647 -20 b 77 408 212 -20 77 138 "},"Ѳ":{"ha":859,"x_min":0,"x_max":0,"o":"m 170 409 b 429 66 170 192 269 66 b 688 409 589 66 688 192 l 688 463 b 562 412 656 434 615 412 b 293 486 424 412 401 486 b 170 423 227 486 191 450 m 688 571 b 429 913 688 788 589 913 b 170 571 269 913 170 788 l 170 518 b 296 568 203 548 244 568 b 566 494 434 568 457 494 b 688 557 632 494 667 530 m 77 571 b 429 1000 77 841 212 1000 b 781 571 647 1000 781 841 l 781 409 b 429 -20 781 139 647 -20 b 77 409 212 -20 77 139 "},"П":{"ha":859,"x_min":0,"x_max":0,"o":"m 759 0 l 666 0 l 666 894 l 193 894 l 193 0 l 100 0 l 100 979 l 759 979 "},"Ԥ":{"ha":859,"x_min":0,"x_max":0,"o":"m 859 84 l 859 -194 l 772 -194 l 772 0 l 658 0 l 658 894 l 193 894 l 193 0 l 100 0 l 100 979 l 751 979 l 751 84 "},"Р":{"ha":859,"x_min":0,"x_max":0,"o":"m 460 979 b 766 674 644 979 766 857 b 460 370 766 492 644 370 l 239 370 l 239 0 l 146 0 l 146 979 m 239 452 l 437 452 b 672 674 586 452 672 534 b 437 896 672 814 586 896 l 239 896 "},"Ҏ":{"ha":859,"x_min":0,"x_max":0,"o":"m 437 452 b 503 458 460 452 482 454 l 401 615 l 461 656 l 572 483 b 672 674 637 518 672 584 b 437 896 672 814 586 896 l 239 896 l 239 452 m 460 979 b 766 674 644 979 766 857 b 626 411 766 555 713 461 l 732 245 l 666 197 l 548 380 b 460 370 521 373 491 370 l 239 370 l 239 0 l 146 0 l 146 979 "},"С":{"ha":859,"x_min":0,"x_max":0,"o":"m 452 66 b 687 279 593 66 683 146 l 780 279 b 452 -20 780 104 643 -20 b 96 408 227 -20 96 136 l 96 570 b 452 999 96 842 227 999 b 781 680 650 999 776 878 l 688 680 b 452 913 682 819 587 913 b 189 570 279 913 189 795 l 189 408 b 452 66 189 184 279 66 "},"Ҫ":{"ha":859,"x_min":0,"x_max":0,"o":"m 189 408 b 452 66 189 184 279 66 b 687 279 593 66 683 146 l 780 279 b 493 -18 780 117 663 -2 l 463 -98 b 600 -205 551 -96 600 -134 b 444 -328 600 -279 537 -328 b 357 -316 411 -328 390 -326 l 357 -250 b 439 -260 373 -255 414 -260 b 518 -207 490 -260 518 -241 b 416 -159 518 -173 489 -159 l 377 -159 l 377 -111 l 413 -19 b 96 408 212 -1 96 152 l 96 570 b 452 999 96 842 227 999 b 781 680 650 999 776 878 l 688 680 b 452 913 682 819 587 913 b 189 570 279 913 189 795 "},"Є":{"ha":859,"x_min":0,"x_max":0,"o":"m 189 408 b 452 66 189 184 279 66 b 687 279 593 66 683 146 l 780 279 b 452 -20 780 104 643 -20 b 96 408 227 -20 96 136 l 96 570 b 452 999 96 842 227 999 b 781 680 650 999 776 878 l 688 680 b 452 913 682 819 587 913 b 189 570 279 913 189 795 l 189 543 l 564 543 l 564 459 l 189 459 "},"Т":{"ha":859,"x_min":0,"x_max":0,"o":"m 383 0 l 383 895 l 82 895 l 82 979 l 777 979 l 777 895 l 475 895 l 475 0 "},"Ҭ":{"ha":859,"x_min":0,"x_max":0,"o":"m 475 895 l 475 84 l 586 84 l 586 -194 l 499 -194 l 499 0 l 383 0 l 383 895 l 82 895 l 82 979 l 777 979 l 777 895 "},"У":{"ha":859,"x_min":0,"x_max":0,"o":"m 503 271 b 218 -7 412 60 343 -7 b 168 1 199 -7 177 -3 l 168 85 b 218 79 184 81 201 79 b 387 220 288 79 338 121 l 52 979 l 153 979 l 432 324 l 440 324 l 709 979 l 806 979 "},"Ў":{"ha":859,"x_min":0,"x_max":0,"o":"m 503 271 b 218 -7 412 60 343 -7 b 168 1 199 -7 177 -3 l 168 85 b 218 79 184 81 201 79 b 387 220 288 79 338 121 l 52 979 l 153 979 l 432 324 l 440 324 l 709 979 l 806 979 m 296 1298 b 429 1158 296 1216 351 1158 b 562 1298 507 1158 562 1216 l 643 1298 b 429 1096 643 1178 556 1096 b 214 1298 301 1096 214 1178 "},"Ӯ":{"ha":859,"x_min":0,"x_max":0,"o":"m 217 1162 l 217 1242 l 650 1242 l 650 1162 m 503 271 b 218 -7 412 60 343 -7 b 168 1 199 -7 177 -3 l 168 85 b 218 79 184 81 201 79 b 387 220 288 79 338 121 l 52 979 l 153 979 l 432 324 l 440 324 l 709 979 l 806 979 "},"Ӱ":{"ha":859,"x_min":0,"x_max":0,"o":"m 563 1129 b 491 1202 525 1129 491 1163 b 563 1274 491 1240 525 1274 b 635 1202 601 1274 635 1240 b 563 1129 635 1163 601 1129 m 304 1129 b 232 1202 266 1129 232 1163 b 304 1274 232 1240 266 1274 b 376 1202 342 1274 376 1240 b 304 1129 376 1163 342 1129 m 503 271 b 218 -7 412 60 343 -7 b 168 1 199 -7 177 -3 l 168 85 b 218 79 184 81 201 79 b 387 220 288 79 338 121 l 52 979 l 153 979 l 432 324 l 440 324 l 709 979 l 806 979 "},"Ӳ":{"ha":859,"x_min":0,"x_max":0,"o":"m 467 1299 l 585 1299 l 364 1097 l 257 1097 m 714 1299 l 832 1299 l 611 1097 l 504 1097 m 503 271 b 218 -7 412 60 343 -7 b 168 1 199 -7 177 -3 l 168 85 b 218 79 184 81 201 79 b 387 220 288 79 338 121 l 52 979 l 153 979 l 432 324 l 440 324 l 709 979 l 806 979 "},"Ф":{"ha":859,"x_min":0,"x_max":0,"o":"m 383 93 b 7 492 153 97 7 251 b 383 890 7 731 153 885 l 383 990 l 475 990 l 475 890 b 851 492 706 885 851 731 b 475 93 851 251 706 97 l 475 -12 l 383 -12 m 101 492 b 384 176 101 302 210 180 l 384 807 b 101 492 210 802 101 681 m 475 176 b 758 492 648 180 758 302 b 475 807 758 681 648 802 "},"Х":{"ha":859,"x_min":0,"x_max":0,"o":"m 376 491 l 61 979 l 168 979 l 432 566 l 435 566 l 702 979 l 800 979 l 479 488 l 795 0 l 688 0 l 426 411 l 422 411 l 157 0 l 58 0 "},"Ҳ":{"ha":859,"x_min":0,"x_max":0,"o":"m 838 84 l 838 -194 l 757 -194 l 757 0 l 688 0 l 426 411 l 422 411 l 157 0 l 58 0 l 376 491 l 61 979 l 168 979 l 432 566 l 435 566 l 702 979 l 800 979 l 479 488 l 741 84 "},"Ӿ":{"ha":859,"x_min":0,"x_max":0,"o":"m 503 452 l 795 0 l 688 0 l 426 411 l 422 411 l 157 0 l 58 0 l 351 452 l 94 452 l 94 532 l 350 532 l 61 979 l 168 979 l 432 566 l 435 566 l 702 979 l 800 979 l 508 532 l 761 532 l 761 452 "},"Ӽ":{"ha":859,"x_min":0,"x_max":0,"o":"m 426 411 l 422 411 l 157 0 l 58 0 l 376 491 l 61 979 l 168 979 l 432 566 l 435 566 l 702 979 l 800 979 l 479 488 l 658 211 b 790 -77 734 94 790 14 b 595 -267 790 -188 709 -267 b 549 -263 572 -267 559 -265 l 549 -180 b 595 -183 557 -182 570 -183 b 700 -82 652 -183 700 -144 b 589 157 700 -9 653 56 "},"Ц":{"ha":859,"x_min":0,"x_max":0,"o":"m 857 -193 l 770 -193 l 770 0 l 75 0 l 75 979 l 168 979 l 168 84 l 654 84 l 654 979 l 747 979 l 747 84 l 857 84 "},"Ҵ":{"ha":859,"x_min":0,"x_max":0,"o":"m 838 84 l 838 -193 l 751 -193 l 751 0 l 218 0 l 218 895 l 7 895 l 7 979 l 498 979 l 498 895 l 311 895 l 311 84 l 655 84 l 655 979 l 748 979 l 748 84 "},"Ч":{"ha":859,"x_min":0,"x_max":0,"o":"m 750 0 l 658 0 l 658 449 l 650 449 b 412 375 591 401 510 375 b 74 706 205 375 74 511 l 74 979 l 167 979 l 167 713 b 413 461 167 555 267 461 b 658 546 522 461 600 492 l 658 979 l 750 979 "},"Ӵ":{"ha":859,"x_min":0,"x_max":0,"o":"m 545 1130 b 473 1202 507 1130 473 1164 b 545 1275 473 1241 507 1275 b 616 1202 583 1275 616 1241 b 545 1130 616 1164 583 1130 m 286 1130 b 214 1202 248 1130 214 1164 b 286 1275 214 1241 248 1275 b 357 1202 323 1275 357 1241 b 286 1130 357 1164 323 1130 m 750 0 l 658 0 l 658 449 l 650 449 b 412 375 591 401 510 375 b 74 706 205 375 74 511 l 74 979 l 167 979 l 167 713 b 413 461 167 555 267 461 b 658 546 522 461 600 492 l 658 979 l 750 979 "},"Ҷ":{"ha":859,"x_min":0,"x_max":0,"o":"m 822 84 l 822 -194 l 735 -194 l 735 0 l 624 0 l 624 449 l 616 449 b 392 375 559 403 484 375 b 74 706 197 375 74 511 l 74 979 l 167 979 l 167 713 b 393 461 167 555 258 461 b 624 546 496 461 568 494 l 624 979 l 716 979 l 716 84 "},"Ӌ":{"ha":859,"x_min":0,"x_max":0,"o":"m 750 979 l 750 0 l 634 0 l 634 -194 l 547 -194 l 547 84 l 658 84 l 658 449 l 650 449 b 412 375 591 401 510 375 b 74 706 205 375 74 511 l 74 979 l 167 979 l 167 713 b 413 461 167 555 267 461 b 658 546 522 461 600 492 l 658 979 "},"Ҹ":{"ha":859,"x_min":0,"x_max":0,"o":"m 750 979 l 750 0 l 658 0 l 658 449 l 650 449 b 460 377 602 410 537 385 l 460 155 l 374 155 l 374 376 b 74 706 189 392 74 524 l 74 979 l 167 979 l 167 713 b 374 463 167 570 250 479 l 374 715 l 460 715 l 460 463 b 658 546 545 471 608 500 l 658 979 "},"Һ":{"ha":859,"x_min":0,"x_max":0,"o":"m 109 979 l 201 979 l 201 530 l 208 530 b 446 604 267 577 349 604 b 785 273 654 604 785 467 l 785 0 l 692 0 l 692 266 b 446 517 692 423 592 517 b 201 433 336 517 259 486 l 201 0 l 109 0 "},"Ԧ":{"ha":859,"x_min":0,"x_max":0,"o":"m 842 84 l 842 -194 l 755 -194 l 755 0 l 644 0 l 644 279 b 422 517 644 430 561 517 b 201 433 329 517 257 485 l 201 0 l 109 0 l 109 979 l 201 979 l 201 530 l 208 530 b 421 604 254 568 331 604 b 737 286 626 604 737 476 l 737 84 "},"Ђ":{"ha":859,"x_min":0,"x_max":0,"o":"m 533 84 b 601 75 545 79 573 75 b 760 293 698 75 760 160 b 574 519 760 431 687 519 b 366 419 479 519 406 471 l 366 0 l 273 0 l 273 895 l 0 895 l 0 979 l 639 979 l 639 895 l 366 895 l 366 524 l 374 524 b 583 604 416 566 483 604 b 853 294 747 604 853 481 b 604 -9 853 111 754 -9 b 533 1 576 -9 547 -5 "},"Ћ":{"ha":859,"x_min":0,"x_max":0,"o":"m 729 313 b 542 519 729 441 670 519 b 342 419 451 519 382 471 l 342 0 l 250 0 l 250 895 l 0 895 l 0 979 l 593 979 l 593 895 l 342 895 l 342 524 l 351 524 b 559 604 393 566 460 604 b 822 321 730 604 822 500 l 822 0 l 729 0 "},"Ӏ":{"ha":859,"x_min":0,"x_max":0,"o":"m 186 0 l 186 80 l 383 80 l 383 899 l 186 899 l 186 979 l 672 979 l 672 899 l 475 899 l 475 80 l 672 80 l 672 0 "},"І":{"ha":859,"x_min":0,"x_max":0,"o":"m 186 0 l 186 80 l 383 80 l 383 899 l 186 899 l 186 979 l 672 979 l 672 899 l 475 899 l 475 80 l 672 80 l 672 0 "},"Ї":{"ha":859,"x_min":0,"x_max":0,"o":"m 186 0 l 186 80 l 383 80 l 383 899 l 186 899 l 186 979 l 672 979 l 672 899 l 475 899 l 475 80 l 672 80 l 672 0 m 300 1130 b 228 1202 262 1130 228 1164 b 300 1275 228 1241 262 1275 b 372 1202 338 1275 372 1241 b 300 1130 372 1164 338 1130 m 559 1130 b 487 1202 521 1130 487 1164 b 559 1275 487 1241 521 1275 b 631 1202 597 1275 631 1241 b 559 1130 631 1164 597 1130 "},"Џ":{"ha":859,"x_min":0,"x_max":0,"o":"m 386 0 l 86 0 l 86 979 l 178 979 l 178 84 l 680 84 l 680 979 l 772 979 l 772 0 l 473 0 l 473 -193 l 386 -193 "},"Ш":{"ha":859,"x_min":0,"x_max":0,"o":"m 51 0 l 51 979 l 143 979 l 143 84 l 383 84 l 383 979 l 475 979 l 475 84 l 715 84 l 715 979 l 808 979 l 808 0 "},"Щ":{"ha":859,"x_min":0,"x_max":0,"o":"m 773 0 l 35 0 l 35 979 l 127 979 l 127 84 l 352 84 l 352 979 l 444 979 l 444 84 l 669 84 l 669 979 l 762 979 l 762 84 l 859 84 l 859 -193 l 773 -193 "},"Ъ":{"ha":859,"x_min":0,"x_max":0,"o":"m 319 84 l 518 84 b 731 300 652 84 731 164 b 518 517 731 435 651 517 l 319 517 m 539 600 b 826 300 709 600 826 479 b 541 0 826 121 710 0 l 227 0 l 227 895 l 19 895 l 19 979 l 319 979 l 319 600 "},"Ы":{"ha":859,"x_min":0,"x_max":0,"o":"m 174 83 l 256 83 b 495 300 406 83 495 164 b 256 516 495 435 406 516 l 174 516 m 81 0 l 81 979 l 174 979 l 174 600 l 279 600 b 589 300 465 600 589 479 b 279 0 589 120 465 0 m 686 0 l 686 979 l 778 979 l 778 0 "},"Ӹ":{"ha":859,"x_min":0,"x_max":0,"o":"m 552 1091 b 480 1164 514 1091 480 1125 b 552 1236 480 1202 514 1236 b 624 1164 590 1236 624 1202 b 552 1091 624 1125 590 1091 m 293 1091 b 221 1164 255 1091 221 1125 b 293 1236 221 1202 255 1236 b 365 1164 331 1236 365 1202 b 293 1091 365 1125 331 1091 m 174 83 l 256 83 b 495 300 406 83 495 164 b 256 516 495 435 406 516 l 174 516 m 81 0 l 81 979 l 174 979 l 174 600 l 279 600 b 589 300 465 600 589 479 b 279 0 589 120 465 0 m 686 0 l 686 979 l 778 979 l 778 0 "},"Ь":{"ha":859,"x_min":0,"x_max":0,"o":"m 221 83 l 446 83 b 685 300 596 83 685 164 b 446 516 685 435 596 516 l 221 516 m 128 0 l 128 979 l 221 979 l 221 600 l 469 600 b 779 300 654 600 779 479 b 469 0 779 120 654 0 "},"Ҍ":{"ha":859,"x_min":0,"x_max":0,"o":"m 487 83 b 726 286 637 83 726 159 b 487 489 726 413 637 489 l 316 489 l 316 83 m 509 572 b 820 286 695 572 820 458 b 509 0 820 115 695 0 l 223 0 l 223 747 l 0 747 l 0 831 l 223 831 l 223 979 l 316 979 l 316 831 l 665 831 l 665 747 l 316 747 l 316 572 "},"Ѣ":{"ha":859,"x_min":0,"x_max":0,"o":"m 487 83 b 726 286 637 83 726 159 b 487 489 726 413 637 489 l 316 489 l 316 83 m 509 572 b 820 286 695 572 820 458 b 509 0 820 115 695 0 l 223 0 l 223 747 l 0 747 l 0 831 l 223 831 l 223 979 l 316 979 l 316 831 l 665 831 l 665 747 l 316 747 l 316 572 "},"Љ":{"ha":859,"x_min":0,"x_max":0,"o":"m 508 83 l 593 83 b 764 300 700 83 764 163 b 593 516 764 436 700 516 l 508 516 m 223 346 b 47 -6 212 99 159 -6 b 0 1 28 -6 12 -4 l 0 84 b 37 79 9 81 23 79 b 136 351 101 79 128 154 l 162 979 l 508 979 l 508 600 l 615 600 b 859 300 760 600 859 477 b 615 0 859 122 760 0 l 415 0 l 415 895 l 247 895 "},"Њ":{"ha":859,"x_min":0,"x_max":0,"o":"m 501 79 l 572 79 b 737 277 674 79 737 155 b 572 459 737 391 676 459 l 501 459 m 71 0 l 71 979 l 159 979 l 159 539 l 408 539 l 408 979 l 501 979 l 501 539 l 590 539 b 831 277 734 539 831 434 b 593 0 831 112 735 0 l 408 0 l 408 459 l 159 459 l 159 0 "},"Э":{"ha":859,"x_min":0,"x_max":0,"o":"m 59 680 b 413 999 83 876 219 999 b 793 490 658 999 793 818 b 413 -20 793 161 658 -20 b 59 279 214 -20 85 89 l 153 279 b 413 66 178 140 269 66 b 697 459 591 66 688 199 l 295 459 l 295 543 l 696 543 b 413 913 681 788 585 913 b 153 680 273 913 180 829 "},"Ӭ":{"ha":859,"x_min":0,"x_max":0,"o":"m 541 1131 b 469 1204 503 1131 469 1165 b 541 1276 469 1242 503 1276 b 613 1204 579 1276 613 1242 b 541 1131 613 1165 579 1131 m 282 1131 b 210 1204 244 1131 210 1165 b 282 1276 210 1242 244 1276 b 354 1204 320 1276 354 1242 b 282 1131 354 1165 320 1131 m 59 680 b 413 999 83 876 219 999 b 793 490 658 999 793 818 b 413 -20 793 161 658 -20 b 59 279 214 -20 85 89 l 153 279 b 413 66 178 140 269 66 b 697 459 591 66 688 199 l 295 459 l 295 543 l 696 543 b 413 913 681 788 585 913 b 153 680 273 913 180 829 "},"Ю":{"ha":859,"x_min":0,"x_max":0,"o":"m 536 913 b 327 489 396 913 327 772 b 536 65 327 205 396 65 b 745 489 675 65 745 205 b 536 913 745 772 675 913 m 234 531 b 536 999 253 848 351 999 b 840 489 734 999 840 822 b 536 -21 840 156 734 -21 b 234 447 346 -21 252 124 l 129 447 l 129 0 l 41 0 l 41 979 l 129 979 l 129 531 "},"Я":{"ha":859,"x_min":0,"x_max":0,"o":"m 488 393 l 213 0 l 104 0 l 387 404 b 148 686 240 433 148 541 b 462 979 148 861 274 979 l 771 979 l 771 0 l 680 0 l 680 393 m 680 477 l 680 896 l 484 896 b 243 686 332 896 243 819 b 484 477 243 554 332 477 "},"Ҕ":{"ha":859,"x_min":0,"x_max":0,"o":"m 489 -9 b 418 1 460 -9 431 -5 l 418 84 b 486 75 430 79 458 75 b 645 293 583 75 645 160 b 438 519 645 431 564 519 b 216 419 338 519 258 473 l 216 0 l 124 0 l 124 979 l 639 979 l 639 895 l 216 895 l 216 524 l 224 524 b 438 604 268 568 340 604 b 738 294 623 604 738 481 b 489 -9 738 111 639 -9 "},"Ҧ":{"ha":859,"x_min":0,"x_max":0,"o":"m 445 535 b 597 604 477 572 528 604 b 818 294 741 604 818 487 b 615 -9 818 111 737 -9 b 559 1 593 -9 570 -5 l 559 84 b 612 75 569 79 591 75 b 731 293 685 75 731 160 b 597 519 731 441 685 519 b 438 426 513 519 465 467 l 438 0 l 352 0 l 352 894 l 114 894 l 114 0 l 27 0 l 27 979 l 438 979 l 438 535 "},"Ҩ":{"ha":859,"x_min":0,"x_max":0,"o":"m 721 -24 b 557 23 666 -24 608 -8 l 554 23 b 387 -23 498 -5 442 -23 b 20 453 145 -23 20 163 l 20 532 b 347 991 20 790 123 982 l 347 908 b 110 532 167 899 110 739 l 110 453 b 387 60 110 222 199 60 b 486 75 420 60 454 66 l 486 77 b 331 467 387 157 331 286 l 331 526 b 575 867 331 726 416 867 b 819 526 734 867 819 726 l 819 467 b 638 66 819 283 744 136 l 638 64 b 722 56 663 57 692 56 b 846 100 762 56 811 72 l 878 32 b 721 -24 829 -6 777 -24 m 420 467 b 561 106 420 315 467 176 b 730 467 664 164 730 303 l 730 526 b 575 784 730 682 680 784 b 420 526 469 784 420 682 l 420 467 "},"Ү":{"ha":859,"x_min":0,"x_max":0,"o":"m 383 0 l 383 423 l 52 979 l 159 979 l 425 517 l 433 517 l 700 979 l 806 979 l 475 423 l 475 0 "},"Ұ":{"ha":859,"x_min":0,"x_max":0,"o":"m 476 424 l 723 424 l 723 340 l 475 340 l 475 0 l 383 0 l 383 340 l 136 340 l 136 424 l 382 424 l 52 979 l 159 979 l 425 517 l 433 517 l 700 979 l 806 979 "},"Ҽ":{"ha":859,"x_min":0,"x_max":0,"o":"m 761 597 b 526 913 761 812 669 913 b 285 581 373 913 292 792 l 761 581 m 284 497 l 284 435 b 532 66 284 191 377 66 b 759 300 654 66 732 151 l 852 300 b 532 -20 828 103 708 -20 b 191 449 311 -20 191 153 l 191 497 b 7 669 56 497 7 566 b 27 758 7 720 27 758 l 114 758 b 98 672 114 758 98 724 b 193 581 98 610 128 581 b 526 999 210 850 319 999 b 852 599 739 999 852 838 l 852 497 "},"Ҿ":{"ha":859,"x_min":0,"x_max":0,"o":"m 761 597 b 526 913 761 812 669 913 b 285 581 373 913 292 792 l 761 581 m 284 497 l 284 435 b 532 66 284 191 377 66 b 759 300 654 66 732 151 l 852 300 b 580 -16 830 121 730 4 l 580 -194 l 493 -194 l 493 -18 b 191 449 296 2 191 171 l 191 497 b 7 669 56 497 7 566 b 27 758 7 720 27 758 l 114 758 b 98 672 114 758 98 724 b 193 581 98 610 128 581 b 526 999 210 850 319 999 b 852 599 739 999 852 838 l 852 497 "},"Ӕ":{"ha":859,"x_min":0,"x_max":0,"o":"m 450 399 l 450 897 l 387 897 l 232 399 m 536 895 l 536 536 l 815 536 l 815 452 l 536 452 l 536 84 l 840 84 l 840 0 l 450 0 l 450 320 l 208 320 l 108 0 l 10 0 l 324 979 l 840 979 l 840 895 "},"Ә":{"ha":859,"x_min":0,"x_max":0,"o":"m 429 -20 b 68 421 193 -20 68 182 l 68 523 l 697 523 l 697 544 b 422 913 697 789 594 913 b 161 680 282 913 189 829 l 68 680 b 422 999 92 876 228 999 b 791 530 661 999 791 827 l 791 478 b 429 -20 791 159 673 -20 m 429 66 b 697 430 607 66 697 199 l 697 439 l 159 439 l 159 423 b 429 66 159 208 264 66 "},"Ӛ":{"ha":859,"x_min":0,"x_max":0,"o":"m 429 -20 b 68 421 193 -20 68 182 l 68 523 l 697 523 l 697 544 b 422 913 697 789 594 913 b 161 680 282 913 189 829 l 68 680 b 422 999 92 876 228 999 b 791 530 661 999 791 827 l 791 478 b 429 -20 791 159 673 -20 m 429 66 b 697 430 607 66 697 199 l 697 439 l 159 439 l 159 423 b 429 66 159 208 264 66 m 283 1130 b 211 1202 245 1130 211 1164 b 283 1275 211 1241 245 1275 b 355 1202 321 1275 355 1241 b 283 1130 355 1164 321 1130 m 542 1130 b 470 1202 504 1130 470 1164 b 542 1275 470 1241 504 1275 b 614 1202 580 1275 614 1241 b 542 1130 614 1164 580 1130 "},"Ӡ":{"ha":859,"x_min":0,"x_max":0,"o":"m 747 292 b 427 -20 747 97 620 -20 b 105 223 248 -20 119 78 l 191 223 b 429 61 201 134 292 61 b 658 290 570 61 658 142 b 372 505 658 431 561 505 l 305 505 l 305 583 l 574 889 l 574 895 l 135 895 l 135 979 l 702 979 l 702 909 l 416 585 l 416 580 b 747 292 617 568 747 464 "},"Ԑ":{"ha":859,"x_min":0,"x_max":0,"o":"m 442 462 b 176 267 275 462 176 389 b 434 63 176 142 281 63 b 694 250 578 63 686 141 l 784 250 b 433 -20 777 92 632 -20 b 81 264 227 -20 81 95 b 316 506 81 407 174 494 l 316 514 b 127 742 201 539 127 622 b 437 999 127 891 257 999 b 763 734 624 999 751 895 l 672 734 b 441 916 663 844 572 916 b 221 734 308 916 221 844 b 446 545 221 621 312 545 l 573 545 l 573 462 "},"Ѵ":{"ha":859,"x_min":0,"x_max":0,"o":"m 579 823 b 757 1000 610 938 649 1000 b 845 979 809 1000 845 979 l 817 901 b 758 913 817 901 789 913 b 672 830 709 913 688 886 l 441 0 l 350 0 l 61 979 l 155 979 l 395 128 l 396 128 l 579 823 "},"Ԝ":{"ha":859,"x_min":0,"x_max":0,"o":"m 436 621 l 276 0 l 184 0 l 10 979 l 100 979 l 233 144 l 239 144 l 393 755 l 486 755 l 640 144 l 646 144 l 779 979 l 869 979 l 694 0 l 603 0 l 443 621 "},"Ѕ":{"ha":859,"x_min":0,"x_max":0,"o":"m 198 254 b 441 64 211 137 304 64 b 672 256 581 64 672 140 b 471 444 672 350 610 408 l 394 464 b 130 736 210 512 130 595 b 441 999 130 895 252 999 b 750 739 618 999 741 897 l 657 739 b 441 914 644 850 564 914 b 224 736 305 914 224 848 b 418 555 224 644 283 590 l 498 534 b 767 256 688 484 767 403 b 441 -20 767 90 637 -20 b 105 254 246 -20 117 85 "},"Ј":{"ha":859,"x_min":0,"x_max":0,"o":"m 400 -20 b 128 224 241 -20 130 80 l 220 224 b 399 66 224 130 298 66 b 585 270 518 66 585 140 l 585 899 l 254 899 l 254 979 l 678 979 l 678 267 b 400 -20 678 88 572 -20 "},"a":{"ha":859,"x_min":0,"x_max":0,"o":"m 365 -13 b 132 206 224 -13 132 74 b 385 418 132 334 223 411 l 596 428 l 596 497 b 424 659 596 602 536 659 b 248 549 332 659 268 620 l 159 549 b 424 736 173 659 283 736 b 686 501 589 736 686 650 l 686 -1 l 600 -1 l 600 115 l 591 115 b 365 -13 556 33 475 -13 m 387 66 b 596 252 505 66 596 147 l 596 354 l 391 345 b 223 206 281 340 223 292 b 387 66 223 119 286 66 "},"à":{"ha":859,"x_min":0,"x_max":0,"o":"m 365 -13 b 132 206 224 -13 132 74 b 385 418 132 334 223 411 l 596 428 l 596 497 b 424 659 596 602 536 659 b 248 549 332 659 268 620 l 159 549 b 424 736 173 659 283 736 b 686 501 589 736 686 650 l 686 -1 l 600 -1 l 600 115 l 591 115 b 365 -13 556 33 475 -13 m 387 66 b 596 252 505 66 596 147 l 596 354 l 391 345 b 223 206 281 340 223 292 b 387 66 223 119 286 66 m 404 879 l 229 1104 l 345 1104 l 507 879 "},"á":{"ha":859,"x_min":0,"x_max":0,"o":"m 373 879 l 534 1104 l 651 1104 l 475 879 m 391 345 b 223 206 281 340 223 292 b 387 66 223 119 286 66 b 596 252 505 66 596 147 l 596 354 m 591 115 b 365 -13 556 33 475 -13 b 132 206 224 -13 132 74 b 385 418 132 334 223 411 l 596 428 l 596 497 b 424 659 596 602 536 659 b 248 549 332 659 268 620 l 159 549 b 424 736 173 659 283 736 b 686 501 589 736 686 650 l 686 -1 l 600 -1 l 600 115 "},"ä":{"ha":859,"x_min":0,"x_max":0,"o":"m 365 -13 b 132 206 224 -13 132 74 b 385 418 132 334 223 411 l 596 428 l 596 497 b 424 659 596 602 536 659 b 248 549 332 659 268 620 l 159 549 b 424 736 173 659 283 736 b 686 501 589 736 686 650 l 686 -1 l 600 -1 l 600 115 l 591 115 b 365 -13 556 33 475 -13 m 387 66 b 596 252 505 66 596 147 l 596 354 l 391 345 b 223 206 281 340 223 292 b 387 66 223 119 286 66 m 294 886 b 222 958 256 886 222 920 b 294 1031 222 997 256 1031 b 366 958 332 1031 366 997 b 294 886 366 920 332 886 m 553 886 b 481 958 515 886 481 920 b 553 1031 481 997 515 1031 b 625 958 591 1031 625 997 b 553 886 625 920 591 886 "},"ǟ":{"ha":859,"x_min":0,"x_max":0,"o":"m 553 1047 b 625 975 591 1047 625 1013 b 553 902 625 936 591 902 b 481 975 515 902 481 936 b 553 1047 481 1013 515 1047 m 294 1047 b 366 975 332 1047 366 1013 b 294 902 366 936 332 902 b 222 975 256 902 222 936 b 294 1047 222 1013 256 1047 m 208 1175 l 208 1255 l 640 1255 l 640 1175 m 391 345 b 223 206 281 340 223 292 b 387 66 223 119 286 66 b 596 252 505 66 596 147 l 596 354 m 591 115 b 365 -13 556 33 475 -13 b 132 206 224 -13 132 74 b 385 418 132 334 223 411 l 596 428 l 596 497 b 424 659 596 602 536 659 b 248 549 332 659 268 620 l 159 549 b 424 736 173 659 283 736 b 686 501 589 736 686 650 l 686 -1 l 600 -1 l 600 115 "},"å":{"ha":859,"x_min":0,"x_max":0,"o":"m 365 -13 b 132 206 224 -13 132 74 b 385 418 132 334 223 411 l 596 428 l 596 497 b 424 659 596 602 536 659 b 248 549 332 659 268 620 l 159 549 b 424 736 173 659 283 736 b 686 501 589 736 686 650 l 686 -1 l 600 -1 l 600 115 l 591 115 b 365 -13 556 33 475 -13 m 387 66 b 596 252 505 66 596 147 l 596 354 l 391 345 b 223 206 281 340 223 292 b 387 66 223 119 286 66 m 424 916 b 508 1005 472 916 508 954 b 424 1094 508 1056 472 1094 b 340 1005 376 1094 340 1056 b 424 916 340 954 376 916 m 424 852 b 274 1005 341 852 274 920 b 424 1158 274 1090 341 1158 b 574 1005 507 1158 574 1090 b 424 852 574 920 507 852 "},"ǻ":{"ha":859,"x_min":0,"x_max":0,"o":"m 380 1162 l 492 1325 l 598 1325 l 469 1162 m 424 836 b 294 963 352 836 294 892 b 424 1090 294 1034 352 1090 b 553 963 496 1090 553 1034 b 424 836 553 892 496 836 m 424 888 b 497 963 465 888 497 921 b 424 1038 497 1005 465 1038 b 351 963 382 1038 351 1005 b 424 888 351 921 382 888 m 391 345 b 223 206 281 340 223 292 b 387 66 223 119 286 66 b 596 252 505 66 596 147 l 596 354 m 591 115 b 365 -13 556 33 475 -13 b 132 206 224 -13 132 74 b 385 418 132 334 223 411 l 596 428 l 596 497 b 424 659 596 602 536 659 b 248 549 332 659 268 620 l 159 549 b 424 736 173 659 283 736 b 686 501 589 736 686 650 l 686 -1 l 600 -1 l 600 115 "},"ã":{"ha":859,"x_min":0,"x_max":0,"o":"m 365 -13 b 132 206 224 -13 132 74 b 385 418 132 334 223 411 l 596 428 l 596 497 b 424 659 596 602 536 659 b 248 549 332 659 268 620 l 159 549 b 424 736 173 659 283 736 b 686 501 589 736 686 650 l 686 -1 l 600 -1 l 600 115 l 591 115 b 365 -13 556 33 475 -13 m 387 66 b 596 252 505 66 596 147 l 596 354 l 391 345 b 223 206 281 340 223 292 b 387 66 223 119 286 66 m 325 970 b 264 859 281 970 264 939 l 181 859 b 328 1048 181 979 235 1048 b 523 938 435 1048 463 938 b 583 1049 566 938 583 969 l 667 1049 b 520 859 667 929 612 859 b 325 970 412 859 385 970 "},"ằ":{"ha":859,"x_min":0,"x_max":0,"o":"m 281 1069 b 424 927 280 989 330 927 b 566 1069 517 927 567 989 l 656 1069 b 424 853 656 945 570 853 b 191 1069 278 853 191 945 m 488 1131 l 392 1131 l 237 1332 l 348 1332 m 391 345 b 223 206 281 340 223 292 b 387 66 223 119 286 66 b 596 252 505 66 596 147 l 596 354 m 591 115 b 365 -13 556 33 475 -13 b 132 206 224 -13 132 74 b 385 418 132 334 223 411 l 596 428 l 596 497 b 424 659 596 602 536 659 b 248 549 332 659 268 620 l 159 549 b 424 736 173 659 283 736 b 686 501 589 736 686 650 l 686 -1 l 600 -1 l 600 115 "},"ǡ":{"ha":859,"x_min":0,"x_max":0,"o":"m 365 -13 b 132 206 224 -13 132 74 b 385 418 132 334 223 411 l 596 428 l 596 497 b 424 659 596 602 536 659 b 248 549 332 659 268 620 l 159 549 b 424 736 173 659 283 736 b 686 501 589 736 686 650 l 686 -1 l 600 -1 l 600 115 l 591 115 b 365 -13 556 33 475 -13 m 387 66 b 596 252 505 66 596 147 l 596 354 l 391 345 b 223 206 281 340 223 292 b 387 66 223 119 286 66 m 208 1175 l 208 1255 l 640 1255 l 640 1175 m 424 886 b 347 963 382 886 347 922 b 424 1040 347 1004 382 1040 b 501 963 465 1040 501 1004 b 424 886 501 922 465 886 "},"ḁ":{"ha":859,"x_min":0,"x_max":0,"o":"m 365 -13 b 132 206 224 -13 132 74 b 385 418 132 334 223 411 l 596 428 l 596 497 b 424 659 596 602 536 659 b 248 549 332 659 268 620 l 159 549 b 424 736 173 659 283 736 b 686 501 589 736 686 650 l 686 -1 l 600 -1 l 600 115 l 591 115 b 365 -13 556 33 475 -13 m 387 66 b 596 252 505 66 596 147 l 596 354 l 391 345 b 223 206 281 340 223 292 b 387 66 223 119 286 66 m 409 -325 b 493 -236 457 -325 493 -287 b 409 -147 493 -185 457 -147 b 325 -236 361 -147 325 -185 b 409 -325 325 -287 361 -325 m 409 -389 b 259 -236 326 -389 259 -321 b 409 -83 259 -151 326 -83 b 559 -236 492 -83 559 -151 b 409 -389 559 -321 492 -389 "},"â":{"ha":859,"x_min":0,"x_max":0,"o":"m 365 -13 b 132 206 224 -13 132 74 b 385 418 132 334 223 411 l 596 428 l 596 497 b 424 659 596 602 536 659 b 248 549 332 659 268 620 l 159 549 b 424 736 173 659 283 736 b 686 501 589 736 686 650 l 686 -1 l 600 -1 l 600 115 l 591 115 b 365 -13 556 33 475 -13 m 387 66 b 596 252 505 66 596 147 l 596 354 l 391 345 b 223 206 281 340 223 292 b 387 66 223 119 286 66 m 481 1099 l 668 872 l 553 872 l 429 1031 l 419 1031 l 295 872 l 180 872 l 367 1099 "},"ậ":{"ha":859,"x_min":0,"x_max":0,"o":"m 365 -13 b 132 206 224 -13 132 74 b 385 418 132 334 223 411 l 596 428 l 596 497 b 424 659 596 602 536 659 b 248 549 332 659 268 620 l 159 549 b 424 736 173 659 283 736 b 686 501 589 736 686 650 l 686 -1 l 600 -1 l 600 115 l 591 115 b 365 -13 556 33 475 -13 m 387 66 b 596 252 505 66 596 147 l 596 354 l 391 345 b 223 206 281 340 223 292 b 387 66 223 119 286 66 m 481 1099 l 668 872 l 553 872 l 429 1031 l 419 1031 l 295 872 l 180 872 l 367 1099 m 409 -285 b 332 -208 368 -285 332 -250 b 409 -132 332 -167 368 -132 b 486 -208 450 -132 486 -167 b 409 -285 486 -250 450 -285 "},"ấ":{"ha":859,"x_min":0,"x_max":0,"o":"m 365 -13 b 132 206 224 -13 132 74 b 385 418 132 334 223 411 l 596 428 l 596 497 b 424 659 596 602 536 659 b 248 549 332 659 268 620 l 159 549 b 424 736 173 659 283 736 b 686 501 589 736 686 650 l 686 -1 l 600 -1 l 600 115 l 591 115 b 365 -13 556 33 475 -13 m 387 66 b 596 252 505 66 596 147 l 596 354 l 391 345 b 223 206 281 340 223 292 b 387 66 223 119 286 66 m 695 1332 l 806 1332 l 651 1131 l 555 1131 m 481 1099 l 668 872 l 553 872 l 429 1031 l 419 1031 l 295 872 l 180 872 l 367 1099 "},"ẫ":{"ha":859,"x_min":0,"x_max":0,"o":"m 365 -13 b 132 206 224 -13 132 74 b 385 418 132 334 223 411 l 596 428 l 596 497 b 424 659 596 602 536 659 b 248 549 332 659 268 620 l 159 549 b 424 736 173 659 283 736 b 686 501 589 736 686 650 l 686 -1 l 600 -1 l 600 115 l 591 115 b 365 -13 556 33 475 -13 m 387 66 b 596 252 505 66 596 147 l 596 354 l 391 345 b 223 206 281 340 223 292 b 387 66 223 119 286 66 m 325 1276 b 264 1164 281 1276 264 1244 l 181 1164 b 328 1353 181 1284 235 1353 b 523 1243 435 1353 463 1243 b 583 1354 566 1243 583 1274 l 667 1354 b 520 1164 667 1234 612 1164 b 325 1276 412 1164 385 1276 m 481 1099 l 668 872 l 553 872 l 429 1031 l 419 1031 l 295 872 l 180 872 l 367 1099 "},"ầ":{"ha":859,"x_min":0,"x_max":0,"o":"m 365 -13 b 132 206 224 -13 132 74 b 385 418 132 334 223 411 l 596 428 l 596 497 b 424 659 596 602 536 659 b 248 549 332 659 268 620 l 159 549 b 424 736 173 659 283 736 b 686 501 589 736 686 650 l 686 -1 l 600 -1 l 600 115 l 591 115 b 365 -13 556 33 475 -13 m 387 66 b 596 252 505 66 596 147 l 596 354 l 391 345 b 223 206 281 340 223 292 b 387 66 223 119 286 66 m 619 1131 l 464 1332 l 575 1332 l 715 1131 m 481 1099 l 668 872 l 553 872 l 429 1031 l 419 1031 l 295 872 l 180 872 l 367 1099 "},"ẩ":{"ha":859,"x_min":0,"x_max":0,"o":"m 365 -13 b 132 206 224 -13 132 74 b 385 418 132 334 223 411 l 596 428 l 596 497 b 424 659 596 602 536 659 b 248 549 332 659 268 620 l 159 549 b 424 736 173 659 283 736 b 686 501 589 736 686 650 l 686 -1 l 600 -1 l 600 115 l 591 115 b 365 -13 556 33 475 -13 m 387 66 b 596 252 505 66 596 147 l 596 354 l 391 345 b 223 206 281 340 223 292 b 387 66 223 119 286 66 m 481 1099 l 668 872 l 553 872 l 429 1031 l 419 1031 l 295 872 l 180 872 l 367 1099 m 507 1331 b 600 1350 530 1343 567 1350 b 729 1234 677 1350 729 1303 b 621 1101 729 1175 688 1125 l 581 1155 b 648 1227 621 1168 648 1198 b 581 1282 648 1259 621 1282 b 507 1263 555 1282 528 1275 "},"ă":{"ha":859,"x_min":0,"x_max":0,"o":"m 365 -13 b 132 206 224 -13 132 74 b 385 418 132 334 223 411 l 596 428 l 596 497 b 424 659 596 602 536 659 b 248 549 332 659 268 620 l 159 549 b 424 736 173 659 283 736 b 686 501 589 736 686 650 l 686 -1 l 600 -1 l 600 115 l 591 115 b 365 -13 556 33 475 -13 m 387 66 b 596 252 505 66 596 147 l 596 354 l 391 345 b 223 206 281 340 223 292 b 387 66 223 119 286 66 m 424 927 b 567 1069 517 927 568 989 l 656 1069 b 424 853 656 945 570 853 b 191 1069 278 853 191 945 l 281 1069 b 424 927 281 989 331 927 "},"ắ":{"ha":859,"x_min":0,"x_max":0,"o":"m 365 -13 b 132 206 224 -13 132 74 b 385 418 132 334 223 411 l 596 428 l 596 497 b 424 659 596 602 536 659 b 248 549 332 659 268 620 l 159 549 b 424 736 173 659 283 736 b 686 501 589 736 686 650 l 686 -1 l 600 -1 l 600 115 l 591 115 b 365 -13 556 33 475 -13 m 387 66 b 596 252 505 66 596 147 l 596 354 l 391 345 b 223 206 281 340 223 292 b 387 66 223 119 286 66 m 500 1332 l 611 1332 l 456 1131 l 359 1131 m 424 927 b 567 1069 517 927 568 989 l 656 1069 b 424 853 656 945 570 853 b 191 1069 278 853 191 945 l 281 1069 b 424 927 281 989 331 927 "},"ẵ":{"ha":859,"x_min":0,"x_max":0,"o":"m 365 -13 b 132 206 224 -13 132 74 b 385 418 132 334 223 411 l 596 428 l 596 497 b 424 659 596 602 536 659 b 248 549 332 659 268 620 l 159 549 b 424 736 173 659 283 736 b 686 501 589 736 686 650 l 686 -1 l 600 -1 l 600 115 l 591 115 b 365 -13 556 33 475 -13 m 387 66 b 596 252 505 66 596 147 l 596 354 l 391 345 b 223 206 281 340 223 292 b 387 66 223 119 286 66 m 424 927 b 567 1069 517 927 568 989 l 656 1069 b 424 853 656 945 570 853 b 191 1069 278 853 191 945 l 281 1069 b 424 927 281 989 331 927 m 325 1259 b 264 1147 281 1259 264 1228 l 181 1147 b 328 1337 181 1267 235 1337 b 523 1227 435 1337 463 1227 b 583 1338 566 1227 583 1258 l 667 1338 b 520 1148 667 1218 612 1148 b 325 1259 412 1148 385 1259 "},"ẳ":{"ha":859,"x_min":0,"x_max":0,"o":"m 365 -13 b 132 206 224 -13 132 74 b 385 418 132 334 223 411 l 596 428 l 596 497 b 424 659 596 602 536 659 b 248 549 332 659 268 620 l 159 549 b 424 736 173 659 283 736 b 686 501 589 736 686 650 l 686 -1 l 600 -1 l 600 115 l 591 115 b 365 -13 556 33 475 -13 m 387 66 b 596 252 505 66 596 147 l 596 354 l 391 345 b 223 206 281 340 223 292 b 387 66 223 119 286 66 m 424 927 b 567 1069 517 927 568 989 l 656 1069 b 424 853 656 945 570 853 b 191 1069 278 853 191 945 l 281 1069 b 424 927 281 989 331 927 m 313 1331 b 406 1350 337 1343 374 1350 b 536 1234 484 1350 536 1303 b 428 1101 536 1175 495 1125 l 387 1155 b 455 1227 427 1168 455 1198 b 387 1282 455 1259 427 1282 b 313 1263 362 1282 335 1275 "},"ặ":{"ha":859,"x_min":0,"x_max":0,"o":"m 365 -13 b 132 206 224 -13 132 74 b 385 418 132 334 223 411 l 596 428 l 596 497 b 424 659 596 602 536 659 b 248 549 332 659 268 620 l 159 549 b 424 736 173 659 283 736 b 686 501 589 736 686 650 l 686 -1 l 600 -1 l 600 115 l 591 115 b 365 -13 556 33 475 -13 m 387 66 b 596 252 505 66 596 147 l 596 354 l 391 345 b 223 206 281 340 223 292 b 387 66 223 119 286 66 m 424 927 b 567 1069 517 927 568 989 l 656 1069 b 424 853 656 945 570 853 b 191 1069 278 853 191 945 l 281 1069 b 424 927 281 989 331 927 m 409 -298 b 332 -222 368 -298 332 -263 b 409 -145 332 -180 368 -145 b 486 -222 450 -145 486 -180 b 409 -298 486 -263 450 -298 "},"ȃ":{"ha":859,"x_min":0,"x_max":0,"o":"m 567 853 b 424 996 568 934 517 996 b 281 853 331 996 281 934 l 191 853 b 424 1069 191 977 278 1069 b 656 853 570 1069 656 977 m 391 345 b 223 206 281 340 223 292 b 387 66 223 119 286 66 b 596 252 505 66 596 147 l 596 354 m 591 115 b 365 -13 556 33 475 -13 b 132 206 224 -13 132 74 b 385 418 132 334 223 411 l 596 428 l 596 497 b 424 659 596 602 536 659 b 248 549 332 659 268 620 l 159 549 b 424 736 173 659 283 736 b 686 501 589 736 686 650 l 686 -1 l 600 -1 l 600 115 "},"ǎ":{"ha":859,"x_min":0,"x_max":0,"o":"m 367 879 l 180 1106 l 295 1106 l 419 947 l 429 947 l 553 1106 l 668 1106 l 481 879 m 391 345 b 223 206 281 340 223 292 b 387 66 223 119 286 66 b 596 252 505 66 596 147 l 596 354 m 591 115 b 365 -13 556 33 475 -13 b 132 206 224 -13 132 74 b 385 418 132 334 223 411 l 596 428 l 596 497 b 424 659 596 602 536 659 b 248 549 332 659 268 620 l 159 549 b 424 736 173 659 283 736 b 686 501 589 736 686 650 l 686 -1 l 600 -1 l 600 115 "},"ȧ":{"ha":859,"x_min":0,"x_max":0,"o":"m 365 -13 b 132 206 224 -13 132 74 b 385 418 132 334 223 411 l 596 428 l 596 497 b 424 659 596 602 536 659 b 248 549 332 659 268 620 l 159 549 b 424 736 173 659 283 736 b 686 501 589 736 686 650 l 686 -1 l 600 -1 l 600 115 l 591 115 b 365 -13 556 33 475 -13 m 387 66 b 596 252 505 66 596 147 l 596 354 l 391 345 b 223 206 281 340 223 292 b 387 66 223 119 286 66 m 424 886 b 347 963 382 886 347 922 b 424 1040 347 1004 382 1040 b 501 963 465 1040 501 1004 b 424 886 501 922 465 886 "},"ạ":{"ha":859,"x_min":0,"x_max":0,"o":"m 365 -13 b 132 206 224 -13 132 74 b 385 418 132 334 223 411 l 596 428 l 596 497 b 424 659 596 602 536 659 b 248 549 332 659 268 620 l 159 549 b 424 736 173 659 283 736 b 686 501 589 736 686 650 l 686 -1 l 600 -1 l 600 115 l 591 115 b 365 -13 556 33 475 -13 m 387 66 b 596 252 505 66 596 147 l 596 354 l 391 345 b 223 206 281 340 223 292 b 387 66 223 119 286 66 m 409 -298 b 332 -222 368 -298 332 -263 b 409 -145 332 -180 368 -145 b 486 -222 450 -145 486 -180 b 409 -298 486 -263 450 -298 "},"ả":{"ha":859,"x_min":0,"x_max":0,"o":"m 365 -13 b 132 206 224 -13 132 74 b 385 418 132 334 223 411 l 596 428 l 596 497 b 424 659 596 602 536 659 b 248 549 332 659 268 620 l 159 549 b 424 736 173 659 283 736 b 686 501 589 736 686 650 l 686 -1 l 600 -1 l 600 115 l 591 115 b 365 -13 556 33 475 -13 m 387 66 b 596 252 505 66 596 147 l 596 354 l 391 345 b 223 206 281 340 223 292 b 387 66 223 119 286 66 m 314 1080 b 407 1099 338 1092 374 1099 b 536 983 484 1099 536 1052 b 429 850 536 924 496 874 l 388 904 b 456 977 428 917 456 947 b 388 1031 456 1008 428 1031 b 314 1013 363 1031 336 1024 "},"ȁ":{"ha":859,"x_min":0,"x_max":0,"o":"m 612 879 l 509 879 l 334 1104 l 450 1104 m 357 879 l 254 879 l 79 1104 l 195 1104 m 391 345 b 223 206 281 340 223 292 b 387 66 223 119 286 66 b 596 252 505 66 596 147 l 596 354 m 591 115 b 365 -13 556 33 475 -13 b 132 206 224 -13 132 74 b 385 418 132 334 223 411 l 596 428 l 596 497 b 424 659 596 602 536 659 b 248 549 332 659 268 620 l 159 549 b 424 736 173 659 283 736 b 686 501 589 736 686 650 l 686 -1 l 600 -1 l 600 115 "},"ā":{"ha":859,"x_min":0,"x_max":0,"o":"m 365 -13 b 132 206 224 -13 132 74 b 385 418 132 334 223 411 l 596 428 l 596 497 b 424 659 596 602 536 659 b 248 549 332 659 268 620 l 159 549 b 424 736 173 659 283 736 b 686 501 589 736 686 650 l 686 -1 l 600 -1 l 600 115 l 591 115 b 365 -13 556 33 475 -13 m 387 66 b 596 252 505 66 596 147 l 596 354 l 391 345 b 223 206 281 340 223 292 b 387 66 223 119 286 66 m 208 934 l 208 1014 l 640 1014 l 640 934 "},"ą":{"ha":859,"x_min":0,"x_max":0,"o":"m 387 66 b 596 253 505 66 596 148 l 596 355 l 391 346 b 223 207 281 341 223 292 b 387 66 223 120 286 66 m 600 115 l 591 115 b 365 -12 556 33 475 -12 b 132 207 224 -12 132 75 b 385 419 132 335 223 412 l 596 429 l 596 498 b 424 660 596 603 536 660 b 248 550 332 660 268 621 l 159 550 b 424 737 173 659 283 737 b 686 502 589 737 686 650 l 686 0 l 685 0 b 571 -140 615 -35 571 -90 b 644 -205 571 -181 598 -205 b 686 -199 662 -205 677 -203 l 686 -273 b 623 -283 675 -279 648 -283 b 486 -159 541 -283 486 -234 b 600 0 486 -97 524 -43 "},"b":{"ha":859,"x_min":0,"x_max":0,"o":"m 462 -12 b 237 105 358 -12 280 28 l 225 105 l 225 0 l 140 0 l 140 1021 l 229 1021 l 229 623 l 241 623 b 462 743 276 699 356 743 b 747 435 631 743 747 618 l 747 295 b 462 -12 747 113 631 -12 m 442 67 b 658 316 573 67 658 165 l 658 414 b 442 663 658 564 573 663 b 227 414 312 663 227 565 l 227 316 b 442 67 227 165 312 67 "},"ḇ":{"ha":859,"x_min":0,"x_max":0,"o":"m 462 -12 b 237 105 358 -12 280 28 l 225 105 l 225 0 l 140 0 l 140 1021 l 229 1021 l 229 623 l 241 623 b 462 743 276 699 356 743 b 747 435 631 743 747 618 l 747 295 b 462 -12 747 113 631 -12 m 442 67 b 658 316 573 67 658 165 l 658 414 b 442 663 658 564 573 663 b 227 414 312 663 227 565 l 227 316 b 442 67 227 165 312 67 m 213 -262 l 213 -182 l 646 -182 l 646 -262 "},"ḅ":{"ha":859,"x_min":0,"x_max":0,"o":"m 462 -12 b 237 105 358 -12 280 28 l 225 105 l 225 0 l 140 0 l 140 1021 l 229 1021 l 229 623 l 241 623 b 462 743 276 699 356 743 b 747 435 631 743 747 618 l 747 295 b 462 -12 747 113 631 -12 m 442 67 b 658 316 573 67 658 165 l 658 414 b 442 663 658 564 573 663 b 227 414 312 663 227 565 l 227 316 b 442 67 227 165 312 67 m 429 -298 b 352 -222 388 -298 352 -263 b 429 -145 352 -180 388 -145 b 507 -222 471 -145 507 -180 b 429 -298 507 -263 471 -298 "},"ḃ":{"ha":859,"x_min":0,"x_max":0,"o":"m 462 -12 b 237 105 358 -12 280 28 l 225 105 l 225 0 l 140 0 l 140 1021 l 229 1021 l 229 623 l 241 623 b 462 743 276 699 356 743 b 747 435 631 743 747 618 l 747 295 b 462 -12 747 113 631 -12 m 442 67 b 658 316 573 67 658 165 l 658 414 b 442 663 658 564 573 663 b 227 414 312 663 227 565 l 227 316 b 442 67 227 165 312 67 m 497 886 b 420 963 456 886 420 922 b 497 1040 420 1004 456 1040 b 574 963 538 1040 574 1004 b 497 886 574 922 538 886 "},"c":{"ha":859,"x_min":0,"x_max":0,"o":"m 635 515 b 440 663 621 602 540 663 b 224 402 301 663 224 570 l 224 328 b 440 68 224 161 301 68 b 635 215 540 68 621 128 l 724 215 b 442 -12 705 78 593 -12 b 135 313 250 -12 135 110 l 135 417 b 442 743 135 621 250 743 b 724 515 593 743 705 652 "},"ć":{"ha":859,"x_min":0,"x_max":0,"o":"m 380 879 l 542 1104 l 659 1104 l 483 879 m 635 515 b 440 663 621 602 540 663 b 224 402 301 663 224 570 l 224 328 b 440 68 224 161 301 68 b 635 215 540 68 621 128 l 724 215 b 442 -12 705 78 593 -12 b 135 313 250 -12 135 110 l 135 417 b 442 743 135 621 250 743 b 724 515 593 743 705 652 "},"č":{"ha":859,"x_min":0,"x_max":0,"o":"m 374 879 l 187 1106 l 302 1106 l 427 947 l 436 947 l 560 1106 l 675 1106 l 488 879 m 635 515 b 440 663 621 602 540 663 b 224 402 301 663 224 570 l 224 328 b 440 68 224 161 301 68 b 635 215 540 68 621 128 l 724 215 b 442 -12 705 78 593 -12 b 135 313 250 -12 135 110 l 135 417 b 442 743 135 621 250 743 b 724 515 593 743 705 652 "},"ĉ":{"ha":859,"x_min":0,"x_max":0,"o":"m 635 515 b 440 663 621 602 540 663 b 224 402 301 663 224 570 l 224 328 b 440 68 224 161 301 68 b 635 215 540 68 621 128 l 724 215 b 442 -12 705 78 593 -12 b 135 313 250 -12 135 110 l 135 417 b 442 743 135 621 250 743 b 724 515 593 743 705 652 m 488 1099 l 675 872 l 560 872 l 436 1031 l 427 1031 l 302 872 l 187 872 l 374 1099 "},"ċ":{"ha":859,"x_min":0,"x_max":0,"o":"m 635 515 b 440 663 621 602 540 663 b 224 402 301 663 224 570 l 224 328 b 440 68 224 161 301 68 b 635 215 540 68 621 128 l 724 215 b 442 -12 705 78 593 -12 b 135 313 250 -12 135 110 l 135 417 b 442 743 135 621 250 743 b 724 515 593 743 705 652 m 431 893 b 354 970 390 893 354 928 b 431 1046 354 1011 390 1046 b 509 970 473 1046 509 1011 b 431 893 509 928 473 893 "},"ç":{"ha":859,"x_min":0,"x_max":0,"o":"m 224 328 b 440 68 224 161 301 68 b 635 215 540 68 621 128 l 724 215 b 473 -11 706 87 608 1 l 440 -98 b 578 -205 529 -96 578 -134 b 422 -328 578 -279 515 -328 b 334 -316 389 -328 368 -326 l 334 -250 b 416 -260 351 -255 392 -260 b 496 -207 467 -260 496 -241 b 393 -159 496 -173 467 -159 l 355 -159 l 355 -111 l 395 -9 b 135 313 231 9 135 127 l 135 417 b 442 743 135 621 250 743 b 724 515 593 743 705 652 l 635 515 b 440 663 621 602 540 663 b 224 402 301 663 224 570 "},"ḉ":{"ha":859,"x_min":0,"x_max":0,"o":"m 483 879 l 380 879 l 542 1104 l 659 1104 m 224 328 b 440 68 224 161 301 68 b 635 215 540 68 621 128 l 724 215 b 475 -11 706 88 610 1 l 442 -98 b 580 -205 531 -96 580 -134 b 424 -328 580 -279 517 -328 b 336 -316 391 -328 370 -326 l 336 -250 b 418 -260 353 -255 394 -260 b 498 -207 469 -260 498 -241 b 395 -159 498 -173 469 -159 l 357 -159 l 357 -111 l 396 -9 b 135 313 232 8 135 127 l 135 417 b 442 743 135 621 250 743 b 724 515 593 743 705 652 l 635 515 b 440 663 621 602 540 663 b 224 402 301 663 224 570 "},"d":{"ha":859,"x_min":0,"x_max":0,"o":"m 201 316 b 416 67 201 165 286 67 b 631 316 547 67 631 165 l 631 414 b 416 663 631 565 547 663 b 201 414 286 663 201 564 m 621 105 b 397 -12 578 28 500 -12 b 112 295 227 -12 112 113 l 112 435 b 397 743 112 618 227 743 b 617 623 503 743 583 699 l 629 623 l 629 1021 l 718 1021 l 718 0 l 633 0 l 633 105 "},"ḋ":{"ha":859,"x_min":0,"x_max":0,"o":"m 361 886 b 284 963 320 886 284 922 b 361 1040 284 1004 320 1040 b 439 963 403 1040 439 1004 b 361 886 439 922 403 886 m 201 316 b 416 67 201 165 286 67 b 631 316 547 67 631 165 l 631 414 b 416 663 631 565 547 663 b 201 414 286 663 201 564 m 621 105 b 397 -12 578 28 500 -12 b 112 295 227 -12 112 113 l 112 435 b 397 743 112 618 227 743 b 617 623 503 743 583 699 l 629 623 l 629 1021 l 718 1021 l 718 0 l 633 0 l 633 105 "},"ḓ":{"ha":859,"x_min":0,"x_max":0,"o":"m 486 -115 l 673 -342 l 558 -342 l 434 -182 l 425 -182 l 300 -342 l 185 -342 l 372 -115 m 201 316 b 416 67 201 165 286 67 b 631 316 547 67 631 165 l 631 414 b 416 663 631 565 547 663 b 201 414 286 663 201 564 m 621 105 b 397 -12 578 28 500 -12 b 112 295 227 -12 112 113 l 112 435 b 397 743 112 618 227 743 b 617 623 503 743 583 699 l 629 623 l 629 1021 l 718 1021 l 718 0 l 633 0 l 633 105 "},"ḑ":{"ha":859,"x_min":0,"x_max":0,"o":"m 347 -355 l 416 -108 l 511 -108 l 433 -355 m 201 316 b 416 67 201 165 286 67 b 631 316 547 67 631 165 l 631 414 b 416 663 631 565 547 663 b 201 414 286 663 201 564 m 621 105 b 397 -12 578 28 500 -12 b 112 295 227 -12 112 113 l 112 435 b 397 743 112 618 227 743 b 617 623 503 743 583 699 l 629 623 l 629 1021 l 718 1021 l 718 0 l 633 0 l 633 105 "},"ḏ":{"ha":859,"x_min":0,"x_max":0,"o":"m 213 -262 l 213 -182 l 646 -182 l 646 -262 m 201 316 b 416 67 201 165 286 67 b 631 316 547 67 631 165 l 631 414 b 416 663 631 565 547 663 b 201 414 286 663 201 564 m 621 105 b 397 -12 578 28 500 -12 b 112 295 227 -12 112 113 l 112 435 b 397 743 112 618 227 743 b 617 623 503 743 583 699 l 629 623 l 629 1021 l 718 1021 l 718 0 l 633 0 l 633 105 "},"ď":{"ha":859,"x_min":0,"x_max":0,"o":"m 159 316 b 354 67 159 157 229 67 b 549 316 478 67 549 157 l 549 414 b 354 663 549 572 478 663 b 159 414 229 663 159 572 m 538 105 b 334 -12 492 23 431 -12 b 70 295 171 -12 70 105 l 70 435 b 334 743 70 625 171 743 b 534 623 434 743 498 705 l 547 623 l 547 1021 l 635 1021 l 635 0 l 551 0 l 551 105 m 829 1021 l 803 720 l 741 720 l 741 1021 "},"ḍ":{"ha":859,"x_min":0,"x_max":0,"o":"m 429 -298 b 352 -222 388 -298 352 -263 b 429 -145 352 -180 388 -145 b 507 -222 471 -145 507 -180 b 429 -298 507 -263 471 -298 m 201 316 b 416 67 201 165 286 67 b 631 316 547 67 631 165 l 631 414 b 416 663 631 565 547 663 b 201 414 286 663 201 564 m 621 105 b 397 -12 578 28 500 -12 b 112 295 227 -12 112 113 l 112 435 b 397 743 112 618 227 743 b 617 623 503 743 583 699 l 629 623 l 629 1021 l 718 1021 l 718 0 l 633 0 l 633 105 "},"đ":{"ha":859,"x_min":0,"x_max":0,"o":"m 631 414 b 416 663 631 565 547 663 b 201 414 286 663 201 564 l 201 316 b 416 67 201 165 286 67 b 631 316 547 67 631 165 m 831 867 l 718 867 l 718 0 l 633 0 l 633 105 l 621 105 b 397 -12 578 28 500 -12 b 112 295 227 -12 112 113 l 112 435 b 397 743 112 618 227 743 b 617 623 503 743 583 699 l 629 623 l 629 867 l 456 867 l 456 933 l 629 933 l 629 1021 l 718 1021 l 718 933 l 831 933 "},"e":{"ha":859,"x_min":0,"x_max":0,"o":"m 437 664 b 225 415 304 664 225 571 l 643 415 b 437 664 643 570 566 664 m 730 180 b 447 -12 705 64 594 -12 b 136 317 250 -12 136 109 l 136 424 b 437 743 136 616 256 743 b 733 399 625 743 733 618 l 733 342 l 225 342 l 225 317 b 447 67 225 164 311 67 b 642 180 547 67 619 109 "},"è":{"ha":859,"x_min":0,"x_max":0,"o":"m 437 664 b 225 415 304 664 225 571 l 643 415 b 437 664 643 570 566 664 m 730 180 b 447 -12 705 64 594 -12 b 136 317 250 -12 136 109 l 136 424 b 437 743 136 616 256 743 b 733 399 625 743 733 618 l 733 342 l 225 342 l 225 317 b 447 67 225 164 311 67 b 642 180 547 67 619 109 m 404 879 l 228 1104 l 345 1104 l 506 879 "},"ȅ":{"ha":859,"x_min":0,"x_max":0,"o":"m 623 879 l 520 879 l 345 1104 l 461 1104 m 368 879 l 265 879 l 90 1104 l 206 1104 m 730 180 b 447 -12 705 64 594 -12 b 136 317 250 -12 136 109 l 136 424 b 437 743 136 616 256 743 b 733 399 625 743 733 618 l 733 342 l 225 342 l 225 317 b 447 67 225 164 311 67 b 642 180 547 67 619 109 m 643 415 b 437 664 643 570 566 664 b 225 415 304 664 225 571 "},"é":{"ha":859,"x_min":0,"x_max":0,"o":"m 384 879 l 545 1104 l 662 1104 l 486 879 m 730 180 b 447 -12 705 64 594 -12 b 136 317 250 -12 136 109 l 136 424 b 437 743 136 616 256 743 b 733 399 625 743 733 618 l 733 342 l 225 342 l 225 317 b 447 67 225 164 311 67 b 642 180 547 67 619 109 m 643 415 b 437 664 643 570 566 664 b 225 415 304 664 225 571 "},"ê":{"ha":859,"x_min":0,"x_max":0,"o":"m 437 664 b 225 415 304 664 225 571 l 643 415 b 437 664 643 570 566 664 m 730 180 b 447 -12 705 64 594 -12 b 136 317 250 -12 136 109 l 136 424 b 437 743 136 616 256 743 b 733 399 625 743 733 618 l 733 342 l 225 342 l 225 317 b 447 67 225 164 311 67 b 642 180 547 67 619 109 m 492 1099 l 679 872 l 564 872 l 439 1031 l 430 1031 l 306 872 l 191 872 l 378 1099 "},"ể":{"ha":859,"x_min":0,"x_max":0,"o":"m 437 664 b 225 415 304 664 225 571 l 643 415 b 437 664 643 570 566 664 m 730 180 b 447 -12 705 64 594 -12 b 136 317 250 -12 136 109 l 136 424 b 437 743 136 616 256 743 b 733 399 625 743 733 618 l 733 342 l 225 342 l 225 317 b 447 67 225 164 311 67 b 642 180 547 67 619 109 m 492 1099 l 679 872 l 564 872 l 439 1031 l 430 1031 l 306 872 l 191 872 l 378 1099 m 517 1331 b 610 1350 541 1343 578 1350 b 740 1234 688 1350 740 1303 b 632 1101 740 1175 699 1125 l 591 1155 b 659 1227 631 1168 659 1198 b 591 1282 659 1259 631 1282 b 517 1263 566 1282 539 1275 "},"ề":{"ha":859,"x_min":0,"x_max":0,"o":"m 437 664 b 225 415 304 664 225 571 l 643 415 b 437 664 643 570 566 664 m 730 180 b 447 -12 705 64 594 -12 b 136 317 250 -12 136 109 l 136 424 b 437 743 136 616 256 743 b 733 399 625 743 733 618 l 733 342 l 225 342 l 225 317 b 447 67 225 164 311 67 b 642 180 547 67 619 109 m 630 1131 l 475 1332 l 586 1332 l 726 1131 m 492 1099 l 679 872 l 564 872 l 439 1031 l 430 1031 l 306 872 l 191 872 l 378 1099 "},"ễ":{"ha":859,"x_min":0,"x_max":0,"o":"m 437 664 b 225 415 304 664 225 571 l 643 415 b 437 664 643 570 566 664 m 730 180 b 447 -12 705 64 594 -12 b 136 317 250 -12 136 109 l 136 424 b 437 743 136 616 256 743 b 733 399 625 743 733 618 l 733 342 l 225 342 l 225 317 b 447 67 225 164 311 67 b 642 180 547 67 619 109 m 336 1276 b 275 1164 292 1276 275 1244 l 192 1164 b 338 1353 192 1284 245 1353 b 534 1243 446 1353 474 1243 b 594 1354 577 1243 594 1274 l 677 1354 b 531 1164 677 1234 623 1164 b 336 1276 423 1164 395 1276 m 492 1099 l 679 872 l 564 872 l 439 1031 l 430 1031 l 306 872 l 191 872 l 378 1099 "},"ệ":{"ha":859,"x_min":0,"x_max":0,"o":"m 437 664 b 225 415 304 664 225 571 l 643 415 b 437 664 643 570 566 664 m 730 180 b 447 -12 705 64 594 -12 b 136 317 250 -12 136 109 l 136 424 b 437 743 136 616 256 743 b 733 399 625 743 733 618 l 733 342 l 225 342 l 225 317 b 447 67 225 164 311 67 b 642 180 547 67 619 109 m 492 1099 l 679 872 l 564 872 l 439 1031 l 430 1031 l 306 872 l 191 872 l 378 1099 m 435 -298 b 357 -222 393 -298 357 -263 b 435 -145 357 -180 393 -145 b 512 -222 476 -145 512 -180 b 435 -298 512 -263 476 -298 "},"ế":{"ha":859,"x_min":0,"x_max":0,"o":"m 437 664 b 225 415 304 664 225 571 l 643 415 b 437 664 643 570 566 664 m 730 180 b 447 -12 705 64 594 -12 b 136 317 250 -12 136 109 l 136 424 b 437 743 136 616 256 743 b 733 399 625 743 733 618 l 733 342 l 225 342 l 225 317 b 447 67 225 164 311 67 b 642 180 547 67 619 109 m 706 1332 l 817 1332 l 662 1131 l 566 1131 m 492 1099 l 679 872 l 564 872 l 439 1031 l 430 1031 l 306 872 l 191 872 l 378 1099 "},"ë":{"ha":859,"x_min":0,"x_max":0,"o":"m 437 664 b 225 415 304 664 225 571 l 643 415 b 437 664 643 570 566 664 m 730 180 b 447 -12 705 64 594 -12 b 136 317 250 -12 136 109 l 136 424 b 437 743 136 616 256 743 b 733 399 625 743 733 618 l 733 342 l 225 342 l 225 317 b 447 67 225 164 311 67 b 642 180 547 67 619 109 m 304 902 b 233 975 267 902 233 936 b 304 1047 233 1013 267 1047 b 376 975 342 1047 376 1013 b 304 902 376 936 342 902 m 564 902 b 492 975 526 902 492 936 b 564 1047 492 1013 526 1047 b 635 975 602 1047 635 1013 b 564 902 635 936 602 902 "},"ẹ":{"ha":859,"x_min":0,"x_max":0,"o":"m 437 664 b 225 415 304 664 225 571 l 643 415 b 437 664 643 570 566 664 m 730 180 b 447 -12 705 64 594 -12 b 136 317 250 -12 136 109 l 136 424 b 437 743 136 616 256 743 b 733 399 625 743 733 618 l 733 342 l 225 342 l 225 317 b 447 67 225 164 311 67 b 642 180 547 67 619 109 m 435 -298 b 357 -222 393 -298 357 -263 b 435 -145 357 -180 393 -145 b 512 -222 476 -145 512 -180 b 435 -298 512 -263 476 -298 "},"ȇ":{"ha":859,"x_min":0,"x_max":0,"o":"m 578 853 b 435 996 578 934 528 996 b 292 853 342 996 292 934 l 202 853 b 435 1069 202 977 289 1069 b 667 853 581 1069 667 977 m 730 180 b 447 -12 705 64 594 -12 b 136 317 250 -12 136 109 l 136 424 b 437 743 136 616 256 743 b 733 399 625 743 733 618 l 733 342 l 225 342 l 225 317 b 447 67 225 164 311 67 b 642 180 547 67 619 109 m 643 415 b 437 664 643 570 566 664 b 225 415 304 664 225 571 "},"ẻ":{"ha":859,"x_min":0,"x_max":0,"o":"m 437 664 b 225 415 304 664 225 571 l 643 415 b 437 664 643 570 566 664 m 730 180 b 447 -12 705 64 594 -12 b 136 317 250 -12 136 109 l 136 424 b 437 743 136 616 256 743 b 733 399 625 743 733 618 l 733 342 l 225 342 l 225 317 b 447 67 225 164 311 67 b 642 180 547 67 619 109 m 325 1080 b 418 1099 349 1092 385 1099 b 547 983 495 1099 547 1052 b 439 850 547 924 507 874 l 399 904 b 467 977 439 917 467 947 b 399 1031 467 1008 439 1031 b 325 1013 374 1031 347 1024 "},"ě":{"ha":859,"x_min":0,"x_max":0,"o":"m 378 879 l 191 1106 l 306 1106 l 430 947 l 439 947 l 564 1106 l 679 1106 l 492 879 m 730 180 b 447 -12 705 64 594 -12 b 136 317 250 -12 136 109 l 136 424 b 437 743 136 616 256 743 b 733 399 625 743 733 618 l 733 342 l 225 342 l 225 317 b 447 67 225 164 311 67 b 642 180 547 67 619 109 m 643 415 b 437 664 643 570 566 664 b 225 415 304 664 225 571 "},"ē":{"ha":859,"x_min":0,"x_max":0,"o":"m 437 664 b 225 415 304 664 225 571 l 643 415 b 437 664 643 570 566 664 m 730 180 b 447 -12 705 64 594 -12 b 136 317 250 -12 136 109 l 136 424 b 437 743 136 616 256 743 b 733 399 625 743 733 618 l 733 342 l 225 342 l 225 317 b 447 67 225 164 311 67 b 642 180 547 67 619 109 m 218 934 l 218 1014 l 651 1014 l 651 934 "},"ḕ":{"ha":859,"x_min":0,"x_max":0,"o":"m 437 664 b 225 415 304 664 225 571 l 643 415 b 437 664 643 570 566 664 m 730 180 b 447 -12 705 64 594 -12 b 136 317 250 -12 136 109 l 136 424 b 437 743 136 616 256 743 b 733 399 625 743 733 618 l 733 342 l 225 342 l 225 317 b 447 67 225 164 311 67 b 642 180 547 67 619 109 m 407 1131 l 252 1332 l 356 1332 l 496 1131 m 218 934 l 218 1014 l 651 1014 l 651 934 "},"ḗ":{"ha":859,"x_min":0,"x_max":0,"o":"m 218 934 l 218 1014 l 651 1014 l 651 934 m 373 1131 l 513 1332 l 618 1332 l 463 1131 m 730 180 b 447 -12 705 64 594 -12 b 136 317 250 -12 136 109 l 136 424 b 437 743 136 616 256 743 b 733 399 625 743 733 618 l 733 342 l 225 342 l 225 317 b 447 67 225 164 311 67 b 642 180 547 67 619 109 m 643 415 b 437 664 643 570 566 664 b 225 415 304 664 225 571 "},"ẽ":{"ha":859,"x_min":0,"x_max":0,"o":"m 437 664 b 225 415 304 664 225 571 l 643 415 b 437 664 643 570 566 664 m 730 180 b 447 -12 705 64 594 -12 b 136 317 250 -12 136 109 l 136 424 b 437 743 136 616 256 743 b 733 399 625 743 733 618 l 733 342 l 225 342 l 225 317 b 447 67 225 164 311 67 b 642 180 547 67 619 109 m 336 970 b 275 859 292 970 275 939 l 192 859 b 338 1048 192 979 245 1048 b 534 938 446 1048 474 938 b 594 1049 577 938 594 969 l 677 1049 b 531 859 677 929 623 859 b 336 970 423 859 395 970 "},"ḙ":{"ha":859,"x_min":0,"x_max":0,"o":"m 437 664 b 225 415 304 664 225 571 l 643 415 b 437 664 643 570 566 664 m 730 180 b 447 -12 705 64 594 -12 b 136 317 250 -12 136 109 l 136 424 b 437 743 136 616 256 743 b 733 399 625 743 733 618 l 733 342 l 225 342 l 225 317 b 447 67 225 164 311 67 b 642 180 547 67 619 109 m 492 -115 l 679 -342 l 564 -342 l 439 -182 l 430 -182 l 306 -342 l 191 -342 l 378 -115 "},"ĕ":{"ha":859,"x_min":0,"x_max":0,"o":"m 437 664 b 225 415 304 664 225 571 l 643 415 b 437 664 643 570 566 664 m 730 180 b 447 -12 705 64 594 -12 b 136 317 250 -12 136 109 l 136 424 b 437 743 136 616 256 743 b 733 399 625 743 733 618 l 733 342 l 225 342 l 225 317 b 447 67 225 164 311 67 b 642 180 547 67 619 109 m 435 934 b 578 1076 528 934 578 996 l 667 1076 b 435 860 667 952 581 860 b 202 1076 289 860 202 952 l 292 1076 b 435 934 292 996 342 934 "},"ḛ":{"ha":859,"x_min":0,"x_max":0,"o":"m 437 664 b 225 415 304 664 225 571 l 643 415 b 437 664 643 570 566 664 m 730 180 b 447 -12 705 64 594 -12 b 136 317 250 -12 136 109 l 136 424 b 437 743 136 616 256 743 b 733 399 625 743 733 618 l 733 342 l 225 342 l 225 317 b 447 67 225 164 311 67 b 642 180 547 67 619 109 m 342 -205 b 282 -317 299 -205 282 -236 l 199 -317 b 345 -127 199 -197 252 -127 b 541 -237 453 -127 481 -237 b 601 -126 584 -237 601 -206 l 684 -126 b 538 -316 684 -246 630 -316 b 342 -205 430 -316 402 -205 "},"ė":{"ha":859,"x_min":0,"x_max":0,"o":"m 437 664 b 225 415 304 664 225 571 l 643 415 b 437 664 643 570 566 664 m 730 180 b 447 -12 705 64 594 -12 b 136 317 250 -12 136 109 l 136 424 b 437 743 136 616 256 743 b 733 399 625 743 733 618 l 733 342 l 225 342 l 225 317 b 447 67 225 164 311 67 b 642 180 547 67 619 109 m 435 893 b 357 970 393 893 357 928 b 435 1046 357 1011 393 1046 b 512 970 476 1046 512 1011 b 435 893 512 928 476 893 "},"ȩ":{"ha":859,"x_min":0,"x_max":0,"o":"m 643 415 b 437 664 643 570 566 664 b 225 415 304 664 225 571 m 225 342 l 225 317 b 447 67 225 164 311 67 b 642 180 547 67 619 109 l 730 180 b 479 -11 707 73 610 -1 l 446 -98 b 583 -205 534 -96 583 -134 b 427 -328 583 -279 520 -328 b 340 -316 394 -328 373 -326 l 340 -250 b 422 -260 356 -255 397 -260 b 501 -207 473 -260 501 -241 b 399 -159 501 -173 472 -159 l 360 -159 l 360 -111 l 399 -9 b 136 317 232 9 136 126 l 136 424 b 437 743 136 616 256 743 b 733 399 625 743 733 618 l 733 342 "},"ḝ":{"ha":859,"x_min":0,"x_max":0,"o":"m 667 1069 b 435 853 667 945 581 853 b 202 1069 289 853 202 945 l 292 1069 b 435 927 292 989 342 927 b 578 1069 528 927 578 989 m 643 415 b 437 664 643 570 566 664 b 225 415 304 664 225 571 m 225 342 l 225 317 b 447 67 225 164 311 67 b 642 180 547 67 619 109 l 730 180 b 479 -11 707 73 610 -1 l 446 -98 b 583 -205 534 -96 583 -134 b 427 -328 583 -279 520 -328 b 340 -316 394 -328 373 -326 l 340 -250 b 422 -260 356 -255 397 -260 b 501 -207 473 -260 501 -241 b 399 -159 501 -173 472 -159 l 360 -159 l 360 -111 l 399 -9 b 136 317 232 9 136 126 l 136 424 b 437 743 136 616 256 743 b 733 399 625 743 733 618 l 733 342 "},"ę":{"ha":859,"x_min":0,"x_max":0,"o":"m 567 -282 b 414 -152 477 -282 414 -228 b 506 -8 414 -97 446 -47 l 506 1 b 440 -12 491 -7 463 -12 b 136 317 250 -12 136 111 l 136 424 b 437 743 136 616 256 743 b 733 399 625 743 733 618 l 733 342 l 225 342 l 225 317 b 447 67 225 164 311 67 b 642 180 547 67 619 109 l 730 180 b 625 30 718 128 682 77 b 501 -134 531 -46 501 -85 b 585 -207 501 -176 536 -207 b 630 -202 602 -207 620 -205 l 630 -273 b 567 -282 612 -279 589 -282 m 437 664 b 225 415 304 664 225 571 l 643 415 b 437 664 643 570 566 664 "},"f":{"ha":859,"x_min":0,"x_max":0,"o":"m 328 655 l 132 655 l 132 730 l 328 730 l 328 814 b 593 1013 328 944 419 1013 b 750 1003 644 1013 721 1008 l 750 928 b 593 937 711 933 642 937 b 417 812 477 937 417 894 l 417 730 l 750 730 l 750 655 l 417 655 l 417 0 l 328 0 "},"ḟ":{"ha":859,"x_min":0,"x_max":0,"o":"m 328 655 l 132 655 l 132 730 l 328 730 l 328 814 b 593 1013 328 944 419 1013 b 750 1003 644 1013 721 1008 l 750 928 b 593 937 711 933 642 937 b 417 812 477 937 417 894 l 417 730 l 750 730 l 750 655 l 417 655 l 417 0 l 328 0 m 144 886 b 67 963 103 886 67 922 b 144 1040 67 1004 103 1040 b 222 963 186 1040 222 1004 b 144 886 222 922 186 886 "},"g":{"ha":859,"x_min":0,"x_max":0,"o":"m 194 316 b 410 67 194 165 279 67 b 625 316 540 67 625 165 l 625 414 b 410 663 625 565 540 663 b 194 414 279 663 194 564 l 194 316 m 408 -274 b 121 -85 246 -274 137 -202 l 210 -85 b 409 -196 226 -152 305 -196 b 623 5 546 -196 623 -124 l 623 105 l 610 105 b 390 -12 575 31 495 -12 b 105 295 220 -12 105 113 l 105 435 b 390 743 105 618 220 743 b 610 623 496 743 576 699 l 623 623 l 623 730 l 711 730 l 711 0 b 408 -274 711 -173 600 -274 "},"ǵ":{"ha":859,"x_min":0,"x_max":0,"o":"m 357 879 l 519 1104 l 635 1104 l 460 879 m 711 0 b 408 -274 711 -173 600 -274 b 121 -85 246 -274 137 -202 l 210 -85 b 409 -196 226 -152 305 -196 b 623 5 546 -196 623 -124 l 623 105 l 610 105 b 390 -12 575 31 495 -12 b 105 295 220 -12 105 113 l 105 435 b 390 743 105 618 220 743 b 610 623 496 743 576 699 l 623 623 l 623 730 l 711 730 m 194 316 b 410 67 194 165 279 67 b 625 316 540 67 625 165 l 625 414 b 410 663 625 565 540 663 b 194 414 279 663 194 564 "},"ǧ":{"ha":859,"x_min":0,"x_max":0,"o":"m 351 879 l 164 1106 l 279 1106 l 404 947 l 413 947 l 537 1106 l 652 1106 l 465 879 m 711 0 b 408 -274 711 -173 600 -274 b 121 -85 246 -274 137 -202 l 210 -85 b 409 -196 226 -152 305 -196 b 623 5 546 -196 623 -124 l 623 105 l 610 105 b 390 -12 575 31 495 -12 b 105 295 220 -12 105 113 l 105 435 b 390 743 105 618 220 743 b 610 623 496 743 576 699 l 623 623 l 623 730 l 711 730 m 194 316 b 410 67 194 165 279 67 b 625 316 540 67 625 165 l 625 414 b 410 663 625 565 540 663 b 194 414 279 663 194 564 "},"ĝ":{"ha":859,"x_min":0,"x_max":0,"o":"m 194 316 b 410 67 194 165 279 67 b 625 316 540 67 625 165 l 625 414 b 410 663 625 565 540 663 b 194 414 279 663 194 564 l 194 316 m 408 -274 b 121 -85 246 -274 137 -202 l 210 -85 b 409 -196 226 -152 305 -196 b 623 5 546 -196 623 -124 l 623 105 l 610 105 b 390 -12 575 31 495 -12 b 105 295 220 -12 105 113 l 105 435 b 390 743 105 618 220 743 b 610 623 496 743 576 699 l 623 623 l 623 730 l 711 730 l 711 0 b 408 -274 711 -173 600 -274 m 465 1099 l 652 872 l 537 872 l 413 1031 l 404 1031 l 279 872 l 164 872 l 351 1099 "},"ğ":{"ha":859,"x_min":0,"x_max":0,"o":"m 194 316 b 410 67 194 165 279 67 b 625 316 540 67 625 165 l 625 414 b 410 663 625 565 540 663 b 194 414 279 663 194 564 l 194 316 m 408 -274 b 121 -85 246 -274 137 -202 l 210 -85 b 409 -196 226 -152 305 -196 b 623 5 546 -196 623 -124 l 623 105 l 610 105 b 390 -12 575 31 495 -12 b 105 295 220 -12 105 113 l 105 435 b 390 743 105 618 220 743 b 610 623 496 743 576 699 l 623 623 l 623 730 l 711 730 l 711 0 b 408 -274 711 -173 600 -274 m 408 934 b 551 1076 502 934 552 996 l 641 1076 b 408 860 641 952 554 860 b 176 1076 262 860 176 952 l 266 1076 b 408 934 265 996 315 934 "},"ḡ":{"ha":859,"x_min":0,"x_max":0,"o":"m 194 316 b 410 67 194 165 279 67 b 625 316 540 67 625 165 l 625 414 b 410 663 625 565 540 663 b 194 414 279 663 194 564 l 194 316 m 408 -274 b 121 -85 246 -274 137 -202 l 210 -85 b 409 -196 226 -152 305 -196 b 623 5 546 -196 623 -124 l 623 105 l 610 105 b 390 -12 575 31 495 -12 b 105 295 220 -12 105 113 l 105 435 b 390 743 105 618 220 743 b 610 623 496 743 576 699 l 623 623 l 623 730 l 711 730 l 711 0 b 408 -274 711 -173 600 -274 m 192 934 l 192 1014 l 625 1014 l 625 934 "},"ġ":{"ha":859,"x_min":0,"x_max":0,"o":"m 194 316 b 410 67 194 165 279 67 b 625 316 540 67 625 165 l 625 414 b 410 663 625 565 540 663 b 194 414 279 663 194 564 l 194 316 m 408 -274 b 121 -85 246 -274 137 -202 l 210 -85 b 409 -196 226 -152 305 -196 b 623 5 546 -196 623 -124 l 623 105 l 610 105 b 390 -12 575 31 495 -12 b 105 295 220 -12 105 113 l 105 435 b 390 743 105 618 220 743 b 610 623 496 743 576 699 l 623 623 l 623 730 l 711 730 l 711 0 b 408 -274 711 -173 600 -274 m 408 893 b 331 970 367 893 331 928 b 408 1046 331 1011 367 1046 b 486 970 450 1046 486 1011 b 408 893 486 928 450 893 "},"ģ":{"ha":859,"x_min":0,"x_max":0,"o":"m 194 316 b 410 67 194 165 279 67 b 625 316 540 67 625 165 l 625 414 b 410 663 625 565 540 663 b 194 414 279 663 194 564 l 194 316 m 408 -274 b 121 -85 246 -274 137 -202 l 210 -85 b 409 -196 226 -152 305 -196 b 623 5 546 -196 623 -124 l 623 105 l 610 105 b 390 -12 575 31 495 -12 b 105 295 220 -12 105 113 l 105 435 b 390 743 105 618 220 743 b 610 623 496 743 576 699 l 623 623 l 623 730 l 711 730 l 711 0 b 408 -274 711 -173 600 -274 m 528 1128 l 458 882 l 363 882 l 442 1128 "},"h":{"ha":859,"x_min":0,"x_max":0,"o":"m 140 1021 l 225 1021 l 225 599 l 234 599 b 473 743 274 691 359 743 b 718 475 632 743 718 648 l 718 0 l 629 0 l 629 452 b 449 663 629 595 572 663 b 229 434 318 663 229 570 l 229 0 l 140 0 "},"ḧ":{"ha":859,"x_min":0,"x_max":0,"o":"m 140 1021 l 225 1021 l 225 599 l 234 599 b 473 743 274 691 359 743 b 718 475 632 743 718 648 l 718 0 l 629 0 l 629 452 b 449 663 629 595 572 663 b 229 434 318 663 229 570 l 229 0 l 140 0 m 58 1173 b -14 1245 20 1173 -14 1206 b 58 1318 -14 1284 20 1318 b 130 1245 96 1318 130 1284 b 58 1173 130 1206 96 1173 m 317 1173 b 245 1245 279 1173 245 1206 b 317 1318 245 1284 279 1318 b 389 1245 355 1318 389 1284 b 317 1173 389 1206 355 1173 "},"ȟ":{"ha":859,"x_min":0,"x_max":0,"o":"m 225 1139 l 141 1139 l -55 1341 l 50 1341 l 179 1204 l 187 1204 l 316 1341 l 421 1341 m 140 1021 l 225 1021 l 225 599 l 234 599 b 473 743 274 691 359 743 b 718 475 632 743 718 648 l 718 0 l 629 0 l 629 452 b 449 663 629 595 572 663 b 229 434 318 663 229 570 l 229 0 l 140 0 "},"ĥ":{"ha":859,"x_min":0,"x_max":0,"o":"m 140 1021 l 225 1021 l 225 599 l 234 599 b 473 743 274 691 359 743 b 718 475 632 743 718 648 l 718 0 l 629 0 l 629 452 b 449 663 629 595 572 663 b 229 434 318 663 229 570 l 229 0 l 140 0 m 252 1335 l 439 1108 l 323 1108 l 199 1267 l 190 1267 l 66 1108 l -50 1108 l 138 1335 "},"ḥ":{"ha":859,"x_min":0,"x_max":0,"o":"m 140 1021 l 225 1021 l 225 599 l 234 599 b 473 743 274 691 359 743 b 718 475 632 743 718 648 l 718 0 l 629 0 l 629 452 b 449 663 629 595 572 663 b 229 434 318 663 229 570 l 229 0 l 140 0 m 429 -298 b 352 -222 388 -298 352 -263 b 429 -145 352 -180 388 -145 b 507 -222 471 -145 507 -180 b 429 -298 507 -263 471 -298 "},"ḣ":{"ha":859,"x_min":0,"x_max":0,"o":"m 140 1021 l 225 1021 l 225 599 l 234 599 b 473 743 274 691 359 743 b 718 475 632 743 718 648 l 718 0 l 629 0 l 629 452 b 449 663 629 595 572 663 b 229 434 318 663 229 570 l 229 0 l 140 0 m 180 1168 b 102 1245 138 1168 102 1204 b 180 1322 102 1286 138 1322 b 257 1245 221 1322 257 1286 b 180 1168 257 1204 221 1168 "},"ḫ":{"ha":859,"x_min":0,"x_max":0,"o":"m 140 1021 l 225 1021 l 225 599 l 234 599 b 473 743 274 691 359 743 b 718 475 632 743 718 648 l 718 0 l 629 0 l 629 452 b 449 663 629 595 572 663 b 229 434 318 663 229 570 l 229 0 l 140 0 m 429 -246 b 572 -104 523 -246 573 -184 l 662 -104 b 429 -320 662 -228 575 -320 b 197 -104 283 -320 197 -228 l 287 -104 b 429 -246 286 -184 336 -246 "},"ḩ":{"ha":859,"x_min":0,"x_max":0,"o":"m 140 0 l 140 1021 l 225 1021 l 225 599 l 234 599 b 473 743 274 691 359 743 b 718 475 632 743 718 648 l 718 0 l 629 0 l 629 452 b 449 663 629 595 572 663 b 229 434 318 663 229 570 l 229 0 l 191 -96 b 336 -205 282 -96 336 -136 b 179 -328 336 -277 275 -328 b 82 -315 141 -328 109 -323 l 82 -256 b 168 -268 101 -262 141 -268 b 258 -207 224 -268 258 -244 b 153 -152 258 -170 224 -152 l 115 -152 l 115 -106 l 158 0 "},"ħ":{"ha":859,"x_min":0,"x_max":0,"o":"m 234 599 b 473 743 274 691 359 743 b 718 475 632 743 718 648 l 718 0 l 629 0 l 629 452 b 449 663 629 595 572 663 b 229 434 318 663 229 570 l 229 0 l 140 0 l 140 868 l 20 868 l 20 934 l 140 934 l 140 1021 l 225 1021 l 225 934 l 395 934 l 395 868 l 225 868 l 225 599 "},"ẖ":{"ha":859,"x_min":0,"x_max":0,"o":"m 140 1021 l 225 1021 l 225 599 l 234 599 b 473 743 274 691 359 743 b 718 475 632 743 718 648 l 718 0 l 629 0 l 629 452 b 449 663 629 595 572 663 b 229 434 318 663 229 570 l 229 0 l 140 0 m 213 -262 l 213 -182 l 646 -182 l 646 -262 "},"i":{"ha":859,"x_min":0,"x_max":0,"o":"m 443 924 b 359 1008 397 924 359 962 b 443 1092 359 1054 397 1092 b 527 1008 489 1092 527 1054 b 443 924 527 962 489 924 m 151 0 l 151 72 l 408 72 l 408 659 l 150 659 l 150 730 l 497 730 l 497 72 l 747 72 l 747 0 "},"ì":{"ha":859,"x_min":0,"x_max":0,"o":"m 151 0 l 151 72 l 408 72 l 408 659 l 150 659 l 150 730 l 497 730 l 497 72 l 747 72 l 747 0 m 414 872 l 239 1097 l 355 1097 l 517 872 "},"ȉ":{"ha":859,"x_min":0,"x_max":0,"o":"m 633 872 l 531 872 l 355 1097 l 472 1097 m 378 872 l 276 872 l 100 1097 l 217 1097 m 151 0 l 151 72 l 408 72 l 408 659 l 150 659 l 150 730 l 497 730 l 497 72 l 747 72 l 747 0 "},"í":{"ha":859,"x_min":0,"x_max":0,"o":"m 395 872 l 556 1097 l 673 1097 l 497 872 m 151 0 l 151 72 l 408 72 l 408 659 l 150 659 l 150 730 l 497 730 l 497 72 l 747 72 l 747 0 "},"î":{"ha":859,"x_min":0,"x_max":0,"o":"m 151 0 l 151 72 l 408 72 l 408 659 l 150 659 l 150 730 l 497 730 l 497 72 l 747 72 l 747 0 m 503 1093 l 690 865 l 574 865 l 450 1025 l 441 1025 l 317 865 l 201 865 l 389 1093 "},"ǐ":{"ha":859,"x_min":0,"x_max":0,"o":"m 389 872 l 201 1099 l 317 1099 l 441 940 l 450 940 l 574 1099 l 690 1099 l 503 872 m 151 0 l 151 72 l 408 72 l 408 659 l 150 659 l 150 730 l 497 730 l 497 72 l 747 72 l 747 0 "},"ï":{"ha":859,"x_min":0,"x_max":0,"o":"m 151 0 l 151 72 l 408 72 l 408 659 l 150 659 l 150 730 l 497 730 l 497 72 l 747 72 l 747 0 m 315 895 b 243 968 277 895 243 929 b 315 1040 243 1006 277 1040 b 387 968 353 1040 387 1006 b 315 895 387 929 353 895 m 574 895 b 503 968 536 895 503 929 b 574 1040 503 1006 536 1040 b 646 968 612 1040 646 1006 b 574 895 646 929 612 895 "},"ḯ":{"ha":859,"x_min":0,"x_max":0,"o":"m 151 0 l 151 72 l 408 72 l 408 659 l 150 659 l 150 730 l 497 730 l 497 72 l 747 72 l 747 0 m 522 1325 l 633 1325 l 477 1124 l 381 1124 m 316 895 b 244 968 278 895 244 929 b 316 1040 244 1006 278 1040 b 388 968 354 1040 388 1006 b 316 895 388 929 354 895 m 575 895 b 503 968 537 895 503 929 b 575 1040 503 1006 537 1040 b 647 968 613 1040 647 1006 b 575 895 647 929 613 895 "},"ĭ":{"ha":859,"x_min":0,"x_max":0,"o":"m 151 0 l 151 72 l 408 72 l 408 659 l 150 659 l 150 730 l 497 730 l 497 72 l 747 72 l 747 0 m 446 920 b 589 1063 539 920 589 982 l 678 1063 b 446 846 678 939 591 846 b 213 1063 300 846 213 939 l 303 1063 b 446 920 302 982 353 920 "},"ị":{"ha":859,"x_min":0,"x_max":0,"o":"m 443 924 b 359 1008 397 924 359 962 b 443 1092 359 1054 397 1092 b 527 1008 489 1092 527 1054 b 443 924 527 962 489 924 m 151 0 l 151 72 l 408 72 l 408 659 l 150 659 l 150 730 l 497 730 l 497 72 l 747 72 l 747 0 m 429 -298 b 352 -222 388 -298 352 -263 b 429 -145 352 -180 388 -145 b 507 -222 471 -145 507 -180 b 429 -298 507 -263 471 -298 "},"ȋ":{"ha":859,"x_min":0,"x_max":0,"o":"m 589 846 b 446 989 589 927 539 989 b 303 846 353 989 302 927 l 213 846 b 446 1063 213 970 300 1063 b 678 846 591 1063 678 970 m 151 0 l 151 72 l 408 72 l 408 659 l 150 659 l 150 730 l 497 730 l 497 72 l 747 72 l 747 0 "},"ī":{"ha":859,"x_min":0,"x_max":0,"o":"m 151 0 l 151 72 l 408 72 l 408 659 l 150 659 l 150 730 l 497 730 l 497 72 l 747 72 l 747 0 m 229 927 l 229 1007 l 662 1007 l 662 927 "},"ḭ":{"ha":859,"x_min":0,"x_max":0,"o":"m 443 924 b 359 1008 397 924 359 962 b 443 1092 359 1054 397 1092 b 527 1008 489 1092 527 1054 b 443 924 527 962 489 924 m 151 0 l 151 72 l 408 72 l 408 659 l 150 659 l 150 730 l 497 730 l 497 72 l 747 72 l 747 0 m 330 -205 b 270 -317 287 -205 270 -236 l 186 -317 b 333 -127 186 -197 240 -127 b 528 -237 441 -127 469 -237 b 589 -126 572 -237 589 -206 l 672 -126 b 526 -316 672 -246 618 -316 b 330 -205 418 -316 390 -205 "},"ỉ":{"ha":859,"x_min":0,"x_max":0,"o":"m 151 0 l 151 72 l 408 72 l 408 659 l 150 659 l 150 730 l 497 730 l 497 72 l 747 72 l 747 0 m 336 1074 b 429 1093 359 1085 396 1093 b 558 976 506 1093 558 1045 b 450 843 558 918 517 867 l 410 897 b 477 970 450 910 477 940 b 410 1024 477 1002 450 1024 b 336 1006 385 1024 357 1017 "},"ĩ":{"ha":859,"x_min":0,"x_max":0,"o":"m 151 0 l 151 72 l 408 72 l 408 659 l 150 659 l 150 730 l 497 730 l 497 72 l 747 72 l 747 0 m 347 966 b 286 854 303 966 286 935 l 203 854 b 349 1044 203 975 256 1044 b 545 934 457 1044 485 934 b 605 1045 588 934 605 965 l 688 1045 b 542 855 688 925 634 855 b 347 966 434 855 406 966 "},"į":{"ha":859,"x_min":0,"x_max":0,"o":"m 443 924 b 359 1008 397 924 359 962 b 443 1092 359 1054 397 1092 b 527 1008 489 1092 527 1054 b 443 924 527 962 489 924 m 747 0 b 624 -142 671 -34 624 -89 b 699 -205 624 -184 649 -205 b 747 -199 716 -205 739 -203 l 747 -271 b 669 -283 736 -279 705 -283 b 538 -169 590 -283 538 -238 b 665 0 538 -100 581 -44 l 151 0 l 151 72 l 408 72 l 408 659 l 150 659 l 150 730 l 497 730 l 497 72 l 747 72 "},"j":{"ha":859,"x_min":0,"x_max":0,"o":"m 585 -8 b 302 -214 585 -153 502 -214 b 130 -206 241 -214 188 -212 l 130 -132 b 300 -138 172 -136 246 -138 b 496 12 453 -138 496 -105 l 496 659 l 150 659 l 150 730 l 585 730 m 531 924 b 447 1008 485 924 447 962 b 531 1092 447 1054 485 1092 b 615 1008 577 1092 615 1054 b 531 924 615 962 577 924 "},"ĵ":{"ha":859,"x_min":0,"x_max":0,"o":"m 585 -8 b 302 -214 585 -153 502 -214 b 130 -206 241 -214 188 -212 l 130 -132 b 300 -138 172 -136 246 -138 b 496 12 453 -138 496 -105 l 496 659 l 150 659 l 150 730 l 585 730 m 598 1099 l 785 872 l 670 872 l 546 1031 l 536 1031 l 412 872 l 297 872 l 484 1099 "},"k":{"ha":859,"x_min":0,"x_max":0,"o":"m 666 0 l 401 387 l 289 277 l 289 0 l 200 0 l 200 1021 l 289 1021 l 289 387 l 297 387 l 640 730 l 753 730 l 464 448 l 773 0 "},"ḱ":{"ha":859,"x_min":0,"x_max":0,"o":"m 289 1139 l 182 1139 l 392 1341 l 510 1341 m 666 0 l 401 387 l 289 277 l 289 0 l 200 0 l 200 1021 l 289 1021 l 289 387 l 297 387 l 640 730 l 753 730 l 464 448 l 773 0 "},"ǩ":{"ha":859,"x_min":0,"x_max":0,"o":"m 201 1139 l 5 1341 l 110 1341 l 239 1204 l 247 1204 l 376 1341 l 481 1341 l 285 1139 m 666 0 l 401 387 l 289 277 l 289 0 l 200 0 l 200 1021 l 289 1021 l 289 387 l 297 387 l 640 730 l 753 730 l 464 448 l 773 0 "},"ḳ":{"ha":859,"x_min":0,"x_max":0,"o":"m 473 -145 b 551 -222 515 -145 551 -180 b 473 -298 551 -263 515 -298 b 396 -222 432 -298 396 -263 b 473 -145 396 -180 432 -145 m 773 0 l 666 0 l 401 387 l 289 277 l 289 0 l 200 0 l 200 1021 l 289 1021 l 289 387 l 297 387 l 640 730 l 753 730 l 464 448 "},"ḵ":{"ha":859,"x_min":0,"x_max":0,"o":"m 289 0 l 200 0 l 200 1021 l 289 1021 l 289 387 l 297 387 l 640 730 l 753 730 l 464 448 l 773 0 l 666 0 l 401 387 l 289 277 m 271 -182 l 703 -182 l 703 -262 l 271 -262 "},"ķ":{"ha":859,"x_min":0,"x_max":0,"o":"m 416 -88 l 511 -88 l 433 -335 l 347 -335 m 773 0 l 666 0 l 401 387 l 289 277 l 289 0 l 200 0 l 200 1021 l 289 1021 l 289 387 l 297 387 l 640 730 l 753 730 l 464 448 "},"l":{"ha":859,"x_min":0,"x_max":0,"o":"m 151 0 l 151 72 l 408 72 l 408 949 l 150 949 l 150 1021 l 497 1021 l 497 72 l 747 72 l 747 0 "},"ĺ":{"ha":859,"x_min":0,"x_max":0,"o":"m 376 1162 l 538 1387 l 654 1387 l 479 1162 m 151 0 l 151 72 l 408 72 l 408 949 l 150 949 l 150 1021 l 497 1021 l 497 72 l 747 72 l 747 0 "},"ḽ":{"ha":859,"x_min":0,"x_max":0,"o":"m 151 0 l 151 72 l 408 72 l 408 949 l 150 949 l 150 1021 l 497 1021 l 497 72 l 747 72 l 747 0 m 506 -115 l 693 -342 l 578 -342 l 454 -182 l 444 -182 l 320 -342 l 205 -342 l 392 -115 "},"ḷ":{"ha":859,"x_min":0,"x_max":0,"o":"m 151 0 l 151 72 l 408 72 l 408 949 l 150 949 l 150 1021 l 497 1021 l 497 72 l 747 72 l 747 0 m 449 -298 b 372 -222 408 -298 372 -263 b 449 -145 372 -180 408 -145 b 526 -222 490 -145 526 -180 b 449 -298 526 -263 490 -298 "},"ḹ":{"ha":859,"x_min":0,"x_max":0,"o":"m 152 1205 l 152 1285 l 585 1285 l 585 1205 m 151 0 l 151 72 l 408 72 l 408 949 l 150 949 l 150 1021 l 497 1021 l 497 72 l 747 72 l 747 0 m 449 -298 b 372 -222 408 -298 372 -263 b 449 -145 372 -180 408 -145 b 526 -222 490 -145 526 -180 b 449 -298 526 -263 490 -298 "},"ḻ":{"ha":859,"x_min":0,"x_max":0,"o":"m 151 0 l 151 72 l 408 72 l 408 949 l 150 949 l 150 1021 l 497 1021 l 497 72 l 747 72 l 747 0 m 233 -262 l 233 -182 l 665 -182 l 665 -262 "},"ļ":{"ha":859,"x_min":0,"x_max":0,"o":"m 151 0 l 151 72 l 408 72 l 408 949 l 150 949 l 150 1021 l 497 1021 l 497 72 l 747 72 l 747 0 m 334 -335 l 403 -88 l 498 -88 l 419 -335 "},"ľ":{"ha":859,"x_min":0,"x_max":0,"o":"m 766 1021 l 741 720 l 677 720 l 677 1021 m 151 0 l 151 72 l 408 72 l 408 949 l 150 949 l 150 1021 l 497 1021 l 497 72 l 747 72 l 747 0 "},"ŀ":{"ha":859,"x_min":0,"x_max":0,"o":"m 151 0 l 151 72 l 408 72 l 408 949 l 150 949 l 150 1021 l 497 1021 l 497 72 l 747 72 l 747 0 m 762 481 b 684 558 720 481 684 517 b 762 635 684 600 720 635 b 839 558 803 635 839 600 b 762 481 839 517 803 481 "},"ł":{"ha":859,"x_min":0,"x_max":0,"o":"m 747 72 l 747 0 l 151 0 l 151 72 l 408 72 l 408 474 l 165 335 l 165 415 l 408 557 l 408 949 l 150 949 l 150 1021 l 497 1021 l 497 609 l 722 741 l 722 654 l 497 525 l 497 72 "},"m":{"ha":859,"x_min":0,"x_max":0,"o":"m 775 0 l 692 0 l 692 504 b 588 663 692 609 656 663 b 473 489 516 663 473 597 l 473 0 l 389 0 l 389 505 b 285 663 389 609 354 663 b 167 489 212 663 167 597 l 167 0 l 83 0 l 83 730 l 164 730 l 164 633 l 174 633 b 313 743 193 701 246 743 b 448 633 383 743 433 702 l 458 633 b 614 743 477 699 539 743 b 775 524 721 743 775 669 "},"ḿ":{"ha":859,"x_min":0,"x_max":0,"o":"m 404 879 l 565 1104 l 682 1104 l 506 879 m 775 0 l 692 0 l 692 504 b 588 663 692 609 656 663 b 473 489 516 663 473 597 l 473 0 l 389 0 l 389 505 b 285 663 389 609 354 663 b 167 489 212 663 167 597 l 167 0 l 83 0 l 83 730 l 164 730 l 164 633 l 174 633 b 313 743 193 701 246 743 b 448 633 383 743 433 702 l 458 633 b 614 743 477 699 539 743 b 775 524 721 743 775 669 "},"ṁ":{"ha":859,"x_min":0,"x_max":0,"o":"m 775 0 l 692 0 l 692 504 b 588 663 692 609 656 663 b 473 489 516 663 473 597 l 473 0 l 389 0 l 389 505 b 285 663 389 609 354 663 b 167 489 212 663 167 597 l 167 0 l 83 0 l 83 730 l 164 730 l 164 633 l 174 633 b 313 743 193 701 246 743 b 448 633 383 743 433 702 l 458 633 b 614 743 477 699 539 743 b 775 524 721 743 775 669 m 429 886 b 352 963 388 886 352 922 b 429 1040 352 1004 388 1040 b 507 963 471 1040 507 1004 b 429 886 507 922 471 886 "},"ṃ":{"ha":859,"x_min":0,"x_max":0,"o":"m 775 0 l 692 0 l 692 504 b 588 663 692 609 656 663 b 473 489 516 663 473 597 l 473 0 l 389 0 l 389 505 b 285 663 389 609 354 663 b 167 489 212 663 167 597 l 167 0 l 83 0 l 83 730 l 164 730 l 164 633 l 174 633 b 313 743 193 701 246 743 b 448 633 383 743 433 702 l 458 633 b 614 743 477 699 539 743 b 775 524 721 743 775 669 m 429 -298 b 352 -222 388 -298 352 -263 b 429 -145 352 -180 388 -145 b 507 -222 471 -145 507 -180 b 429 -298 507 -263 471 -298 "},"n":{"ha":859,"x_min":0,"x_max":0,"o":"m 140 730 l 225 730 l 225 599 l 234 599 b 473 743 274 691 359 743 b 718 475 632 743 718 648 l 718 0 l 629 0 l 629 452 b 449 663 629 595 572 663 b 229 434 318 663 229 570 l 229 0 l 140 0 "},"ǹ":{"ha":859,"x_min":0,"x_max":0,"o":"m 140 730 l 225 730 l 225 599 l 234 599 b 473 743 274 691 359 743 b 718 475 632 743 718 648 l 718 0 l 629 0 l 629 452 b 449 663 629 595 572 663 b 229 434 318 663 229 570 l 229 0 l 140 0 m 410 879 l 234 1104 l 351 1104 l 512 879 "},"ń":{"ha":859,"x_min":0,"x_max":0,"o":"m 378 879 l 540 1104 l 656 1104 l 481 879 m 140 730 l 225 730 l 225 599 l 234 599 b 473 743 274 691 359 743 b 718 475 632 743 718 648 l 718 0 l 629 0 l 629 452 b 449 663 629 595 572 663 b 229 434 318 663 229 570 l 229 0 l 140 0 "},"ñ":{"ha":859,"x_min":0,"x_max":0,"o":"m 140 730 l 225 730 l 225 599 l 234 599 b 473 743 274 691 359 743 b 718 475 632 743 718 648 l 718 0 l 629 0 l 629 452 b 449 663 629 595 572 663 b 229 434 318 663 229 570 l 229 0 l 140 0 m 330 973 b 270 861 287 973 270 942 l 186 861 b 333 1050 186 981 240 1050 b 528 941 441 1050 469 941 b 589 1052 572 941 589 972 l 672 1052 b 526 862 672 932 618 862 b 330 973 418 862 390 973 "},"ṇ":{"ha":859,"x_min":0,"x_max":0,"o":"m 140 730 l 225 730 l 225 599 l 234 599 b 473 743 274 691 359 743 b 718 475 632 743 718 648 l 718 0 l 629 0 l 629 452 b 449 663 629 595 572 663 b 229 434 318 663 229 570 l 229 0 l 140 0 m 429 -298 b 352 -222 388 -298 352 -263 b 429 -145 352 -180 388 -145 b 507 -222 471 -145 507 -180 b 429 -298 507 -263 471 -298 "},"ṅ":{"ha":859,"x_min":0,"x_max":0,"o":"m 140 730 l 225 730 l 225 599 l 234 599 b 473 743 274 691 359 743 b 718 475 632 743 718 648 l 718 0 l 629 0 l 629 452 b 449 663 629 595 572 663 b 229 434 318 663 229 570 l 229 0 l 140 0 m 429 886 b 352 963 388 886 352 922 b 429 1040 352 1004 388 1040 b 507 963 471 1040 507 1004 b 429 886 507 922 471 886 "},"ň":{"ha":859,"x_min":0,"x_max":0,"o":"m 372 879 l 185 1106 l 300 1106 l 425 947 l 434 947 l 558 1106 l 673 1106 l 486 879 m 140 730 l 225 730 l 225 599 l 234 599 b 473 743 274 691 359 743 b 718 475 632 743 718 648 l 718 0 l 629 0 l 629 452 b 449 663 629 595 572 663 b 229 434 318 663 229 570 l 229 0 l 140 0 "},"ṋ":{"ha":859,"x_min":0,"x_max":0,"o":"m 140 730 l 225 730 l 225 599 l 234 599 b 473 743 274 691 359 743 b 718 475 632 743 718 648 l 718 0 l 629 0 l 629 452 b 449 663 629 595 572 663 b 229 434 318 663 229 570 l 229 0 l 140 0 m 486 -115 l 673 -342 l 558 -342 l 434 -182 l 425 -182 l 300 -342 l 185 -342 l 372 -115 "},"ṉ":{"ha":859,"x_min":0,"x_max":0,"o":"m 140 730 l 225 730 l 225 599 l 234 599 b 473 743 274 691 359 743 b 718 475 632 743 718 648 l 718 0 l 629 0 l 629 452 b 449 663 629 595 572 663 b 229 434 318 663 229 570 l 229 0 l 140 0 m 213 -262 l 213 -182 l 646 -182 l 646 -262 "},"ņ":{"ha":859,"x_min":0,"x_max":0,"o":"m 140 730 l 225 730 l 225 599 l 234 599 b 473 743 274 691 359 743 b 718 475 632 743 718 648 l 718 0 l 629 0 l 629 452 b 449 663 629 595 572 663 b 229 434 318 663 229 570 l 229 0 l 140 0 m 320 -335 l 389 -88 l 484 -88 l 406 -335 "},"o":{"ha":859,"x_min":0,"x_max":0,"o":"m 429 -12 b 120 311 241 -12 120 114 l 120 419 b 429 742 120 616 241 742 b 739 419 618 742 739 616 l 739 311 b 429 -12 739 114 618 -12 m 429 663 b 209 408 294 663 209 566 l 209 322 b 429 67 209 164 294 67 b 650 322 565 67 650 164 l 650 408 b 429 663 650 566 565 663 "},"ö":{"ha":859,"x_min":0,"x_max":0,"o":"m 429 -12 b 120 311 241 -12 120 114 l 120 419 b 429 742 120 616 241 742 b 739 419 618 742 739 616 l 739 311 b 429 -12 739 114 618 -12 m 429 663 b 209 408 294 663 209 566 l 209 322 b 429 67 209 164 294 67 b 650 322 565 67 650 164 l 650 408 b 429 663 650 566 565 663 m 299 902 b 227 975 261 902 227 936 b 299 1047 227 1013 261 1047 b 371 975 337 1047 371 1013 b 299 902 371 936 337 902 m 558 902 b 486 975 520 902 486 936 b 558 1047 486 1013 520 1047 b 630 975 596 1047 630 1013 b 558 902 630 936 596 902 "},"ø":{"ha":859,"x_min":0,"x_max":0,"o":"m 650 408 b 616 558 650 467 637 517 l 283 119 b 429 67 321 85 370 67 b 650 322 565 67 650 164 m 209 322 b 243 172 209 263 221 212 l 574 612 b 429 663 537 644 488 663 b 209 408 294 663 209 566 m 673 633 b 739 419 715 579 739 506 l 739 311 b 429 -12 739 114 618 -12 b 231 50 350 -12 283 10 l 193 0 l 113 0 l 186 96 b 120 311 144 151 120 224 l 120 419 b 429 742 120 616 241 742 b 625 680 508 742 574 720 l 663 730 l 746 730 "},"õ":{"ha":859,"x_min":0,"x_max":0,"o":"m 429 -12 b 120 311 241 -12 120 114 l 120 419 b 429 742 120 616 241 742 b 739 419 618 742 739 616 l 739 311 b 429 -12 739 114 618 -12 m 429 663 b 209 408 294 663 209 566 l 209 322 b 429 67 209 164 294 67 b 650 322 565 67 650 164 l 650 408 b 429 663 650 566 565 663 m 330 973 b 270 861 287 973 270 942 l 186 861 b 333 1050 186 981 240 1050 b 528 941 441 1050 469 941 b 589 1052 572 941 589 972 l 672 1052 b 526 862 672 932 618 862 b 330 973 418 862 390 973 "},"ó":{"ha":859,"x_min":0,"x_max":0,"o":"m 378 879 l 540 1104 l 656 1104 l 481 879 m 650 408 b 429 663 650 566 565 663 b 209 408 294 663 209 566 l 209 322 b 429 67 209 164 294 67 b 650 322 565 67 650 164 m 739 311 b 429 -12 739 114 618 -12 b 120 311 241 -12 120 114 l 120 419 b 429 742 120 616 241 742 b 739 419 618 742 739 616 "},"ô":{"ha":859,"x_min":0,"x_max":0,"o":"m 429 -12 b 120 311 241 -12 120 114 l 120 419 b 429 742 120 616 241 742 b 739 419 618 742 739 616 l 739 311 b 429 -12 739 114 618 -12 m 429 663 b 209 408 294 663 209 566 l 209 322 b 429 67 209 164 294 67 b 650 322 565 67 650 164 l 650 408 b 429 663 650 566 565 663 m 486 1099 l 673 872 l 558 872 l 434 1031 l 425 1031 l 300 872 l 185 872 l 372 1099 "},"ò":{"ha":859,"x_min":0,"x_max":0,"o":"m 429 -12 b 120 311 241 -12 120 114 l 120 419 b 429 742 120 616 241 742 b 739 419 618 742 739 616 l 739 311 b 429 -12 739 114 618 -12 m 429 663 b 209 408 294 663 209 566 l 209 322 b 429 67 209 164 294 67 b 650 322 565 67 650 164 l 650 408 b 429 663 650 566 565 663 m 384 879 l 208 1104 l 325 1104 l 486 879 "},"ổ":{"ha":859,"x_min":0,"x_max":0,"o":"m 429 -12 b 120 311 241 -12 120 114 l 120 419 b 429 742 120 616 241 742 b 739 419 618 742 739 616 l 739 311 b 429 -12 739 114 618 -12 m 429 663 b 209 408 294 663 209 566 l 209 322 b 429 67 209 164 294 67 b 650 322 565 67 650 164 l 650 408 b 429 663 650 566 565 663 m 486 1099 l 673 872 l 558 872 l 434 1031 l 425 1031 l 300 872 l 185 872 l 372 1099 m 512 1331 b 605 1350 536 1343 572 1350 b 734 1234 682 1350 734 1303 b 627 1101 734 1175 694 1125 l 586 1155 b 654 1227 626 1168 654 1198 b 586 1282 654 1259 626 1282 b 512 1263 561 1282 534 1275 "}}}
